solid magnet_cyclo180
   facet normal 5.814476e-02 0.000000e+00 -9.983082e-01
      outer loop
         vertex 4.000000e+00 0.000000e+00 0.000000e+00
         vertex 4.464372e+00 1.000000e+01 2.704654e-02
         vertex 4.464372e+00 0.000000e+00 2.704654e-02
      endloop
   endfacet
   facet normal 1.736484e-01 0.000000e+00 -9.848077e-01
      outer loop
         vertex 4.464372e+00 0.000000e+00 2.704654e-02
         vertex 4.464372e+00 1.000000e+01 2.704654e-02
         vertex 4.922464e+00 1.000000e+01 1.078206e-01
      endloop
   endfacet
   facet normal 1.736484e-01 0.000000e+00 -9.848077e-01
      outer loop
         vertex 4.464372e+00 0.000000e+00 2.704654e-02
         vertex 4.922464e+00 1.000000e+01 1.078206e-01
         vertex 4.922464e+00 0.000000e+00 1.078206e-01
      endloop
   endfacet
   facet normal 2.868035e-01 0.000000e+00 -9.579894e-01
      outer loop
         vertex 4.922464e+00 0.000000e+00 1.078206e-01
         vertex 4.922464e+00 1.000000e+01 1.078206e-01
         vertex 5.368081e+00 1.000000e+01 2.412298e-01
      endloop
   endfacet
   facet normal 2.868035e-01 0.000000e+00 -9.579894e-01
      outer loop
         vertex 4.922464e+00 0.000000e+00 1.078206e-01
         vertex 5.368081e+00 1.000000e+01 2.412298e-01
         vertex 5.368081e+00 0.000000e+00 2.412298e-01
      endloop
   endfacet
   facet normal 3.960797e-01 0.000000e+00 -9.182162e-01
      outer loop
         vertex 5.368081e+00 0.000000e+00 2.412298e-01
         vertex 5.368081e+00 1.000000e+01 2.412298e-01
         vertex 5.795197e+00 1.000000e+01 4.254696e-01
      endloop
   endfacet
   facet normal 3.960797e-01 0.000000e+00 -9.182162e-01
      outer loop
         vertex 5.368081e+00 0.000000e+00 2.412298e-01
         vertex 5.795197e+00 1.000000e+01 4.254696e-01
         vertex 5.795197e+00 0.000000e+00 4.254696e-01
      endloop
   endfacet
   facet normal 5.000002e-01 0.000000e+00 -8.660253e-01
      outer loop
         vertex 5.795197e+00 0.000000e+00 4.254696e-01
         vertex 5.795197e+00 1.000000e+01 4.254696e-01
         vertex 6.198036e+00 1.000000e+01 6.580490e-01
      endloop
   endfacet
   facet normal 5.000002e-01 0.000000e+00 -8.660253e-01
      outer loop
         vertex 5.795197e+00 0.000000e+00 4.254696e-01
         vertex 6.198036e+00 1.000000e+01 6.580490e-01
         vertex 6.198036e+00 0.000000e+00 6.580490e-01
      endloop
   endfacet
   facet normal 5.971585e-01 0.000000e+00 -8.021232e-01
      outer loop
         vertex 6.198036e+00 0.000000e+00 6.580490e-01
         vertex 6.198036e+00 1.000000e+01 6.580490e-01
         vertex 6.571151e+00 1.000000e+01 9.358225e-01
      endloop
   endfacet
   facet normal 5.971585e-01 0.000000e+00 -8.021232e-01
      outer loop
         vertex 6.198036e+00 0.000000e+00 6.580490e-01
         vertex 6.571151e+00 1.000000e+01 9.358225e-01
         vertex 6.571151e+00 0.000000e+00 9.358225e-01
      endloop
   endfacet
   facet normal 6.862414e-01 0.000000e+00 -7.273738e-01
      outer loop
         vertex 6.571151e+00 0.000000e+00 9.358225e-01
         vertex 6.571151e+00 1.000000e+01 9.358225e-01
         vertex 6.909495e+00 1.000000e+01 1.255034e+00
      endloop
   endfacet
   facet normal 6.862414e-01 0.000000e+00 -7.273738e-01
      outer loop
         vertex 6.571151e+00 0.000000e+00 9.358225e-01
         vertex 6.909495e+00 1.000000e+01 1.255034e+00
         vertex 6.909495e+00 0.000000e+00 1.255034e+00
      endloop
   endfacet
   facet normal 7.660445e-01 0.000000e+00 -6.427875e-01
      outer loop
         vertex 6.909495e+00 0.000000e+00 1.255034e+00
         vertex 6.909495e+00 1.000000e+01 1.255034e+00
         vertex 7.208493e+00 1.000000e+01 1.611366e+00
      endloop
   endfacet
   facet normal 7.660445e-01 0.000000e+00 -6.427875e-01
      outer loop
         vertex 6.909495e+00 0.000000e+00 1.255034e+00
         vertex 7.208493e+00 1.000000e+01 1.611366e+00
         vertex 7.208493e+00 0.000000e+00 1.611366e+00
      endloop
   endfacet
   facet normal 8.354878e-01 0.000000e+00 -5.495090e-01
      outer loop
         vertex 7.208493e+00 0.000000e+00 1.611366e+00
         vertex 7.208493e+00 1.000000e+01 1.611366e+00
         vertex 7.464102e+00 1.000000e+01 2.000000e+00
      endloop
   endfacet
   facet normal 8.354878e-01 0.000000e+00 -5.495090e-01
      outer loop
         vertex 7.208493e+00 0.000000e+00 1.611366e+00
         vertex 7.464102e+00 1.000000e+01 2.000000e+00
         vertex 7.464102e+00 0.000000e+00 2.000000e+00
      endloop
   endfacet
   facet normal 8.936326e-01 0.000000e+00 -4.487993e-01
      outer loop
         vertex 7.464102e+00 0.000000e+00 2.000000e+00
         vertex 7.464102e+00 1.000000e+01 2.000000e+00
         vertex 7.672865e+00 1.000000e+01 2.415681e+00
      endloop
   endfacet
   facet normal 8.936326e-01 0.000000e+00 -4.487993e-01
      outer loop
         vertex 7.464102e+00 0.000000e+00 2.000000e+00
         vertex 7.672865e+00 1.000000e+01 2.415681e+00
         vertex 7.672865e+00 0.000000e+00 2.415681e+00
      endloop
   endfacet
   facet normal 9.396926e-01 0.000000e+00 -3.420202e-01
      outer loop
         vertex 7.672865e+00 0.000000e+00 2.415681e+00
         vertex 7.672865e+00 1.000000e+01 2.415681e+00
         vertex 7.831958e+00 1.000000e+01 2.852787e+00
      endloop
   endfacet
   facet normal 9.396926e-01 0.000000e+00 -3.420202e-01
      outer loop
         vertex 7.672865e+00 0.000000e+00 2.415681e+00
         vertex 7.831958e+00 1.000000e+01 2.852787e+00
         vertex 7.831958e+00 0.000000e+00 2.852787e+00
      endloop
   endfacet
   facet normal 9.730450e-01 0.000000e+00 -2.306155e-01
      outer loop
         vertex 7.831958e+00 0.000000e+00 2.852787e+00
         vertex 7.831958e+00 1.000000e+01 2.852787e+00
         vertex 7.939231e+00 1.000000e+01 3.305407e+00
      endloop
   endfacet
   facet normal 9.730450e-01 0.000000e+00 -2.306155e-01
      outer loop
         vertex 7.831958e+00 0.000000e+00 2.852787e+00
         vertex 7.939231e+00 1.000000e+01 3.305407e+00
         vertex 7.939231e+00 0.000000e+00 3.305407e+00
      endloop
   endfacet
   facet normal 9.932383e-01 0.000000e+00 -1.160933e-01
      outer loop
         vertex 7.939231e+00 0.000000e+00 3.305407e+00
         vertex 7.939231e+00 1.000000e+01 3.305407e+00
         vertex 7.993233e+00 1.000000e+01 3.767421e+00
      endloop
   endfacet
   facet normal 9.932383e-01 0.000000e+00 -1.160933e-01
      outer loop
         vertex 7.939231e+00 0.000000e+00 3.305407e+00
         vertex 7.993233e+00 1.000000e+01 3.767421e+00
         vertex 7.993233e+00 0.000000e+00 3.767421e+00
      endloop
   endfacet
   facet normal 1.000000e+00 0.000000e+00 0.000000e+00
      outer loop
         vertex 7.993233e+00 0.000000e+00 3.767421e+00
         vertex 7.993233e+00 1.000000e+01 3.767421e+00
         vertex 7.993233e+00 1.000000e+01 4.232580e+00
      endloop
   endfacet
   facet normal 1.000000e+00 0.000000e+00 0.000000e+00
      outer loop
         vertex 7.993233e+00 0.000000e+00 3.767421e+00
         vertex 7.993233e+00 1.000000e+01 4.232580e+00
         vertex 7.993233e+00 0.000000e+00 4.232580e+00
      endloop
   endfacet
   facet normal 9.932383e-01 -0.000000e+00 1.160933e-01
      outer loop
         vertex 7.993233e+00 0.000000e+00 4.232580e+00
         vertex 7.993233e+00 1.000000e+01 4.232580e+00
         vertex 7.939231e+00 1.000000e+01 4.694593e+00
      endloop
   endfacet
   facet normal 9.932383e-01 0.000000e+00 1.160933e-01
      outer loop
         vertex 7.993233e+00 0.000000e+00 4.232580e+00
         vertex 7.939231e+00 1.000000e+01 4.694593e+00
         vertex 7.939231e+00 0.000000e+00 4.694593e+00
      endloop
   endfacet
   facet normal 9.730450e-01 -0.000000e+00 2.306155e-01
      outer loop
         vertex 7.939231e+00 0.000000e+00 4.694593e+00
         vertex 7.939231e+00 1.000000e+01 4.694593e+00
         vertex 7.831958e+00 1.000000e+01 5.147213e+00
      endloop
   endfacet
   facet normal 9.730450e-01 0.000000e+00 2.306155e-01
      outer loop
         vertex 7.939231e+00 0.000000e+00 4.694593e+00
         vertex 7.831958e+00 1.000000e+01 5.147213e+00
         vertex 7.831958e+00 0.000000e+00 5.147213e+00
      endloop
   endfacet
   facet normal 9.396926e-01 -0.000000e+00 3.420202e-01
      outer loop
         vertex 7.831958e+00 0.000000e+00 5.147213e+00
         vertex 7.831958e+00 1.000000e+01 5.147213e+00
         vertex 7.672865e+00 1.000000e+01 5.584319e+00
      endloop
   endfacet
   facet normal 9.396926e-01 0.000000e+00 3.420202e-01
      outer loop
         vertex 7.831958e+00 0.000000e+00 5.147213e+00
         vertex 7.672865e+00 1.000000e+01 5.584319e+00
         vertex 7.672865e+00 0.000000e+00 5.584319e+00
      endloop
   endfacet
   facet normal 8.936326e-01 -0.000000e+00 4.487993e-01
      outer loop
         vertex 7.672865e+00 0.000000e+00 5.584319e+00
         vertex 7.672865e+00 1.000000e+01 5.584319e+00
         vertex 7.464102e+00 1.000000e+01 6.000000e+00
      endloop
   endfacet
   facet normal 8.936326e-01 0.000000e+00 4.487993e-01
      outer loop
         vertex 7.672865e+00 0.000000e+00 5.584319e+00
         vertex 7.464102e+00 1.000000e+01 6.000000e+00
         vertex 7.464102e+00 0.000000e+00 6.000000e+00
      endloop
   endfacet
   facet normal 8.354878e-01 -0.000000e+00 5.495090e-01
      outer loop
         vertex 7.464102e+00 0.000000e+00 6.000000e+00
         vertex 7.464102e+00 1.000000e+01 6.000000e+00
         vertex 7.208493e+00 1.000000e+01 6.388634e+00
      endloop
   endfacet
   facet normal 8.354878e-01 0.000000e+00 5.495090e-01
      outer loop
         vertex 7.464102e+00 0.000000e+00 6.000000e+00
         vertex 7.208493e+00 1.000000e+01 6.388634e+00
         vertex 7.208493e+00 0.000000e+00 6.388634e+00
      endloop
   endfacet
   facet normal 7.660445e-01 -0.000000e+00 6.427875e-01
      outer loop
         vertex 7.208493e+00 0.000000e+00 6.388634e+00
         vertex 7.208493e+00 1.000000e+01 6.388634e+00
         vertex 6.909495e+00 1.000000e+01 6.744967e+00
      endloop
   endfacet
   facet normal 7.660445e-01 0.000000e+00 6.427875e-01
      outer loop
         vertex 7.208493e+00 0.000000e+00 6.388634e+00
         vertex 6.909495e+00 1.000000e+01 6.744967e+00
         vertex 6.909495e+00 0.000000e+00 6.744967e+00
      endloop
   endfacet
   facet normal 6.862414e-01 -0.000000e+00 7.273738e-01
      outer loop
         vertex 6.909495e+00 0.000000e+00 6.744967e+00
         vertex 6.909495e+00 1.000000e+01 6.744967e+00
         vertex 6.571151e+00 1.000000e+01 7.064178e+00
      endloop
   endfacet
   facet normal 6.862414e-01 0.000000e+00 7.273738e-01
      outer loop
         vertex 6.909495e+00 0.000000e+00 6.744967e+00
         vertex 6.571151e+00 1.000000e+01 7.064178e+00
         vertex 6.571151e+00 0.000000e+00 7.064178e+00
      endloop
   endfacet
   facet normal 5.971585e-01 -0.000000e+00 8.021232e-01
      outer loop
         vertex 6.571151e+00 0.000000e+00 7.064178e+00
         vertex 6.571151e+00 1.000000e+01 7.064178e+00
         vertex 6.198036e+00 1.000000e+01 7.341951e+00
      endloop
   endfacet
   facet normal 5.971585e-01 0.000000e+00 8.021232e-01
      outer loop
         vertex 6.571151e+00 0.000000e+00 7.064178e+00
         vertex 6.198036e+00 1.000000e+01 7.341951e+00
         vertex 6.198036e+00 0.000000e+00 7.341951e+00
      endloop
   endfacet
   facet normal 5.000002e-01 -0.000000e+00 8.660253e-01
      outer loop
         vertex 6.198036e+00 0.000000e+00 7.341951e+00
         vertex 6.198036e+00 1.000000e+01 7.341951e+00
         vertex 5.795197e+00 1.000000e+01 7.574531e+00
      endloop
   endfacet
   facet normal 5.000002e-01 0.000000e+00 8.660253e-01
      outer loop
         vertex 6.198036e+00 0.000000e+00 7.341951e+00
         vertex 5.795197e+00 1.000000e+01 7.574531e+00
         vertex 5.795197e+00 0.000000e+00 7.574531e+00
      endloop
   endfacet
   facet normal 3.960797e-01 -0.000000e+00 9.182162e-01
      outer loop
         vertex 5.795197e+00 0.000000e+00 7.574531e+00
         vertex 5.795197e+00 1.000000e+01 7.574531e+00
         vertex 5.368081e+00 1.000000e+01 7.758771e+00
      endloop
   endfacet
   facet normal 3.960797e-01 0.000000e+00 9.182162e-01
      outer loop
         vertex 5.795197e+00 0.000000e+00 7.574531e+00
         vertex 5.368081e+00 1.000000e+01 7.758771e+00
         vertex 5.368081e+00 0.000000e+00 7.758771e+00
      endloop
   endfacet
   facet normal 2.868035e-01 -0.000000e+00 9.579894e-01
      outer loop
         vertex 5.368081e+00 0.000000e+00 7.758771e+00
         vertex 5.368081e+00 1.000000e+01 7.758771e+00
         vertex 4.922464e+00 1.000000e+01 7.892180e+00
      endloop
   endfacet
   facet normal 2.868035e-01 0.000000e+00 9.579894e-01
      outer loop
         vertex 5.368081e+00 0.000000e+00 7.758771e+00
         vertex 4.922464e+00 1.000000e+01 7.892180e+00
         vertex 4.922464e+00 0.000000e+00 7.892180e+00
      endloop
   endfacet
   facet normal 1.736484e-01 -0.000000e+00 9.848077e-01
      outer loop
         vertex 4.922464e+00 0.000000e+00 7.892180e+00
         vertex 4.922464e+00 1.000000e+01 7.892180e+00
         vertex 4.464372e+00 1.000000e+01 7.972954e+00
      endloop
   endfacet
   facet normal 1.736484e-01 0.000000e+00 9.848077e-01
      outer loop
         vertex 4.922464e+00 0.000000e+00 7.892180e+00
         vertex 4.464372e+00 1.000000e+01 7.972954e+00
         vertex 4.464372e+00 0.000000e+00 7.972954e+00
      endloop
   endfacet
   facet normal 5.814476e-02 -0.000000e+00 9.983082e-01
      outer loop
         vertex 4.464372e+00 0.000000e+00 7.972954e+00
         vertex 4.464372e+00 1.000000e+01 7.972954e+00
         vertex 4.000000e+00 1.000000e+01 8.000000e+00
      endloop
   endfacet
   facet normal 5.814476e-02 0.000000e+00 9.983082e-01
      outer loop
         vertex 4.464372e+00 0.000000e+00 7.972954e+00
         vertex 4.000000e+00 1.000000e+01 8.000000e+00
         vertex 4.000000e+00 0.000000e+00 8.000000e+00
      endloop
   endfacet
   facet normal -5.814476e-02 0.000000e+00 9.983082e-01
      outer loop
         vertex 4.000000e+00 0.000000e+00 8.000000e+00
         vertex 4.000000e+00 1.000000e+01 8.000000e+00
         vertex 3.535629e+00 1.000000e+01 7.972954e+00
      endloop
   endfacet
   facet normal -5.814476e-02 0.000000e+00 9.983082e-01
      outer loop
         vertex 4.000000e+00 0.000000e+00 8.000000e+00
         vertex 3.535629e+00 1.000000e+01 7.972954e+00
         vertex 3.535629e+00 0.000000e+00 7.972954e+00
      endloop
   endfacet
   facet normal -1.736484e-01 0.000000e+00 9.848077e-01
      outer loop
         vertex 3.535629e+00 0.000000e+00 7.972954e+00
         vertex 3.535629e+00 1.000000e+01 7.972954e+00
         vertex 3.077537e+00 1.000000e+01 7.892180e+00
      endloop
   endfacet
   facet normal -1.736484e-01 0.000000e+00 9.848077e-01
      outer loop
         vertex 3.535629e+00 0.000000e+00 7.972954e+00
         vertex 3.077537e+00 1.000000e+01 7.892180e+00
         vertex 3.077537e+00 0.000000e+00 7.892180e+00
      endloop
   endfacet
   facet normal -2.868035e-01 0.000000e+00 9.579894e-01
      outer loop
         vertex 3.077537e+00 0.000000e+00 7.892180e+00
         vertex 3.077537e+00 1.000000e+01 7.892180e+00
         vertex 2.631920e+00 1.000000e+01 7.758771e+00
      endloop
   endfacet
   facet normal -2.868035e-01 0.000000e+00 9.579894e-01
      outer loop
         vertex 3.077537e+00 0.000000e+00 7.892180e+00
         vertex 2.631920e+00 1.000000e+01 7.758771e+00
         vertex 2.631920e+00 0.000000e+00 7.758771e+00
      endloop
   endfacet
   facet normal -3.960797e-01 0.000000e+00 9.182162e-01
      outer loop
         vertex 2.631920e+00 0.000000e+00 7.758771e+00
         vertex 2.631920e+00 1.000000e+01 7.758771e+00
         vertex 2.204804e+00 1.000000e+01 7.574531e+00
      endloop
   endfacet
   facet normal -3.960797e-01 0.000000e+00 9.182162e-01
      outer loop
         vertex 2.631920e+00 0.000000e+00 7.758771e+00
         vertex 2.204804e+00 1.000000e+01 7.574531e+00
         vertex 2.204804e+00 0.000000e+00 7.574531e+00
      endloop
   endfacet
   facet normal -5.000002e-01 0.000000e+00 8.660253e-01
      outer loop
         vertex 2.204804e+00 0.000000e+00 7.574531e+00
         vertex 2.204804e+00 1.000000e+01 7.574531e+00
         vertex 1.801964e+00 1.000000e+01 7.341951e+00
      endloop
   endfacet
   facet normal -5.000002e-01 0.000000e+00 8.660253e-01
      outer loop
         vertex 2.204804e+00 0.000000e+00 7.574531e+00
         vertex 1.801964e+00 1.000000e+01 7.341951e+00
         vertex 1.801964e+00 0.000000e+00 7.341951e+00
      endloop
   endfacet
   facet normal -5.971585e-01 0.000000e+00 8.021232e-01
      outer loop
         vertex 1.801964e+00 0.000000e+00 7.341951e+00
         vertex 1.801964e+00 1.000000e+01 7.341951e+00
         vertex 1.428850e+00 1.000000e+01 7.064178e+00
      endloop
   endfacet
   facet normal -5.971585e-01 0.000000e+00 8.021232e-01
      outer loop
         vertex 1.801964e+00 0.000000e+00 7.341951e+00
         vertex 1.428850e+00 1.000000e+01 7.064178e+00
         vertex 1.428850e+00 0.000000e+00 7.064178e+00
      endloop
   endfacet
   facet normal -6.862414e-01 0.000000e+00 7.273738e-01
      outer loop
         vertex 1.428850e+00 0.000000e+00 7.064178e+00
         vertex 1.428850e+00 1.000000e+01 7.064178e+00
         vertex 1.090506e+00 1.000000e+01 6.744967e+00
      endloop
   endfacet
   facet normal -6.862414e-01 0.000000e+00 7.273738e-01
      outer loop
         vertex 1.428850e+00 0.000000e+00 7.064178e+00
         vertex 1.090506e+00 1.000000e+01 6.744967e+00
         vertex 1.090506e+00 0.000000e+00 6.744967e+00
      endloop
   endfacet
   facet normal -7.660445e-01 0.000000e+00 6.427875e-01
      outer loop
         vertex 1.090506e+00 0.000000e+00 6.744967e+00
         vertex 1.090506e+00 1.000000e+01 6.744967e+00
         vertex 7.915073e-01 1.000000e+01 6.388634e+00
      endloop
   endfacet
   facet normal -7.660445e-01 0.000000e+00 6.427875e-01
      outer loop
         vertex 1.090506e+00 0.000000e+00 6.744967e+00
         vertex 7.915073e-01 1.000000e+01 6.388634e+00
         vertex 7.915073e-01 0.000000e+00 6.388634e+00
      endloop
   endfacet
   facet normal -8.354878e-01 0.000000e+00 5.495090e-01
      outer loop
         vertex 7.915073e-01 0.000000e+00 6.388634e+00
         vertex 7.915073e-01 1.000000e+01 6.388634e+00
         vertex 5.358986e-01 1.000000e+01 6.000000e+00
      endloop
   endfacet
   facet normal -8.354878e-01 0.000000e+00 5.495090e-01
      outer loop
         vertex 7.915073e-01 0.000000e+00 6.388634e+00
         vertex 5.358986e-01 1.000000e+01 6.000000e+00
         vertex 5.358986e-01 0.000000e+00 6.000000e+00
      endloop
   endfacet
   facet normal -8.936326e-01 0.000000e+00 4.487993e-01
      outer loop
         vertex 5.358986e-01 0.000000e+00 6.000000e+00
         vertex 5.358986e-01 1.000000e+01 6.000000e+00
         vertex 3.271357e-01 1.000000e+01 5.584319e+00
      endloop
   endfacet
   facet normal -8.936326e-01 0.000000e+00 4.487993e-01
      outer loop
         vertex 5.358986e-01 0.000000e+00 6.000000e+00
         vertex 3.271357e-01 1.000000e+01 5.584319e+00
         vertex 3.271357e-01 0.000000e+00 5.584319e+00
      endloop
   endfacet
   facet normal -9.396926e-01 0.000000e+00 3.420202e-01
      outer loop
         vertex 3.271357e-01 0.000000e+00 5.584319e+00
         vertex 3.271357e-01 1.000000e+01 5.584319e+00
         vertex 1.680420e-01 1.000000e+01 5.147213e+00
      endloop
   endfacet
   facet normal -9.396926e-01 0.000000e+00 3.420202e-01
      outer loop
         vertex 3.271357e-01 0.000000e+00 5.584319e+00
         vertex 1.680420e-01 1.000000e+01 5.147213e+00
         vertex 1.680420e-01 0.000000e+00 5.147213e+00
      endloop
   endfacet
   facet normal -9.730450e-01 0.000000e+00 2.306155e-01
      outer loop
         vertex 1.680420e-01 0.000000e+00 5.147213e+00
         vertex 1.680420e-01 1.000000e+01 5.147213e+00
         vertex 6.076926e-02 1.000000e+01 4.694593e+00
      endloop
   endfacet
   facet normal -9.730450e-01 0.000000e+00 2.306155e-01
      outer loop
         vertex 1.680420e-01 0.000000e+00 5.147213e+00
         vertex 6.076926e-02 1.000000e+01 4.694593e+00
         vertex 6.076926e-02 0.000000e+00 4.694593e+00
      endloop
   endfacet
   facet normal -9.932383e-01 0.000000e+00 1.160933e-01
      outer loop
         vertex 6.076926e-02 0.000000e+00 4.694593e+00
         vertex 6.076926e-02 1.000000e+01 4.694593e+00
         vertex 6.767455e-03 1.000000e+01 4.232580e+00
      endloop
   endfacet
   facet normal -9.932383e-01 0.000000e+00 1.160933e-01
      outer loop
         vertex 6.076926e-02 0.000000e+00 4.694593e+00
         vertex 6.767455e-03 1.000000e+01 4.232580e+00
         vertex 6.767455e-03 0.000000e+00 4.232580e+00
      endloop
   endfacet
   facet normal -1.000000e+00 0.000000e+00 0.000000e+00
      outer loop
         vertex 6.767455e-03 0.000000e+00 4.232580e+00
         vertex 6.767455e-03 1.000000e+01 4.232580e+00
         vertex 6.767455e-03 1.000000e+01 3.767421e+00
      endloop
   endfacet
   facet normal -1.000000e+00 0.000000e+00 0.000000e+00
      outer loop
         vertex 6.767455e-03 0.000000e+00 4.232580e+00
         vertex 6.767455e-03 1.000000e+01 3.767421e+00
         vertex 6.767455e-03 0.000000e+00 3.767421e+00
      endloop
   endfacet
   facet normal -9.932383e-01 0.000000e+00 -1.160933e-01
      outer loop
         vertex 6.767455e-03 0.000000e+00 3.767421e+00
         vertex 6.767455e-03 1.000000e+01 3.767421e+00
         vertex 6.076926e-02 1.000000e+01 3.305407e+00
      endloop
   endfacet
   facet normal -9.932383e-01 0.000000e+00 -1.160933e-01
      outer loop
         vertex 6.767455e-03 0.000000e+00 3.767421e+00
         vertex 6.076926e-02 1.000000e+01 3.305407e+00
         vertex 6.076926e-02 0.000000e+00 3.305407e+00
      endloop
   endfacet
   facet normal -9.730450e-01 0.000000e+00 -2.306155e-01
      outer loop
         vertex 6.076926e-02 0.000000e+00 3.305407e+00
         vertex 6.076926e-02 1.000000e+01 3.305407e+00
         vertex 1.680420e-01 1.000000e+01 2.852787e+00
      endloop
   endfacet
   facet normal -9.730450e-01 0.000000e+00 -2.306155e-01
      outer loop
         vertex 6.076926e-02 0.000000e+00 3.305407e+00
         vertex 1.680420e-01 1.000000e+01 2.852787e+00
         vertex 1.680420e-01 0.000000e+00 2.852787e+00
      endloop
   endfacet
   facet normal -9.396926e-01 0.000000e+00 -3.420202e-01
      outer loop
         vertex 1.680420e-01 0.000000e+00 2.852787e+00
         vertex 1.680420e-01 1.000000e+01 2.852787e+00
         vertex 3.271357e-01 1.000000e+01 2.415681e+00
      endloop
   endfacet
   facet normal -9.396926e-01 0.000000e+00 -3.420202e-01
      outer loop
         vertex 1.680420e-01 0.000000e+00 2.852787e+00
         vertex 3.271357e-01 1.000000e+01 2.415681e+00
         vertex 3.271357e-01 0.000000e+00 2.415681e+00
      endloop
   endfacet
   facet normal -8.936326e-01 0.000000e+00 -4.487993e-01
      outer loop
         vertex 3.271357e-01 0.000000e+00 2.415681e+00
         vertex 3.271357e-01 1.000000e+01 2.415681e+00
         vertex 5.358986e-01 1.000000e+01 2.000000e+00
      endloop
   endfacet
   facet normal -8.936326e-01 0.000000e+00 -4.487993e-01
      outer loop
         vertex 3.271357e-01 0.000000e+00 2.415681e+00
         vertex 5.358986e-01 1.000000e+01 2.000000e+00
         vertex 5.358986e-01 0.000000e+00 2.000000e+00
      endloop
   endfacet
   facet normal -8.354878e-01 0.000000e+00 -5.495090e-01
      outer loop
         vertex 5.358986e-01 0.000000e+00 2.000000e+00
         vertex 5.358986e-01 1.000000e+01 2.000000e+00
         vertex 7.915073e-01 1.000000e+01 1.611366e+00
      endloop
   endfacet
   facet normal -8.354878e-01 0.000000e+00 -5.495090e-01
      outer loop
         vertex 5.358986e-01 0.000000e+00 2.000000e+00
         vertex 7.915073e-01 1.000000e+01 1.611366e+00
         vertex 7.915073e-01 0.000000e+00 1.611366e+00
      endloop
   endfacet
   facet normal -7.660445e-01 0.000000e+00 -6.427875e-01
      outer loop
         vertex 7.915073e-01 0.000000e+00 1.611366e+00
         vertex 7.915073e-01 1.000000e+01 1.611366e+00
         vertex 1.090506e+00 1.000000e+01 1.255034e+00
      endloop
   endfacet
   facet normal -7.660445e-01 0.000000e+00 -6.427875e-01
      outer loop
         vertex 7.915073e-01 0.000000e+00 1.611366e+00
         vertex 1.090506e+00 1.000000e+01 1.255034e+00
         vertex 1.090506e+00 0.000000e+00 1.255034e+00
      endloop
   endfacet
   facet normal -6.862414e-01 0.000000e+00 -7.273738e-01
      outer loop
         vertex 1.090506e+00 0.000000e+00 1.255034e+00
         vertex 1.090506e+00 1.000000e+01 1.255034e+00
         vertex 1.428850e+00 1.000000e+01 9.358225e-01
      endloop
   endfacet
   facet normal -6.862414e-01 0.000000e+00 -7.273738e-01
      outer loop
         vertex 1.090506e+00 0.000000e+00 1.255034e+00
         vertex 1.428850e+00 1.000000e+01 9.358225e-01
         vertex 1.428850e+00 0.000000e+00 9.358225e-01
      endloop
   endfacet
   facet normal -5.971585e-01 0.000000e+00 -8.021232e-01
      outer loop
         vertex 1.428850e+00 0.000000e+00 9.358225e-01
         vertex 1.428850e+00 1.000000e+01 9.358225e-01
         vertex 1.801964e+00 1.000000e+01 6.580490e-01
      endloop
   endfacet
   facet normal -5.971585e-01 0.000000e+00 -8.021232e-01
      outer loop
         vertex 1.428850e+00 0.000000e+00 9.358225e-01
         vertex 1.801964e+00 1.000000e+01 6.580490e-01
         vertex 1.801964e+00 0.000000e+00 6.580490e-01
      endloop
   endfacet
   facet normal -5.000002e-01 0.000000e+00 -8.660253e-01
      outer loop
         vertex 1.801964e+00 0.000000e+00 6.580490e-01
         vertex 1.801964e+00 1.000000e+01 6.580490e-01
         vertex 2.204804e+00 1.000000e+01 4.254696e-01
      endloop
   endfacet
   facet normal -5.000002e-01 0.000000e+00 -8.660253e-01
      outer loop
         vertex 1.801964e+00 0.000000e+00 6.580490e-01
         vertex 2.204804e+00 1.000000e+01 4.254696e-01
         vertex 2.204804e+00 0.000000e+00 4.254696e-01
      endloop
   endfacet
   facet normal -3.960797e-01 0.000000e+00 -9.182162e-01
      outer loop
         vertex 2.204804e+00 0.000000e+00 4.254696e-01
         vertex 2.204804e+00 1.000000e+01 4.254696e-01
         vertex 2.631920e+00 1.000000e+01 2.412298e-01
      endloop
   endfacet
   facet normal -3.960797e-01 0.000000e+00 -9.182162e-01
      outer loop
         vertex 2.204804e+00 0.000000e+00 4.254696e-01
         vertex 2.631920e+00 1.000000e+01 2.412298e-01
         vertex 2.631920e+00 0.000000e+00 2.412298e-01
      endloop
   endfacet
   facet normal -2.868035e-01 0.000000e+00 -9.579894e-01
      outer loop
         vertex 2.631920e+00 0.000000e+00 2.412298e-01
         vertex 2.631920e+00 1.000000e+01 2.412298e-01
         vertex 3.077537e+00 1.000000e+01 1.078206e-01
      endloop
   endfacet
   facet normal -2.868035e-01 0.000000e+00 -9.579894e-01
      outer loop
         vertex 2.631920e+00 0.000000e+00 2.412298e-01
         vertex 3.077537e+00 1.000000e+01 1.078206e-01
         vertex 3.077537e+00 0.000000e+00 1.078206e-01
      endloop
   endfacet
   facet normal -1.736484e-01 0.000000e+00 -9.848077e-01
      outer loop
         vertex 3.077537e+00 0.000000e+00 1.078206e-01
         vertex 3.077537e+00 1.000000e+01 1.078206e-01
         vertex 3.535629e+00 1.000000e+01 2.704654e-02
      endloop
   endfacet
   facet normal -1.736484e-01 0.000000e+00 -9.848077e-01
      outer loop
         vertex 3.077537e+00 0.000000e+00 1.078206e-01
         vertex 3.535629e+00 1.000000e+01 2.704654e-02
         vertex 3.535629e+00 0.000000e+00 2.704654e-02
      endloop
   endfacet
   facet normal -5.814476e-02 0.000000e+00 -9.983082e-01
      outer loop
         vertex 3.535629e+00 0.000000e+00 2.704654e-02
         vertex 3.535629e+00 1.000000e+01 2.704654e-02
         vertex 4.000000e+00 1.000000e+01 0.000000e+00
      endloop
   endfacet
   facet normal -5.814476e-02 0.000000e+00 -9.983082e-01
      outer loop
         vertex 3.535629e+00 0.000000e+00 2.704654e-02
         vertex 4.000000e+00 1.000000e+01 0.000000e+00
         vertex 4.000000e+00 0.000000e+00 0.000000e+00
      endloop
   endfacet
   facet normal 5.814476e-02 0.000000e+00 -9.983082e-01
      outer loop
         vertex 4.000000e+00 0.000000e+00 0.000000e+00
         vertex 4.000000e+00 1.000000e+01 0.000000e+00
         vertex 4.464372e+00 1.000000e+01 2.704654e-02
      endloop
   endfacet
   facet normal -0.000000e+00 1.000000e+00 0.000000e+00
      outer loop
         vertex 3.077537e+00 1.000000e+01 7.892180e+00
         vertex 3.535629e+00 1.000000e+01 7.972954e+00
         vertex 4.000000e+00 1.000000e+01 4.000000e+00
      endloop
   endfacet
   facet normal 0.000000e+00 1.000000e+00 -0.000000e+00
      outer loop
         vertex 4.000000e+00 1.000000e+01 4.000000e+00
         vertex 3.535629e+00 1.000000e+01 7.972954e+00
         vertex 4.000000e+00 1.000000e+01 8.000000e+00
      endloop
   endfacet
   facet normal 0.000000e+00 1.000000e+00 0.000000e+00
      outer loop
         vertex 4.000000e+00 1.000000e+01 4.000000e+00
         vertex 4.000000e+00 1.000000e+01 8.000000e+00
         vertex 4.464372e+00 1.000000e+01 7.972954e+00
      endloop
   endfacet
   facet normal -0.000000e+00 1.000000e+00 0.000000e+00
      outer loop
         vertex 1.801964e+00 1.000000e+01 7.341951e+00
         vertex 2.204804e+00 1.000000e+01 7.574531e+00
         vertex 4.000000e+00 1.000000e+01 4.000000e+00
      endloop
   endfacet
   facet normal 0.000000e+00 1.000000e+00 0.000000e+00
      outer loop
         vertex 4.000000e+00 1.000000e+01 4.000000e+00
         vertex 2.204804e+00 1.000000e+01 7.574531e+00
         vertex 2.631920e+00 1.000000e+01 7.758771e+00
      endloop
   endfacet
   facet normal 0.000000e+00 1.000000e+00 0.000000e+00
      outer loop
         vertex 4.000000e+00 1.000000e+01 4.000000e+00
         vertex 2.631920e+00 1.000000e+01 7.758771e+00
         vertex 3.077537e+00 1.000000e+01 7.892180e+00
      endloop
   endfacet
   facet normal -0.000000e+00 1.000000e+00 0.000000e+00
      outer loop
         vertex 7.915073e-01 1.000000e+01 6.388634e+00
         vertex 1.090506e+00 1.000000e+01 6.744967e+00
         vertex 4.000000e+00 1.000000e+01 4.000000e+00
      endloop
   endfacet
   facet normal 0.000000e+00 1.000000e+00 0.000000e+00
      outer loop
         vertex 4.000000e+00 1.000000e+01 4.000000e+00
         vertex 1.090506e+00 1.000000e+01 6.744967e+00
         vertex 1.428850e+00 1.000000e+01 7.064178e+00
      endloop
   endfacet
   facet normal 0.000000e+00 1.000000e+00 0.000000e+00
      outer loop
         vertex 4.000000e+00 1.000000e+01 4.000000e+00
         vertex 1.428850e+00 1.000000e+01 7.064178e+00
         vertex 1.801964e+00 1.000000e+01 7.341951e+00
      endloop
   endfacet
   facet normal -0.000000e+00 1.000000e+00 0.000000e+00
      outer loop
         vertex 1.680420e-01 1.000000e+01 5.147213e+00
         vertex 3.271357e-01 1.000000e+01 5.584319e+00
         vertex 4.000000e+00 1.000000e+01 4.000000e+00
      endloop
   endfacet
   facet normal 0.000000e+00 1.000000e+00 0.000000e+00
      outer loop
         vertex 4.000000e+00 1.000000e+01 4.000000e+00
         vertex 3.271357e-01 1.000000e+01 5.584319e+00
         vertex 5.358986e-01 1.000000e+01 6.000000e+00
      endloop
   endfacet
   facet normal 0.000000e+00 1.000000e+00 0.000000e+00
      outer loop
         vertex 4.000000e+00 1.000000e+01 4.000000e+00
         vertex 5.358986e-01 1.000000e+01 6.000000e+00
         vertex 7.915073e-01 1.000000e+01 6.388634e+00
      endloop
   endfacet
   facet normal 0.000000e+00 1.000000e+00 0.000000e+00
      outer loop
         vertex 6.767455e-03 1.000000e+01 3.767421e+00
         vertex 6.767455e-03 1.000000e+01 4.232580e+00
         vertex 4.000000e+00 1.000000e+01 4.000000e+00
      endloop
   endfacet
   facet normal 0.000000e+00 1.000000e+00 0.000000e+00
      outer loop
         vertex 4.000000e+00 1.000000e+01 4.000000e+00
         vertex 6.767455e-03 1.000000e+01 4.232580e+00
         vertex 6.076926e-02 1.000000e+01 4.694593e+00
      endloop
   endfacet
   facet normal 0.000000e+00 1.000000e+00 0.000000e+00
      outer loop
         vertex 4.000000e+00 1.000000e+01 4.000000e+00
         vertex 6.076926e-02 1.000000e+01 4.694593e+00
         vertex 1.680420e-01 1.000000e+01 5.147213e+00
      endloop
   endfacet
   facet normal 0.000000e+00 1.000000e+00 -0.000000e+00
      outer loop
         vertex 3.271357e-01 1.000000e+01 2.415681e+00
         vertex 1.680420e-01 1.000000e+01 2.852787e+00
         vertex 4.000000e+00 1.000000e+01 4.000000e+00
      endloop
   endfacet
   facet normal 0.000000e+00 1.000000e+00 0.000000e+00
      outer loop
         vertex 4.000000e+00 1.000000e+01 4.000000e+00
         vertex 1.680420e-01 1.000000e+01 2.852787e+00
         vertex 6.076926e-02 1.000000e+01 3.305407e+00
      endloop
   endfacet
   facet normal 0.000000e+00 1.000000e+00 0.000000e+00
      outer loop
         vertex 4.000000e+00 1.000000e+01 4.000000e+00
         vertex 6.076926e-02 1.000000e+01 3.305407e+00
         vertex 6.767455e-03 1.000000e+01 3.767421e+00
      endloop
   endfacet
   facet normal 0.000000e+00 1.000000e+00 -0.000000e+00
      outer loop
         vertex 1.090506e+00 1.000000e+01 1.255034e+00
         vertex 7.915073e-01 1.000000e+01 1.611366e+00
         vertex 4.000000e+00 1.000000e+01 4.000000e+00
      endloop
   endfacet
   facet normal 0.000000e+00 1.000000e+00 0.000000e+00
      outer loop
         vertex 4.000000e+00 1.000000e+01 4.000000e+00
         vertex 7.915073e-01 1.000000e+01 1.611366e+00
         vertex 5.358986e-01 1.000000e+01 2.000000e+00
      endloop
   endfacet
   facet normal 0.000000e+00 1.000000e+00 0.000000e+00
      outer loop
         vertex 4.000000e+00 1.000000e+01 4.000000e+00
         vertex 5.358986e-01 1.000000e+01 2.000000e+00
         vertex 3.271357e-01 1.000000e+01 2.415681e+00
      endloop
   endfacet
   facet normal 0.000000e+00 1.000000e+00 -0.000000e+00
      outer loop
         vertex 2.204804e+00 1.000000e+01 4.254696e-01
         vertex 1.801964e+00 1.000000e+01 6.580490e-01
         vertex 4.000000e+00 1.000000e+01 4.000000e+00
      endloop
   endfacet
   facet normal 0.000000e+00 1.000000e+00 0.000000e+00
      outer loop
         vertex 4.000000e+00 1.000000e+01 4.000000e+00
         vertex 1.801964e+00 1.000000e+01 6.580490e-01
         vertex 1.428850e+00 1.000000e+01 9.358225e-01
      endloop
   endfacet
   facet normal 0.000000e+00 1.000000e+00 0.000000e+00
      outer loop
         vertex 4.000000e+00 1.000000e+01 4.000000e+00
         vertex 1.428850e+00 1.000000e+01 9.358225e-01
         vertex 1.090506e+00 1.000000e+01 1.255034e+00
      endloop
   endfacet
   facet normal 0.000000e+00 1.000000e+00 -0.000000e+00
      outer loop
         vertex 3.535629e+00 1.000000e+01 2.704654e-02
         vertex 3.077537e+00 1.000000e+01 1.078206e-01
         vertex 4.000000e+00 1.000000e+01 4.000000e+00
      endloop
   endfacet
   facet normal 0.000000e+00 1.000000e+00 0.000000e+00
      outer loop
         vertex 4.000000e+00 1.000000e+01 4.000000e+00
         vertex 3.077537e+00 1.000000e+01 1.078206e-01
         vertex 2.631920e+00 1.000000e+01 2.412298e-01
      endloop
   endfacet
   facet normal 0.000000e+00 1.000000e+00 0.000000e+00
      outer loop
         vertex 4.000000e+00 1.000000e+01 4.000000e+00
         vertex 2.631920e+00 1.000000e+01 2.412298e-01
         vertex 2.204804e+00 1.000000e+01 4.254696e-01
      endloop
   endfacet
   facet normal 0.000000e+00 1.000000e+00 0.000000e+00
      outer loop
         vertex 4.922464e+00 1.000000e+01 1.078206e-01
         vertex 4.464372e+00 1.000000e+01 2.704654e-02
         vertex 4.000000e+00 1.000000e+01 4.000000e+00
      endloop
   endfacet
   facet normal 0.000000e+00 1.000000e+00 0.000000e+00
      outer loop
         vertex 4.000000e+00 1.000000e+01 4.000000e+00
         vertex 4.464372e+00 1.000000e+01 2.704654e-02
         vertex 4.000000e+00 1.000000e+01 0.000000e+00
      endloop
   endfacet
   facet normal 0.000000e+00 1.000000e+00 0.000000e+00
      outer loop
         vertex 4.000000e+00 1.000000e+01 4.000000e+00
         vertex 4.000000e+00 1.000000e+01 0.000000e+00
         vertex 3.535629e+00 1.000000e+01 2.704654e-02
      endloop
   endfacet
   facet normal 0.000000e+00 1.000000e+00 0.000000e+00
      outer loop
         vertex 6.198036e+00 1.000000e+01 6.580490e-01
         vertex 5.795197e+00 1.000000e+01 4.254696e-01
         vertex 4.000000e+00 1.000000e+01 4.000000e+00
      endloop
   endfacet
   facet normal 0.000000e+00 1.000000e+00 0.000000e+00
      outer loop
         vertex 4.000000e+00 1.000000e+01 4.000000e+00
         vertex 5.795197e+00 1.000000e+01 4.254696e-01
         vertex 5.368081e+00 1.000000e+01 2.412298e-01
      endloop
   endfacet
   facet normal 0.000000e+00 1.000000e+00 0.000000e+00
      outer loop
         vertex 4.000000e+00 1.000000e+01 4.000000e+00
         vertex 5.368081e+00 1.000000e+01 2.412298e-01
         vertex 4.922464e+00 1.000000e+01 1.078206e-01
      endloop
   endfacet
   facet normal 0.000000e+00 1.000000e+00 0.000000e+00
      outer loop
         vertex 7.208493e+00 1.000000e+01 1.611366e+00
         vertex 6.909495e+00 1.000000e+01 1.255034e+00
         vertex 4.000000e+00 1.000000e+01 4.000000e+00
      endloop
   endfacet
   facet normal 0.000000e+00 1.000000e+00 0.000000e+00
      outer loop
         vertex 4.000000e+00 1.000000e+01 4.000000e+00
         vertex 6.909495e+00 1.000000e+01 1.255034e+00
         vertex 6.571151e+00 1.000000e+01 9.358225e-01
      endloop
   endfacet
   facet normal 0.000000e+00 1.000000e+00 0.000000e+00
      outer loop
         vertex 4.000000e+00 1.000000e+01 4.000000e+00
         vertex 6.571151e+00 1.000000e+01 9.358225e-01
         vertex 6.198036e+00 1.000000e+01 6.580490e-01
      endloop
   endfacet
   facet normal 0.000000e+00 1.000000e+00 0.000000e+00
      outer loop
         vertex 7.831958e+00 1.000000e+01 2.852787e+00
         vertex 7.672865e+00 1.000000e+01 2.415681e+00
         vertex 4.000000e+00 1.000000e+01 4.000000e+00
      endloop
   endfacet
   facet normal 0.000000e+00 1.000000e+00 0.000000e+00
      outer loop
         vertex 4.000000e+00 1.000000e+01 4.000000e+00
         vertex 7.672865e+00 1.000000e+01 2.415681e+00
         vertex 7.464102e+00 1.000000e+01 2.000000e+00
      endloop
   endfacet
   facet normal 0.000000e+00 1.000000e+00 0.000000e+00
      outer loop
         vertex 4.000000e+00 1.000000e+01 4.000000e+00
         vertex 7.464102e+00 1.000000e+01 2.000000e+00
         vertex 7.208493e+00 1.000000e+01 1.611366e+00
      endloop
   endfacet
   facet normal 0.000000e+00 1.000000e+00 0.000000e+00
      outer loop
         vertex 7.993233e+00 1.000000e+01 4.232580e+00
         vertex 7.993233e+00 1.000000e+01 3.767421e+00
         vertex 4.000000e+00 1.000000e+01 4.000000e+00
      endloop
   endfacet
   facet normal 0.000000e+00 1.000000e+00 0.000000e+00
      outer loop
         vertex 4.000000e+00 1.000000e+01 4.000000e+00
         vertex 7.993233e+00 1.000000e+01 3.767421e+00
         vertex 7.939231e+00 1.000000e+01 3.305407e+00
      endloop
   endfacet
   facet normal 0.000000e+00 1.000000e+00 0.000000e+00
      outer loop
         vertex 4.000000e+00 1.000000e+01 4.000000e+00
         vertex 7.939231e+00 1.000000e+01 3.305407e+00
         vertex 7.831958e+00 1.000000e+01 2.852787e+00
      endloop
   endfacet
   facet normal 0.000000e+00 1.000000e+00 0.000000e+00
      outer loop
         vertex 7.672865e+00 1.000000e+01 5.584319e+00
         vertex 7.831958e+00 1.000000e+01 5.147213e+00
         vertex 4.000000e+00 1.000000e+01 4.000000e+00
      endloop
   endfacet
   facet normal 0.000000e+00 1.000000e+00 0.000000e+00
      outer loop
         vertex 4.000000e+00 1.000000e+01 4.000000e+00
         vertex 7.831958e+00 1.000000e+01 5.147213e+00
         vertex 7.939231e+00 1.000000e+01 4.694593e+00
      endloop
   endfacet
   facet normal 0.000000e+00 1.000000e+00 0.000000e+00
      outer loop
         vertex 4.000000e+00 1.000000e+01 4.000000e+00
         vertex 7.939231e+00 1.000000e+01 4.694593e+00
         vertex 7.993233e+00 1.000000e+01 4.232580e+00
      endloop
   endfacet
   facet normal 0.000000e+00 1.000000e+00 0.000000e+00
      outer loop
         vertex 6.909495e+00 1.000000e+01 6.744967e+00
         vertex 7.208493e+00 1.000000e+01 6.388634e+00
         vertex 4.000000e+00 1.000000e+01 4.000000e+00
      endloop
   endfacet
   facet normal 0.000000e+00 1.000000e+00 0.000000e+00
      outer loop
         vertex 4.000000e+00 1.000000e+01 4.000000e+00
         vertex 7.208493e+00 1.000000e+01 6.388634e+00
         vertex 7.464102e+00 1.000000e+01 6.000000e+00
      endloop
   endfacet
   facet normal 0.000000e+00 1.000000e+00 0.000000e+00
      outer loop
         vertex 4.000000e+00 1.000000e+01 4.000000e+00
         vertex 7.464102e+00 1.000000e+01 6.000000e+00
         vertex 7.672865e+00 1.000000e+01 5.584319e+00
      endloop
   endfacet
   facet normal 0.000000e+00 1.000000e+00 0.000000e+00
      outer loop
         vertex 5.795197e+00 1.000000e+01 7.574531e+00
         vertex 6.198036e+00 1.000000e+01 7.341951e+00
         vertex 4.000000e+00 1.000000e+01 4.000000e+00
      endloop
   endfacet
   facet normal 0.000000e+00 1.000000e+00 0.000000e+00
      outer loop
         vertex 4.000000e+00 1.000000e+01 4.000000e+00
         vertex 6.198036e+00 1.000000e+01 7.341951e+00
         vertex 6.571151e+00 1.000000e+01 7.064178e+00
      endloop
   endfacet
   facet normal 0.000000e+00 1.000000e+00 0.000000e+00
      outer loop
         vertex 4.000000e+00 1.000000e+01 4.000000e+00
         vertex 6.571151e+00 1.000000e+01 7.064178e+00
         vertex 6.909495e+00 1.000000e+01 6.744967e+00
      endloop
   endfacet
   facet normal 0.000000e+00 1.000000e+00 0.000000e+00
      outer loop
         vertex 4.464372e+00 1.000000e+01 7.972954e+00
         vertex 4.922464e+00 1.000000e+01 7.892180e+00
         vertex 4.000000e+00 1.000000e+01 4.000000e+00
      endloop
   endfacet
   facet normal 0.000000e+00 1.000000e+00 0.000000e+00
      outer loop
         vertex 4.000000e+00 1.000000e+01 4.000000e+00
         vertex 4.922464e+00 1.000000e+01 7.892180e+00
         vertex 5.368081e+00 1.000000e+01 7.758771e+00
      endloop
   endfacet
   facet normal 0.000000e+00 1.000000e+00 0.000000e+00
      outer loop
         vertex 4.000000e+00 1.000000e+01 4.000000e+00
         vertex 5.368081e+00 1.000000e+01 7.758771e+00
         vertex 5.795197e+00 1.000000e+01 7.574531e+00
      endloop
   endfacet
   facet normal -0.000000e+00 -1.000000e+00 0.000000e+00
      outer loop
         vertex 4.922464e+00 0.000000e+00 7.892180e+00
         vertex 4.464372e+00 0.000000e+00 7.972954e+00
         vertex 4.000000e+00 0.000000e+00 4.000000e+00
      endloop
   endfacet
   facet normal 0.000000e+00 -1.000000e+00 0.000000e+00
      outer loop
         vertex 4.000000e+00 0.000000e+00 4.000000e+00
         vertex 4.464372e+00 0.000000e+00 7.972954e+00
         vertex 4.000000e+00 0.000000e+00 8.000000e+00
      endloop
   endfacet
   facet normal 0.000000e+00 -1.000000e+00 0.000000e+00
      outer loop
         vertex 4.000000e+00 0.000000e+00 4.000000e+00
         vertex 4.000000e+00 0.000000e+00 8.000000e+00
         vertex 3.535629e+00 0.000000e+00 7.972954e+00
      endloop
   endfacet
   facet normal -0.000000e+00 -1.000000e+00 0.000000e+00
      outer loop
         vertex 6.198036e+00 0.000000e+00 7.341951e+00
         vertex 5.795197e+00 0.000000e+00 7.574531e+00
         vertex 4.000000e+00 0.000000e+00 4.000000e+00
      endloop
   endfacet
   facet normal 0.000000e+00 -1.000000e+00 0.000000e+00
      outer loop
         vertex 4.000000e+00 0.000000e+00 4.000000e+00
         vertex 5.795197e+00 0.000000e+00 7.574531e+00
         vertex 5.368081e+00 0.000000e+00 7.758771e+00
      endloop
   endfacet
   facet normal 0.000000e+00 -1.000000e+00 0.000000e+00
      outer loop
         vertex 4.000000e+00 0.000000e+00 4.000000e+00
         vertex 5.368081e+00 0.000000e+00 7.758771e+00
         vertex 4.922464e+00 0.000000e+00 7.892180e+00
      endloop
   endfacet
   facet normal -0.000000e+00 -1.000000e+00 0.000000e+00
      outer loop
         vertex 7.208493e+00 0.000000e+00 6.388634e+00
         vertex 6.909495e+00 0.000000e+00 6.744967e+00
         vertex 4.000000e+00 0.000000e+00 4.000000e+00
      endloop
   endfacet
   facet normal 0.000000e+00 -1.000000e+00 0.000000e+00
      outer loop
         vertex 4.000000e+00 0.000000e+00 4.000000e+00
         vertex 6.909495e+00 0.000000e+00 6.744967e+00
         vertex 6.571151e+00 0.000000e+00 7.064178e+00
      endloop
   endfacet
   facet normal 0.000000e+00 -1.000000e+00 0.000000e+00
      outer loop
         vertex 4.000000e+00 0.000000e+00 4.000000e+00
         vertex 6.571151e+00 0.000000e+00 7.064178e+00
         vertex 6.198036e+00 0.000000e+00 7.341951e+00
      endloop
   endfacet
   facet normal -0.000000e+00 -1.000000e+00 0.000000e+00
      outer loop
         vertex 7.831958e+00 0.000000e+00 5.147213e+00
         vertex 7.672865e+00 0.000000e+00 5.584319e+00
         vertex 4.000000e+00 0.000000e+00 4.000000e+00
      endloop
   endfacet
   facet normal 0.000000e+00 -1.000000e+00 0.000000e+00
      outer loop
         vertex 4.000000e+00 0.000000e+00 4.000000e+00
         vertex 7.672865e+00 0.000000e+00 5.584319e+00
         vertex 7.464102e+00 0.000000e+00 6.000000e+00
      endloop
   endfacet
   facet normal 0.000000e+00 -1.000000e+00 0.000000e+00
      outer loop
         vertex 4.000000e+00 0.000000e+00 4.000000e+00
         vertex 7.464102e+00 0.000000e+00 6.000000e+00
         vertex 7.208493e+00 0.000000e+00 6.388634e+00
      endloop
   endfacet
   facet normal 0.000000e+00 -1.000000e+00 0.000000e+00
      outer loop
         vertex 7.993233e+00 0.000000e+00 3.767421e+00
         vertex 7.993233e+00 0.000000e+00 4.232580e+00
         vertex 4.000000e+00 0.000000e+00 4.000000e+00
      endloop
   endfacet
   facet normal 0.000000e+00 -1.000000e+00 0.000000e+00
      outer loop
         vertex 4.000000e+00 0.000000e+00 4.000000e+00
         vertex 7.993233e+00 0.000000e+00 4.232580e+00
         vertex 7.939231e+00 0.000000e+00 4.694593e+00
      endloop
   endfacet
   facet normal 0.000000e+00 -1.000000e+00 0.000000e+00
      outer loop
         vertex 4.000000e+00 0.000000e+00 4.000000e+00
         vertex 7.939231e+00 0.000000e+00 4.694593e+00
         vertex 7.831958e+00 0.000000e+00 5.147213e+00
      endloop
   endfacet
   facet normal 0.000000e+00 -1.000000e+00 0.000000e+00
      outer loop
         vertex 7.672865e+00 0.000000e+00 2.415681e+00
         vertex 7.831958e+00 0.000000e+00 2.852787e+00
         vertex 4.000000e+00 0.000000e+00 4.000000e+00
      endloop
   endfacet
   facet normal 0.000000e+00 -1.000000e+00 0.000000e+00
      outer loop
         vertex 4.000000e+00 0.000000e+00 4.000000e+00
         vertex 7.831958e+00 0.000000e+00 2.852787e+00
         vertex 7.939231e+00 0.000000e+00 3.305407e+00
      endloop
   endfacet
   facet normal 0.000000e+00 -1.000000e+00 0.000000e+00
      outer loop
         vertex 4.000000e+00 0.000000e+00 4.000000e+00
         vertex 7.939231e+00 0.000000e+00 3.305407e+00
         vertex 7.993233e+00 0.000000e+00 3.767421e+00
      endloop
   endfacet
   facet normal 0.000000e+00 -1.000000e+00 0.000000e+00
      outer loop
         vertex 6.909495e+00 0.000000e+00 1.255034e+00
         vertex 7.208493e+00 0.000000e+00 1.611366e+00
         vertex 4.000000e+00 0.000000e+00 4.000000e+00
      endloop
   endfacet
   facet normal 0.000000e+00 -1.000000e+00 0.000000e+00
      outer loop
         vertex 4.000000e+00 0.000000e+00 4.000000e+00
         vertex 7.208493e+00 0.000000e+00 1.611366e+00
         vertex 7.464102e+00 0.000000e+00 2.000000e+00
      endloop
   endfacet
   facet normal 0.000000e+00 -1.000000e+00 0.000000e+00
      outer loop
         vertex 4.000000e+00 0.000000e+00 4.000000e+00
         vertex 7.464102e+00 0.000000e+00 2.000000e+00
         vertex 7.672865e+00 0.000000e+00 2.415681e+00
      endloop
   endfacet
   facet normal 0.000000e+00 -1.000000e+00 0.000000e+00
      outer loop
         vertex 5.795197e+00 0.000000e+00 4.254696e-01
         vertex 6.198036e+00 0.000000e+00 6.580490e-01
         vertex 4.000000e+00 0.000000e+00 4.000000e+00
      endloop
   endfacet
   facet normal 0.000000e+00 -1.000000e+00 0.000000e+00
      outer loop
         vertex 4.000000e+00 0.000000e+00 4.000000e+00
         vertex 6.198036e+00 0.000000e+00 6.580490e-01
         vertex 6.571151e+00 0.000000e+00 9.358225e-01
      endloop
   endfacet
   facet normal 0.000000e+00 -1.000000e+00 0.000000e+00
      outer loop
         vertex 4.000000e+00 0.000000e+00 4.000000e+00
         vertex 6.571151e+00 0.000000e+00 9.358225e-01
         vertex 6.909495e+00 0.000000e+00 1.255034e+00
      endloop
   endfacet
   facet normal 0.000000e+00 -1.000000e+00 0.000000e+00
      outer loop
         vertex 4.464372e+00 0.000000e+00 2.704654e-02
         vertex 4.922464e+00 0.000000e+00 1.078206e-01
         vertex 4.000000e+00 0.000000e+00 4.000000e+00
      endloop
   endfacet
   facet normal 0.000000e+00 -1.000000e+00 0.000000e+00
      outer loop
         vertex 4.000000e+00 0.000000e+00 4.000000e+00
         vertex 4.922464e+00 0.000000e+00 1.078206e-01
         vertex 5.368081e+00 0.000000e+00 2.412298e-01
      endloop
   endfacet
   facet normal 0.000000e+00 -1.000000e+00 0.000000e+00
      outer loop
         vertex 4.000000e+00 0.000000e+00 4.000000e+00
         vertex 5.368081e+00 0.000000e+00 2.412298e-01
         vertex 5.795197e+00 0.000000e+00 4.254696e-01
      endloop
   endfacet
   facet normal 0.000000e+00 -1.000000e+00 0.000000e+00
      outer loop
         vertex 3.077537e+00 0.000000e+00 1.078206e-01
         vertex 3.535629e+00 0.000000e+00 2.704654e-02
         vertex 4.000000e+00 0.000000e+00 4.000000e+00
      endloop
   endfacet
   facet normal 0.000000e+00 -1.000000e+00 -0.000000e+00
      outer loop
         vertex 4.000000e+00 0.000000e+00 4.000000e+00
         vertex 3.535629e+00 0.000000e+00 2.704654e-02
         vertex 4.000000e+00 0.000000e+00 0.000000e+00
      endloop
   endfacet
   facet normal 0.000000e+00 -1.000000e+00 0.000000e+00
      outer loop
         vertex 4.000000e+00 0.000000e+00 4.000000e+00
         vertex 4.000000e+00 0.000000e+00 0.000000e+00
         vertex 4.464372e+00 0.000000e+00 2.704654e-02
      endloop
   endfacet
   facet normal 0.000000e+00 -1.000000e+00 0.000000e+00
      outer loop
         vertex 1.801964e+00 0.000000e+00 6.580490e-01
         vertex 2.204804e+00 0.000000e+00 4.254696e-01
         vertex 4.000000e+00 0.000000e+00 4.000000e+00
      endloop
   endfacet
   facet normal 0.000000e+00 -1.000000e+00 0.000000e+00
      outer loop
         vertex 4.000000e+00 0.000000e+00 4.000000e+00
         vertex 2.204804e+00 0.000000e+00 4.254696e-01
         vertex 2.631920e+00 0.000000e+00 2.412298e-01
      endloop
   endfacet
   facet normal 0.000000e+00 -1.000000e+00 0.000000e+00
      outer loop
         vertex 4.000000e+00 0.000000e+00 4.000000e+00
         vertex 2.631920e+00 0.000000e+00 2.412298e-01
         vertex 3.077537e+00 0.000000e+00 1.078206e-01
      endloop
   endfacet
   facet normal 0.000000e+00 -1.000000e+00 0.000000e+00
      outer loop
         vertex 7.915073e-01 0.000000e+00 1.611366e+00
         vertex 1.090506e+00 0.000000e+00 1.255034e+00
         vertex 4.000000e+00 0.000000e+00 4.000000e+00
      endloop
   endfacet
   facet normal 0.000000e+00 -1.000000e+00 0.000000e+00
      outer loop
         vertex 4.000000e+00 0.000000e+00 4.000000e+00
         vertex 1.090506e+00 0.000000e+00 1.255034e+00
         vertex 1.428850e+00 0.000000e+00 9.358225e-01
      endloop
   endfacet
   facet normal 0.000000e+00 -1.000000e+00 0.000000e+00
      outer loop
         vertex 4.000000e+00 0.000000e+00 4.000000e+00
         vertex 1.428850e+00 0.000000e+00 9.358225e-01
         vertex 1.801964e+00 0.000000e+00 6.580490e-01
      endloop
   endfacet
   facet normal 0.000000e+00 -1.000000e+00 0.000000e+00
      outer loop
         vertex 1.680420e-01 0.000000e+00 2.852787e+00
         vertex 3.271357e-01 0.000000e+00 2.415681e+00
         vertex 4.000000e+00 0.000000e+00 4.000000e+00
      endloop
   endfacet
   facet normal 0.000000e+00 -1.000000e+00 0.000000e+00
      outer loop
         vertex 4.000000e+00 0.000000e+00 4.000000e+00
         vertex 3.271357e-01 0.000000e+00 2.415681e+00
         vertex 5.358986e-01 0.000000e+00 2.000000e+00
      endloop
   endfacet
   facet normal 0.000000e+00 -1.000000e+00 0.000000e+00
      outer loop
         vertex 4.000000e+00 0.000000e+00 4.000000e+00
         vertex 5.358986e-01 0.000000e+00 2.000000e+00
         vertex 7.915073e-01 0.000000e+00 1.611366e+00
      endloop
   endfacet
   facet normal 0.000000e+00 -1.000000e+00 0.000000e+00
      outer loop
         vertex 6.767455e-03 0.000000e+00 4.232580e+00
         vertex 6.767455e-03 0.000000e+00 3.767421e+00
         vertex 4.000000e+00 0.000000e+00 4.000000e+00
      endloop
   endfacet
   facet normal 0.000000e+00 -1.000000e+00 0.000000e+00
      outer loop
         vertex 4.000000e+00 0.000000e+00 4.000000e+00
         vertex 6.767455e-03 0.000000e+00 3.767421e+00
         vertex 6.076926e-02 0.000000e+00 3.305407e+00
      endloop
   endfacet
   facet normal 0.000000e+00 -1.000000e+00 0.000000e+00
      outer loop
         vertex 4.000000e+00 0.000000e+00 4.000000e+00
         vertex 6.076926e-02 0.000000e+00 3.305407e+00
         vertex 1.680420e-01 0.000000e+00 2.852787e+00
      endloop
   endfacet
   facet normal 0.000000e+00 -1.000000e+00 -0.000000e+00
      outer loop
         vertex 3.271357e-01 0.000000e+00 5.584319e+00
         vertex 1.680420e-01 0.000000e+00 5.147213e+00
         vertex 4.000000e+00 0.000000e+00 4.000000e+00
      endloop
   endfacet
   facet normal 0.000000e+00 -1.000000e+00 0.000000e+00
      outer loop
         vertex 4.000000e+00 0.000000e+00 4.000000e+00
         vertex 1.680420e-01 0.000000e+00 5.147213e+00
         vertex 6.076926e-02 0.000000e+00 4.694593e+00
      endloop
   endfacet
   facet normal 0.000000e+00 -1.000000e+00 0.000000e+00
      outer loop
         vertex 4.000000e+00 0.000000e+00 4.000000e+00
         vertex 6.076926e-02 0.000000e+00 4.694593e+00
         vertex 6.767455e-03 0.000000e+00 4.232580e+00
      endloop
   endfacet
   facet normal 0.000000e+00 -1.000000e+00 -0.000000e+00
      outer loop
         vertex 1.090506e+00 0.000000e+00 6.744967e+00
         vertex 7.915073e-01 0.000000e+00 6.388634e+00
         vertex 4.000000e+00 0.000000e+00 4.000000e+00
      endloop
   endfacet
   facet normal 0.000000e+00 -1.000000e+00 0.000000e+00
      outer loop
         vertex 4.000000e+00 0.000000e+00 4.000000e+00
         vertex 7.915073e-01 0.000000e+00 6.388634e+00
         vertex 5.358986e-01 0.000000e+00 6.000000e+00
      endloop
   endfacet
   facet normal 0.000000e+00 -1.000000e+00 0.000000e+00
      outer loop
         vertex 4.000000e+00 0.000000e+00 4.000000e+00
         vertex 5.358986e-01 0.000000e+00 6.000000e+00
         vertex 3.271357e-01 0.000000e+00 5.584319e+00
      endloop
   endfacet
   facet normal 0.000000e+00 -1.000000e+00 -0.000000e+00
      outer loop
         vertex 2.204804e+00 0.000000e+00 7.574531e+00
         vertex 1.801964e+00 0.000000e+00 7.341951e+00
         vertex 4.000000e+00 0.000000e+00 4.000000e+00
      endloop
   endfacet
   facet normal 0.000000e+00 -1.000000e+00 0.000000e+00
      outer loop
         vertex 4.000000e+00 0.000000e+00 4.000000e+00
         vertex 1.801964e+00 0.000000e+00 7.341951e+00
         vertex 1.428850e+00 0.000000e+00 7.064178e+00
      endloop
   endfacet
   facet normal 0.000000e+00 -1.000000e+00 0.000000e+00
      outer loop
         vertex 4.000000e+00 0.000000e+00 4.000000e+00
         vertex 1.428850e+00 0.000000e+00 7.064178e+00
         vertex 1.090506e+00 0.000000e+00 6.744967e+00
      endloop
   endfacet
   facet normal 0.000000e+00 -1.000000e+00 -0.000000e+00
      outer loop
         vertex 3.535629e+00 0.000000e+00 7.972954e+00
         vertex 3.077537e+00 0.000000e+00 7.892180e+00
         vertex 4.000000e+00 0.000000e+00 4.000000e+00
      endloop
   endfacet
   facet normal 0.000000e+00 -1.000000e+00 0.000000e+00
      outer loop
         vertex 4.000000e+00 0.000000e+00 4.000000e+00
         vertex 3.077537e+00 0.000000e+00 7.892180e+00
         vertex 2.631920e+00 0.000000e+00 7.758771e+00
      endloop
   endfacet
   facet normal 0.000000e+00 -1.000000e+00 0.000000e+00
      outer loop
         vertex 4.000000e+00 0.000000e+00 4.000000e+00
         vertex 2.631920e+00 0.000000e+00 7.758771e+00
         vertex 2.204804e+00 0.000000e+00 7.574531e+00
      endloop
   endfacet
endsolid