  0
SECTION
  2
HEADER
  9
$ACADVER
  1
AC1015
  9
$ACADMAINTVER
 70
     6
  9
$DWGCODEPAGE
  3
ANSI_1252
  9
$INSBASE
 10
0.0
 20
0.0
 30
0.0
  9
$EXTMIN
 10
0.0
 20
0.0
 30
0.0
  9
$EXTMAX
 10
210.0
 20
297.0
 30
0.0
  9
$LIMMIN
 10
0.0
 20
0.0
  9
$LIMMAX
 10
210.0
 20
297.0
  9
$ORTHOMODE
 70
     0
  9
$REGENMODE
 70
     1
  9
$FILLMODE
 70
     1
  9
$QTEXTMODE
 70
     0
  9
$MIRRTEXT
 70
     1
  9
$LTSCALE
 40
1.0
  9
$ATTMODE
 70
     1
  9
$TEXTSIZE
 40
3.5
  9
$TRACEWID
 40
1.0
  9
$TEXTSTYLE
  7
Standard
  9
$CLAYER
  8
0
  9
$CELTYPE
  6
ByLayer
  9
$CECOLOR
 62
   256
  9
$CELTSCALE
 40
1.0
  9
$DISPSILH
 70
     0
  9
$DIMSCALE
 40
1.0
  9
$DIMASZ
 40
3.302
  9
$DIMEXO
 40
1.0
  9
$DIMDLI
 40
3.75
  9
$DIMRND
 40
0.0
  9
$DIMDLE
 40
0.0
  9
$DIMEXE
 40
1.0
  9
$DIMTP
 40
0.0
  9
$DIMTM
 40
0.0
  9
$DIMTXT
 40
3.5
  9
$DIMCEN
 40
2.5
  9
$DIMTSZ
 40
0.0
  9
$DIMTOL
 70
     0
  9
$DIMLIM
 70
     0
  9
$DIMTIH
 70
     1
  9
$DIMTOH
 70
     1
  9
$DIMSE1
 70
     0
  9
$DIMSE2
 70
     0
  9
$DIMTAD
 70
     1
  9
$DIMZIN
 70
     1
  9
$DIMBLK
  1

  9
$DIMASO
 70
     1
  9
$DIMSHO
 70
     1
  9
$DIMPOST
  1

  9
$DIMAPOST
  1

  9
$DIMALT
 70
     0
  9
$DIMALTD
 70
     3
  9
$DIMALTF
 40
0.0393700787
  9
$DIMLFAC
 40
2.0
  9
$DIMTOFL
 70
     1
  9
$DIMTVP
 40
0.0
  9
$DIMTIX
 70
     0
  9
$DIMSOXD
 70
     0
  9
$DIMSAH
 70
     0
  9
$DIMBLK1
  1

  9
$DIMBLK2
  1

  9
$DIMSTYLE
  2
ISO-25
  9
$DIMCLRD
 70
     0
  9
$DIMCLRE
 70
     0
  9
$DIMCLRT
 70
     0
  9
$DIMTFAC
 40
1.0
  9
$DIMGAP
 40
1.524
  9
$DIMJUST
 70
     0
  9
$DIMSD1
 70
     0
  9
$DIMSD2
 70
     0
  9
$DIMTOLJ
 70
     0
  9
$DIMTZIN
 70
     1
  9
$DIMALTZ
 70
     0
  9
$DIMALTTZ
 70
     0
  9
$DIMUPT
 70
     0
  9
$DIMDEC
 70
     2
  9
$DIMTDEC
 70
     2
  9
$DIMALTU
 70
     2
  9
$DIMALTTD
 70
     3
  9
$DIMTXSTY
  7
Standard
  9
$DIMAUNIT
 70
     0
  9
$DIMADEC
 70
     2
  9
$DIMALTRND
 40
0.0
  9
$DIMAZIN
 70
     0
  9
$DIMDSEP
 70
    44
  9
$DIMATFIT
 70
     3
  9
$DIMFRAC
 70
     0
  9
$DIMLDRBLK
  1

  9
$DIMLUNIT
 70
     2
  9
$DIMLWD
 70
    -2
  9
$DIMLWE
 70
    -2
  9
$DIMTMOVE
 70
     0
  9
$LUNITS
 70
     2
  9
$LUPREC
 70
     2
  9
$SKETCHINC
 40
1.0
  9
$FILLETRAD
 40
0.0
  9
$AUNITS
 70
     0
  9
$AUPREC
 70
     2
  9
$MENU
  1
.
  9
$ELEVATION
 40
0.0
  9
$PELEVATION
 40
0.0
  9
$THICKNESS
 40
0.0
  9
$LIMCHECK
 70
     0
  9
$CHAMFERA
 40
0.0
  9
$CHAMFERB
 40
0.0
  9
$CHAMFERC
 40
0.0
  9
$CHAMFERD
 40
0.0
  9
$SKPOLY
 70
     0
  9
$TDCREATE
 40
2460221.69914257
  9
$TDUCREATE
 40
2460221.157475903
  9
$TDUPDATE
 40
2460221.699144688
  9
$TDUUPDATE
 40
2460221.157478021
  9
$TDINDWG
 40
0.0000000116
  9
$TDUSRTIMER
 40
0.0000000116
  9
$USRTIMER
 70
     1
  9
$ANGBASE
 50
0.0
  9
$ANGDIR
 70
     0
  9
$PDMODE
 70
     0
  9
$PDSIZE
 40
-1.0
  9
$PLINEWID
 40
0.0
  9
$SPLFRAME
 70
     0
  9
$SPLINETYPE
 70
     6
  9
$SPLINESEGS
 70
     8
  9
$HANDSEED
  5
1C6
  9
$SURFTAB1
 70
     6
  9
$SURFTAB2
 70
     6
  9
$SURFTYPE
 70
     6
  9
$SURFU
 70
     6
  9
$SURFV
 70
     6
  9
$UCSBASE
  2

  9
$UCSNAME
  2

  9
$UCSORG
 10
0.0
 20
0.0
 30
0.0
  9
$UCSXDIR
 10
1.0
 20
0.0
 30
0.0
  9
$UCSYDIR
 10
0.0
 20
1.0
 30
0.0
  9
$UCSORTHOREF
  2

  9
$UCSORTHOVIEW
 70
     0
  9
$UCSORGTOP
 10
0.0
 20
0.0
 30
0.0
  9
$UCSORGBOTTOM
 10
0.0
 20
0.0
 30
0.0
  9
$UCSORGLEFT
 10
0.0
 20
0.0
 30
0.0
  9
$UCSORGRIGHT
 10
0.0
 20
0.0
 30
0.0
  9
$UCSORGFRONT
 10
0.0
 20
0.0
 30
0.0
  9
$UCSORGBACK
 10
0.0
 20
0.0
 30
0.0
  9
$PUCSBASE
  2

  9
$PUCSNAME
  2

  9
$PUCSORG
 10
0.0
 20
0.0
 30
0.0
  9
$PUCSXDIR
 10
1.0
 20
0.0
 30
0.0
  9
$PUCSYDIR
 10
0.0
 20
1.0
 30
0.0
  9
$PUCSORTHOREF
  2

  9
$PUCSORTHOVIEW
 70
     0
  9
$PUCSORGTOP
 10
0.0
 20
0.0
 30
0.0
  9
$PUCSORGBOTTOM
 10
0.0
 20
0.0
 30
0.0
  9
$PUCSORGLEFT
 10
0.0
 20
0.0
 30
0.0
  9
$PUCSORGRIGHT
 10
0.0
 20
0.0
 30
0.0
  9
$PUCSORGFRONT
 10
0.0
 20
0.0
 30
0.0
  9
$PUCSORGBACK
 10
0.0
 20
0.0
 30
0.0
  9
$USERI1
 70
     0
  9
$USERI2
 70
     0
  9
$USERI3
 70
     0
  9
$USERI4
 70
     0
  9
$USERI5
 70
     0
  9
$USERR1
 40
0.0
  9
$USERR2
 40
0.0
  9
$USERR3
 40
0.0
  9
$USERR4
 40
0.0
  9
$USERR5
 40
0.0
  9
$WORLDVIEW
 70
     1
  9
$SHADEDGE
 70
     3
  9
$SHADEDIF
 70
    70
  9
$TILEMODE
 70
     1
  9
$MAXACTVP
 70
    64
  9
$PINSBASE
 10
0.0
 20
0.0
 30
0.0
  9
$PLIMCHECK
 70
     0
  9
$PEXTMIN
 10
1.0000000000E+20
 20
1.0000000000E+20
 30
1.0000000000E+20
  9
$PEXTMAX
 10
-1.0000000000E+20
 20
-1.0000000000E+20
 30
-1.0000000000E+20
  9
$PLIMMIN
 10
0.0
 20
0.0
  9
$PLIMMAX
 10
420.0
 20
297.0
  9
$UNITMODE
 70
     0
  9
$VISRETAIN
 70
     1
  9
$PLINEGEN
 70
     0
  9
$PSLTSCALE
 70
     1
  9
$TREEDEPTH
 70
  3020
  9
$CMLSTYLE
  2
Standard
  9
$CMLJUST
 70
     0
  9
$CMLSCALE
 40
20.0
  9
$PROXYGRAPHICS
 70
     1
  9
$MEASUREMENT
 70
     1
  9
$CELWEIGHT
370
    -1
  9
$ENDCAPS
280
     0
  9
$JOINSTYLE
280
     0
  9
$LWDISPLAY
290
     1
  9
$INSUNITS
 70
     4
  9
$HYPERLINKBASE
  1

  9
$STYLESHEET
  1

  9
$XEDIT
290
     1
  9
$CEPSNTYPE
380
     0
  9
$PSTYLEMODE
290
     1
  9
$FINGERPRINTGUID
  2
{f2e8c837-9f85-4cac-b942-f1631e4a6f54}
  9
$VERSIONGUID
  2
{FAEB1C32-E019-11D5-929B-00C0DF256EC4}
  9
$EXTNAMES
290
     1
  9
$PSVPSCALE
 40
0.0
  9
$OLESTARTUP
290
     0
  0
ENDSEC
  0
SECTION
  2
CLASSES
  0
CLASS
  1
ACDBDICTIONARYWDFLT
  2
AcDbDictionaryWithDefault
  3
ObjectDBX Classes
 90
        0
280
     0
281
     0
  0
CLASS
  1
VISUALSTYLE
  2
AcDbVisualStyle
  3
ObjectDBX Classes
 90
     4095
280
     0
281
     0
  0
CLASS
  1
MATERIAL
  2
AcDbMaterial
  3
ObjectDBX Classes
 90
     1153
280
     0
281
     0
  0
CLASS
  1
SCALE
  2
AcDbScale
  3
ObjectDBX Classes
 90
     1153
280
     0
281
     0
  0
CLASS
  1
TABLESTYLE
  2
AcDbTableStyle
  3
ObjectDBX Classes
 90
     4095
280
     0
281
     0
  0
CLASS
  1
MLEADERSTYLE
  2
AcDbMLeaderStyle
  3
ACDB_MLEADERSTYLE_CLASS
 90
     4095
280
     0
281
     0
  0
CLASS
  1
SUN
  2
AcDbSun
  3
SCENEOE
 90
     1153
280
     0
281
     0
  0
CLASS
  1
ACDBPLACEHOLDER
  2
AcDbPlaceHolder
  3
ObjectDBX Classes
 90
        0
280
     0
281
     0
  0
CLASS
  1
LAYOUT
  2
AcDbLayout
  3
ObjectDBX Classes
 90
        0
280
     0
281
     0
  0
ENDSEC
  0
SECTION
  2
TABLES
  0
TABLE
  2
VPORT
  5
8
330
0
100
AcDbSymbolTable
 70
     1
  0
VPORT
  5
29
330
8
100
AcDbSymbolTableRecord
100
AcDbViewportTableRecord
  2
*Active
 70
     0
 10
0.0
 20
0.0
 11
1.0
 21
1.0
 12
105.0
 22
148.5
 13
0.0
 23
0.0
 14
10.0
 24
10.0
 15
10.0
 25
10.0
 16
0.0
 26
0.0
 36
1.0
 17
0.0
 27
0.0
 37
0.0
 40
297.0
 41
0.7070707071
 42
50.0
 43
0.0
 44
0.0
 50
0.0
 51
0.0
 71
     0
 72
  2000
 73
     1
 74
     3
 75
     0
 76
     0
 77
     0
 78
     0
281
     0
 65
     1
110
0.0
120
0.0
130
0.0
111
1.0
121
0.0
131
0.0
112
0.0
122
1.0
132
0.0
 79
     0
146
0.0
  0
ENDTAB
  0
TABLE
  2
LTYPE
  5
5
330
0
100
AcDbSymbolTable
 70
     6
  0
LTYPE
  5
14
330
5
100
AcDbSymbolTableRecord
100
AcDbLinetypeTableRecord
  2
ByBlock
 70
     0
  3

 72
    65
 73
     0
 40
0.0
  0
LTYPE
  5
15
330
5
100
AcDbSymbolTableRecord
100
AcDbLinetypeTableRecord
  2
ByLayer
 70
     0
  3

 72
    65
 73
     0
 40
0.0
  0
LTYPE
  5
16
330
5
100
AcDbSymbolTableRecord
100
AcDbLinetypeTableRecord
  2
Continuous
 70
     0
  3
Solid line
 72
    65
 73
     0
 40
0.0
  0
LTYPE
  5
5E
330
5
100
AcDbSymbolTableRecord
100
AcDbLinetypeTableRecord
  2
HIDDEN
 70
     0
  3
Hidden __ __ __ __ __ __ __ __ __ __ __ __ __ __
 72
    65
 73
     2
 40
1.905
 49
1.27
 74
     0
 49
-0.635
 74
     0
  0
LTYPE
  5
5F
330
5
100
AcDbSymbolTableRecord
100
AcDbLinetypeTableRecord
  2
PHANTOM
 70
     0
  3
Phantom ______  __  __  ______  __  __  ______
 72
    65
 73
     6
 40
12.7
 49
6.35
 74
     0
 49
-1.27
 74
     0
 49
1.27
 74
     0
 49
-1.27
 74
     0
 49
1.27
 74
     0
 49
-1.27
 74
     0
  0
LTYPE
  5
60
330
5
100
AcDbSymbolTableRecord
100
AcDbLinetypeTableRecord
  2
CENTER
 70
     0
  3
Center ____ _ ____ _ ____ _ ____ _ ____ _ ____
 72
    65
 73
     4
 40
10.16
 49
6.35
 74
     0
 49
-1.27
 74
     0
 49
1.27
 74
     0
 49
-1.27
 74
     0
  0
LTYPE
  5
61
330
5
100
AcDbSymbolTableRecord
100
AcDbLinetypeTableRecord
  2
CENTERX2
 70
     0
  3
Center (2x) ________  __  ________  __  _____
 72
    65
 73
     4
 40
20.32
 49
12.7
 74
     0
 49
-2.54
 74
     0
 49
2.54
 74
     0
 49
-2.54
 74
     0
  0
LTYPE
  5
62
330
5
100
AcDbSymbolTableRecord
100
AcDbLinetypeTableRecord
  2
DOT2
 70
     0
  3
Dot (.5x) ........................................
 72
    65
 73
     2
 40
0.635
 49
0.0
 74
     0
 49
-0.635
 74
     0
  0
ENDTAB
  0
TABLE
  2
LAYER
  5
2
330
0
100
AcDbSymbolTable
 70
     2
  0
LAYER
  5
10
330
2
100
AcDbSymbolTableRecord
100
AcDbLayerTableRecord
  2
0
 70
     0
 62
     7
  6
Continuous
370
    -3
390
F
  0
LAYER
  5
63
330
2
100
AcDbSymbolTableRecord
100
AcDbLayerTableRecord
  2
FORMAT
 70
     0
 62
     7
  6
Continuous
370
    -3
390
F
  0
ENDTAB
  0
TABLE
  2
STYLE
  5
3
330
0
100
AcDbSymbolTable
 70
     4
  0
STYLE
  5
11
330
3
100
AcDbSymbolTableRecord
100
AcDbTextStyleTableRecord
  2
Standard
 70
     0
 40
0.0
 41
1.0
 50
0.0
 71
     0
 42
3.5
  3
txt
  4

  0
STYLE
  5
99
330
3
100
AcDbSymbolTableRecord
100
AcDbTextStyleTableRecord
  2
SLDTEXTSTYLE0
 70
     0
 40
0.0
 41
0.75
 50
0.0
 71
     0
 42
3.5
  3
TXT
  4

  0
STYLE
  5
AE
330
3
100
AcDbSymbolTableRecord
100
AcDbTextStyleTableRecord
  2
SLDTEXTSTYLE1
 70
     0
 40
0.0
 41
0.6864493306
 50
0.0
 71
     0
 42
3.5
  3
TXT
  4

  0
STYLE
  5
C7
330
3
100
AcDbSymbolTableRecord
100
AcDbTextStyleTableRecord
  2
SLDTEXTSTYLE2
 70
     0
 40
0.0
 41
0.6875
 50
0.0
 71
     0
 42
3.5
  3
TXT
  4

  0
ENDTAB
  0
TABLE
  2
VIEW
  5
6
330
0
100
AcDbSymbolTable
 70
     0
  0
ENDTAB
  0
TABLE
  2
UCS
  5
7
330
0
100
AcDbSymbolTable
 70
     0
  0
ENDTAB
  0
TABLE
  2
APPID
  5
9
330
0
100
AcDbSymbolTable
 70
     1
  0
APPID
  5
12
330
9
100
AcDbSymbolTableRecord
100
AcDbRegAppTableRecord
  2
ACAD
 70
     0
  0
ENDTAB
  0
TABLE
  2
DIMSTYLE
  5
A
330
0
100
AcDbSymbolTable
 70
     1
100
AcDbDimStyleTable
  0
DIMSTYLE
105
27
330
A
100
AcDbSymbolTableRecord
100
AcDbDimStyleTableRecord
  2
ISO-25
 70
     0
 41
2.5
 42
0.625
 43
3.75
 44
1.25
 73
     0
 74
     0
 77
     1
 78
     8
140
2.5
141
2.5
143
0.0393700787
147
0.625
171
     3
172
     1
178
     0
271
     2
272
     2
274
     3
278
    44
283
     0
284
     8
340
11
  0
ENDTAB
  0
TABLE
  2
BLOCK_RECORD
  5
1
330
0
100
AcDbSymbolTable
 70
     1
  0
BLOCK_RECORD
  5
1F
330
1
100
AcDbSymbolTableRecord
100
AcDbBlockTableRecord
  2
*Model_Space
340
22
  0
BLOCK_RECORD
  5
1B
330
1
100
AcDbSymbolTableRecord
100
AcDbBlockTableRecord
  2
*Paper_Space
340
1E
  0
BLOCK_RECORD
  5
23
330
1
100
AcDbSymbolTableRecord
100
AcDbBlockTableRecord
  2
*Paper_Space0
340
26
  0
ENDTAB
  0
ENDSEC
  0
SECTION
  2
BLOCKS
  0
BLOCK
  5
20
330
1F
100
AcDbEntity
  8
0
100
AcDbBlockBegin
  2
*Model_Space
 70
     0
 10
0.0
 20
0.0
 30
0.0
  3
*Model_Space
  1

  0
ENDBLK
  5
21
330
1F
100
AcDbEntity
  8
0
100
AcDbBlockEnd
  0
BLOCK
  5
1C
330
1B
100
AcDbEntity
 67
     1
  8
0
100
AcDbBlockBegin
  2
*Paper_Space
 70
     0
 10
0.0
 20
0.0
 30
0.0
  3
*Paper_Space
  1

  0
ENDBLK
  5
1D
330
1B
100
AcDbEntity
 67
     1
  8
0
100
AcDbBlockEnd
  0
BLOCK
  5
24
330
23
100
AcDbEntity
  8
0
100
AcDbBlockBegin
  2
*Paper_Space0
 70
     0
 10
0.0
 20
0.0
 30
0.0
  3
*Paper_Space0
  1

  0
ENDBLK
  5
25
330
23
100
AcDbEntity
  8
0
100
AcDbBlockEnd
  0
ENDSEC
  0
SECTION
  2
ENTITIES
  0
LINE
  5
64
330
1F
100
AcDbEntity
  8
0
  6
Continuous
 62
     7
370
    50
100
AcDbLine
 10
20.0
 20
14.25
 30
0.0
 11
200.0
 21
14.25
 31
0.0
  0
LINE
  5
65
330
1F
100
AcDbEntity
  8
0
  6
Continuous
 62
     7
370
    50
100
AcDbLine
 10
200.0
 20
48.25
 30
0.0
 11
20.0
 21
48.25
 31
0.0
  0
LINE
  5
66
330
1F
100
AcDbEntity
  8
0
  6
Continuous
 62
     7
370
    50
100
AcDbLine
 10
20.0
 20
65.25
 30
0.0
 11
200.0
 21
65.25
 31
0.0
  0
LINE
  5
67
330
1F
100
AcDbEntity
  8
0
  6
Continuous
 62
     7
370
    50
100
AcDbLine
 10
46.9909524338
 20
48.25
 30
0.0
 11
46.9909524338
 21
10.0
 31
0.0
  0
LINE
  5
68
330
1F
100
AcDbEntity
  8
0
  6
Continuous
 62
     7
370
    50
100
AcDbLine
 10
118.8
 20
31.25
 30
0.0
 11
20.0
 21
31.25
 31
0.0
  0
LINE
  5
69
330
1F
100
AcDbEntity
  8
0
  6
Continuous
 62
     7
370
    50
100
AcDbLine
 10
118.8
 20
35.5
 30
0.0
 11
20.0
 21
35.5
 31
0.0
  0
LINE
  5
6A
330
1F
100
AcDbEntity
  8
0
  6
Continuous
 62
     7
370
    50
100
AcDbLine
 10
118.8
 20
39.75
 30
0.0
 11
20.0
 21
39.75
 31
0.0
  0
LINE
  5
6B
330
1F
100
AcDbEntity
  8
0
  6
Continuous
 62
     7
370
    50
100
AcDbLine
 10
118.8
 20
44.0
 30
0.0
 11
20.0
 21
44.0
 31
0.0
  0
LINE
  5
6C
330
1F
100
AcDbEntity
  8
0
  6
Continuous
 62
     7
370
    50
100
AcDbLine
 10
74.6
 20
10.0
 30
0.0
 11
74.6
 21
48.25
 31
0.0
  0
LINE
  5
6D
330
1F
100
AcDbEntity
  8
0
  6
Continuous
 62
     7
370
    50
100
AcDbLine
 10
20.0
 20
65.25
 30
0.0
 11
20.0
 21
10.0
 31
0.0
  0
LINE
  5
6E
330
1F
100
AcDbEntity
  8
0
  6
Continuous
 62
     7
370
    50
100
AcDbLine
 10
27.8
 20
48.25
 30
0.0
 11
27.8
 21
10.0
 31
0.0
  0
LINE
  5
6F
330
1F
100
AcDbEntity
  8
0
  6
Continuous
 62
     7
370
    50
100
AcDbLine
 10
53.8
 20
48.25
 30
0.0
 11
53.8
 21
65.25
 31
0.0
  0
LINE
  5
70
330
1F
100
AcDbEntity
  8
0
  6
Continuous
 62
     7
370
    50
100
AcDbLine
 10
64.3989261635
 20
48.25
 30
0.0
 11
64.3989261635
 21
10.0
 31
0.0
  0
LINE
  5
71
330
1F
100
AcDbEntity
  8
0
  6
Continuous
 62
     7
370
    50
100
AcDbLine
 10
85.0
 20
31.25
 30
0.0
 11
85.0
 21
48.25
 31
0.0
  0
LINE
  5
72
330
1F
100
AcDbEntity
  8
0
  6
Continuous
 62
     7
370
    50
100
AcDbLine
 10
74.6
 20
18.5
 30
0.0
 11
20.0
 21
18.5
 31
0.0
  0
LINE
  5
73
330
1F
100
AcDbEntity
  8
0
  6
Continuous
 62
     7
370
    50
100
AcDbLine
 10
100.6
 20
65.25
 30
0.0
 11
100.6
 21
27.0
 31
0.0
  0
LINE
  5
74
330
1F
100
AcDbEntity
  8
0
  6
Continuous
 62
     7
370
    50
100
AcDbLine
 10
74.6
 20
22.749928
 30
0.0
 11
20.0
 21
22.749928
 31
0.0
  0
LINE
  5
75
330
1F
100
AcDbEntity
  8
0
  6
Continuous
 62
     7
370
    50
100
AcDbLine
 10
74.6
 20
27.0
 30
0.0
 11
20.0
 21
27.0
 31
0.0
  0
LINE
  5
76
330
1F
100
AcDbEntity
  8
0
  6
Continuous
 62
     7
370
    50
100
AcDbLine
 10
74.6
 20
27.0
 30
0.0
 11
200.0
 21
27.0
 31
0.0
  0
LINE
  5
77
330
1F
100
AcDbEntity
  8
0
  6
Continuous
 62
     7
370
    50
100
AcDbLine
 10
118.8
 20
65.25
 30
0.0
 11
118.8
 21
10.0
 31
0.0
  0
LINE
  5
78
330
1F
100
AcDbEntity
  8
0
  6
Continuous
 62
     7
370
    50
100
AcDbLine
 10
163.0
 20
10.0
 30
0.0
 11
163.0
 21
14.25
 31
0.0
  0
LINE
  5
79
330
1F
100
AcDbEntity
  8
0
  6
Continuous
 62
     7
370
    50
100
AcDbLine
 10
170.8
 20
58.875
 30
0.0
 11
170.8
 21
65.25
 31
0.0
  0
LINE
  5
7A
330
1F
100
AcDbEntity
  8
0
  6
Continuous
 62
     7
370
    50
100
AcDbLine
 10
187.0
 20
14.25
 30
0.0
 11
187.0
 21
27.0
 31
0.0
  0
LINE
  5
7B
330
1F
100
AcDbEntity
  8
0
  6
Continuous
 62
     7
370
    50
100
AcDbLine
 10
200.0
 20
58.875
 30
0.0
 11
118.8
 21
58.875
 31
0.0
  0
LINE
  5
7C
330
1F
100
AcDbEntity
  8
0
  6
Continuous
 62
     7
370
    50
100
AcDbLine
 10
200.0
 20
18.5
 30
0.0
 11
187.0
 21
18.5
 31
0.0
  0
LINE
  5
7D
330
1F
100
AcDbEntity
  8
0
  6
Continuous
 62
     7
370
    70
100
AcDbLine
 10
20.0
 20
10.0
 30
0.0
 11
20.0
 21
287.0
 31
0.0
  0
LINE
  5
7E
330
1F
100
AcDbEntity
  8
0
  6
Continuous
 62
     7
370
    70
100
AcDbLine
 10
20.0
 20
287.0
 30
0.0
 11
200.0
 21
287.0
 31
0.0
  0
LINE
  5
7F
330
1F
100
AcDbEntity
  8
0
  6
Continuous
 62
     7
370
    70
100
AcDbLine
 10
200.0
 20
287.0
 30
0.0
 11
200.0
 21
10.0
 31
0.0
  0
LINE
  5
80
330
1F
100
AcDbEntity
  8
0
  6
Continuous
 62
     7
370
    70
100
AcDbLine
 10
200.0
 20
10.0
 30
0.0
 11
20.0
 21
10.0
 31
0.0
  0
LINE
  5
81
330
1F
100
AcDbEntity
  8
0
  6
Continuous
 62
     7
370
    70
100
AcDbLine
 10
15.0
 20
5.0
 30
0.0
 11
15.0
 21
292.0
 31
0.0
  0
LINE
  5
82
330
1F
100
AcDbEntity
  8
0
  6
Continuous
 62
     7
370
    70
100
AcDbLine
 10
15.0
 20
292.0
 30
0.0
 11
205.0
 21
292.0
 31
0.0
  0
LINE
  5
83
330
1F
100
AcDbEntity
  8
0
  6
Continuous
 62
     7
370
    70
100
AcDbLine
 10
205.0
 20
292.0
 30
0.0
 11
205.0
 21
5.0
 31
0.0
  0
LINE
  5
84
330
1F
100
AcDbEntity
  8
0
  6
Continuous
 62
     7
370
    70
100
AcDbLine
 10
205.0
 20
5.0
 30
0.0
 11
15.0
 21
5.0
 31
0.0
  0
LINE
  5
85
330
1F
100
AcDbEntity
  8
0
  6
Continuous
 62
     7
370
    35
100
AcDbLine
 10
15.0
 20
148.5
 30
0.0
 11
25.0
 21
148.5
 31
0.0
  0
LINE
  5
86
330
1F
100
AcDbEntity
  8
0
  6
Continuous
 62
     7
370
    35
100
AcDbLine
 10
110.0
 20
292.0
 30
0.0
 11
110.0
 21
282.0
 31
0.0
  0
LINE
  5
87
330
1F
100
AcDbEntity
  8
0
  6
Continuous
 62
     7
370
    35
100
AcDbLine
 10
205.0
 20
148.5
 30
0.0
 11
195.0
 21
148.5
 31
0.0
  0
LINE
  5
88
330
1F
100
AcDbEntity
  8
0
  6
Continuous
 62
     7
370
    35
100
AcDbLine
 10
110.0
 20
5.0
 30
0.0
 11
110.0
 21
15.0
 31
0.0
  0
LINE
  5
89
330
1F
100
AcDbEntity
  8
0
  6
Continuous
 62
     7
370
    35
100
AcDbLine
 10
20.0
 20
48.5
 30
0.0
 11
15.0
 21
48.5
 31
0.0
  0
LINE
  5
8A
330
1F
100
AcDbEntity
  8
0
  6
Continuous
 62
     7
370
    35
100
AcDbLine
 10
200.0
 20
48.5
 30
0.0
 11
205.0
 21
48.5
 31
0.0
  0
LINE
  5
8B
330
1F
100
AcDbEntity
  8
0
  6
Continuous
 62
     7
370
    35
100
AcDbLine
 10
20.0
 20
98.5
 30
0.0
 11
15.0
 21
98.5
 31
0.0
  0
LINE
  5
8C
330
1F
100
AcDbEntity
  8
0
  6
Continuous
 62
     7
370
    35
100
AcDbLine
 10
200.0
 20
98.5
 30
0.0
 11
205.0
 21
98.5
 31
0.0
  0
LINE
  5
8D
330
1F
100
AcDbEntity
  8
0
  6
Continuous
 62
     7
370
    35
100
AcDbLine
 10
20.0
 20
148.5
 30
0.0
 11
15.0
 21
148.5
 31
0.0
  0
LINE
  5
8E
330
1F
100
AcDbEntity
  8
0
  6
Continuous
 62
     7
370
    35
100
AcDbLine
 10
200.0
 20
148.5
 30
0.0
 11
205.0
 21
148.5
 31
0.0
  0
LINE
  5
8F
330
1F
100
AcDbEntity
  8
0
  6
Continuous
 62
     7
370
    35
100
AcDbLine
 10
20.0
 20
198.5
 30
0.0
 11
15.0
 21
198.5
 31
0.0
  0
LINE
  5
90
330
1F
100
AcDbEntity
  8
0
  6
Continuous
 62
     7
370
    35
100
AcDbLine
 10
200.0
 20
198.5
 30
0.0
 11
205.0
 21
198.5
 31
0.0
  0
LINE
  5
91
330
1F
100
AcDbEntity
  8
0
  6
Continuous
 62
     7
370
    35
100
AcDbLine
 10
20.0
 20
248.5
 30
0.0
 11
15.0
 21
248.5
 31
0.0
  0
LINE
  5
92
330
1F
100
AcDbEntity
  8
0
  6
Continuous
 62
     7
370
    35
100
AcDbLine
 10
200.0
 20
248.5
 30
0.0
 11
205.0
 21
248.5
 31
0.0
  0
LINE
  5
93
330
1F
100
AcDbEntity
  8
0
  6
Continuous
 62
     7
370
    35
100
AcDbLine
 10
60.0
 20
287.0
 30
0.0
 11
60.0
 21
292.0
 31
0.0
  0
LINE
  5
94
330
1F
100
AcDbEntity
  8
0
  6
Continuous
 62
     7
370
    35
100
AcDbLine
 10
60.0
 20
10.0
 30
0.0
 11
60.0
 21
5.0
 31
0.0
  0
LINE
  5
95
330
1F
100
AcDbEntity
  8
0
  6
Continuous
 62
     7
370
    35
100
AcDbLine
 10
110.0
 20
287.0
 30
0.0
 11
110.0
 21
292.0
 31
0.0
  0
LINE
  5
96
330
1F
100
AcDbEntity
  8
0
  6
Continuous
 62
     7
370
    35
100
AcDbLine
 10
110.0
 20
10.0
 30
0.0
 11
110.0
 21
5.0
 31
0.0
  0
LINE
  5
97
330
1F
100
AcDbEntity
  8
0
  6
Continuous
 62
     7
370
    35
100
AcDbLine
 10
160.0
 20
287.0
 30
0.0
 11
160.0
 21
292.0
 31
0.0
  0
LINE
  5
98
330
1F
100
AcDbEntity
  8
0
  6
Continuous
 62
     7
370
    35
100
AcDbLine
 10
160.0
 20
10.0
 30
0.0
 11
160.0
 21
5.0
 31
0.0
  0
MTEXT
  5
9A
330
1F
100
AcDbEntity
  8
0
  6
Continuous
 62
     7
370
     0
100
AcDbMText
 10
17.3396881428
 20
31.1921039684
 30
0.0
 40
3.96875
 41
0.0
 71
     2
 72
     1
  1
A
  7
SLDTEXTSTYLE0
 73
     1
 44
1.0
  0
MTEXT
  5
9B
330
1F
100
AcDbEntity
  8
0
  6
Continuous
 62
     7
370
     0
100
AcDbMText
 10
202.3396881428
 20
31.1921039684
 30
0.0
 40
3.96875
 41
0.0
 71
     2
 72
     1
  1
A
  7
SLDTEXTSTYLE0
 73
     1
 44
1.0
  0
MTEXT
  5
9C
330
1F
100
AcDbEntity
  8
0
  6
Continuous
 62
     7
370
     0
100
AcDbMText
 10
17.4706018241
 20
75.4421039684
 30
0.0
 40
3.96875
 41
0.0
 71
     2
 72
     1
  1
B
  7
SLDTEXTSTYLE0
 73
     1
 44
1.0
  0
MTEXT
  5
9D
330
1F
100
AcDbEntity
  8
0
  6
Continuous
 62
     7
370
     0
100
AcDbMText
 10
202.4706018241
 20
75.4421039684
 30
0.0
 40
3.96875
 41
0.0
 71
     2
 72
     1
  1
B
  7
SLDTEXTSTYLE0
 73
     1
 44
1.0
  0
MTEXT
  5
9E
330
1F
100
AcDbEntity
  8
0
  6
Continuous
 62
     7
370
     0
100
AcDbMText
 10
17.458658902
 20
125.4421039684
 30
0.0
 40
3.96875
 41
0.0
 71
     2
 72
     1
  1
C
  7
SLDTEXTSTYLE0
 73
     1
 44
1.0
  0
MTEXT
  5
9F
330
1F
100
AcDbEntity
  8
0
  6
Continuous
 62
     7
370
     0
100
AcDbMText
 10
202.458658902
 20
125.4421039684
 30
0.0
 40
3.96875
 41
0.0
 71
     2
 72
     1
  1
C
  7
SLDTEXTSTYLE0
 73
     1
 44
1.0
  0
MTEXT
  5
A0
330
1F
100
AcDbEntity
  8
0
  6
Continuous
 62
     7
370
     0
100
AcDbMText
 10
17.4526872821
 20
175.4421039684
 30
0.0
 40
3.96875
 41
0.0
 71
     2
 72
     1
  1
D
  7
SLDTEXTSTYLE0
 73
     1
 44
1.0
  0
MTEXT
  5
A1
330
1F
100
AcDbEntity
  8
0
  6
Continuous
 62
     7
370
     0
100
AcDbMText
 10
202.4526872821
 20
175.4421039684
 30
0.0
 40
3.96875
 41
0.0
 71
     2
 72
     1
  1
D
  7
SLDTEXTSTYLE0
 73
     1
 44
1.0
  0
MTEXT
  5
A2
330
1F
100
AcDbEntity
  8
0
  6
Continuous
 62
     7
370
     0
100
AcDbMText
 10
17.5078089051
 20
225.4421039684
 30
0.0
 40
3.96875
 41
0.0
 71
     2
 72
     1
  1
E
  7
SLDTEXTSTYLE0
 73
     1
 44
1.0
  0
MTEXT
  5
A3
330
1F
100
AcDbEntity
  8
0
  6
Continuous
 62
     7
370
     0
100
AcDbMText
 10
202.5078089051
 20
225.4421039684
 30
0.0
 40
3.96875
 41
0.0
 71
     2
 72
     1
  1
E
  7
SLDTEXTSTYLE0
 73
     1
 44
1.0
  0
MTEXT
  5
A4
330
1F
100
AcDbEntity
  8
0
  6
Continuous
 62
     7
370
     0
100
AcDbMText
 10
17.4577402091
 20
269.6921039684
 30
0.0
 40
3.96875
 41
0.0
 71
     2
 72
     1
  1
F
  7
SLDTEXTSTYLE0
 73
     1
 44
1.0
  0
MTEXT
  5
A5
330
1F
100
AcDbEntity
  8
0
  6
Continuous
 62
     7
370
     0
100
AcDbMText
 10
202.4577402091
 20
269.6921039684
 30
0.0
 40
3.96875
 41
0.0
 71
     2
 72
     1
  1
F
  7
SLDTEXTSTYLE0
 73
     1
 44
1.0
  0
MTEXT
  5
A6
330
1F
100
AcDbEntity
  8
0
  6
Continuous
 62
     7
370
     0
100
AcDbMText
 10
39.9600369465
 20
9.4998406889
 30
0.0
 40
3.96875
 41
0.0
 71
     2
 72
     1
  1
4
  7
SLDTEXTSTYLE0
 73
     1
 44
1.0
  0
MTEXT
  5
A7
330
1F
100
AcDbEntity
  8
0
  6
Continuous
 62
     7
370
     0
100
AcDbMText
 10
39.9600369465
 20
291.4998406889
 30
0.0
 40
3.96875
 41
0.0
 71
     2
 72
     1
  1
4
  7
SLDTEXTSTYLE0
 73
     1
 44
1.0
  0
MTEXT
  5
A8
330
1F
100
AcDbEntity
  8
0
  6
Continuous
 62
     7
370
     0
100
AcDbMText
 10
84.9600369465
 20
9.4998406889
 30
0.0
 40
3.96875
 41
0.0
 71
     2
 72
     1
  1
3
  7
SLDTEXTSTYLE0
 73
     1
 44
1.0
  0
MTEXT
  5
A9
330
1F
100
AcDbEntity
  8
0
  6
Continuous
 62
     7
370
     0
100
AcDbMText
 10
84.9600369465
 20
291.4998406889
 30
0.0
 40
3.96875
 41
0.0
 71
     2
 72
     1
  1
3
  7
SLDTEXTSTYLE0
 73
     1
 44
1.0
  0
MTEXT
  5
AA
330
1F
100
AcDbEntity
  8
0
  6
Continuous
 62
     7
370
     0
100
AcDbMText
 10
134.9600369465
 20
9.4998406889
 30
0.0
 40
3.96875
 41
0.0
 71
     2
 72
     1
  1
2
  7
SLDTEXTSTYLE0
 73
     1
 44
1.0
  0
MTEXT
  5
AB
330
1F
100
AcDbEntity
  8
0
  6
Continuous
 62
     7
370
     0
100
AcDbMText
 10
134.9600369465
 20
291.4998406889
 30
0.0
 40
3.96875
 41
0.0
 71
     2
 72
     1
  1
2
  7
SLDTEXTSTYLE0
 73
     1
 44
1.0
  0
MTEXT
  5
AC
330
1F
100
AcDbEntity
  8
0
  6
Continuous
 62
     7
370
     0
100
AcDbMText
 10
179.9600369465
 20
9.4998406889
 30
0.0
 40
3.96875
 41
0.0
 71
     2
 72
     1
  1
1
  7
SLDTEXTSTYLE0
 73
     1
 44
1.0
  0
MTEXT
  5
AD
330
1F
100
AcDbEntity
  8
0
  6
Continuous
 62
     7
370
     0
100
AcDbMText
 10
179.9600369465
 20
291.4998406889
 30
0.0
 40
3.96875
 41
0.0
 71
     2
 72
     1
  1
1
  7
SLDTEXTSTYLE0
 73
     1
 44
1.0
  0
MTEXT
  5
AF
330
1F
100
AcDbEntity
  8
0
  6
Continuous
 62
     7
370
     0
100
AcDbMText
 10
20.6433628979
 20
42.3847813173
 30
0.0
 40
1.5
 41
0.0
 71
     1
 72
     1
  1
DRAWN
  7
SLDTEXTSTYLE1
 73
     1
 44
1.0
  0
MTEXT
  5
B0
330
1F
100
AcDbEntity
  8
0
  6
Continuous
 62
     7
370
     0
100
AcDbMText
 10
20.9392221937
 20
38.1618530186
 30
0.0
 40
1.5
 41
0.0
 71
     1
 72
     1
  1
CHK'D
  7
SLDTEXTSTYLE0
 73
     1
 44
1.0
  0
MTEXT
  5
B1
330
1F
100
AcDbEntity
  8
0
  6
Continuous
 62
     7
370
     0
100
AcDbMText
 10
20.4017224083
 20
34.0658666243
 30
0.0
 40
1.5
 41
0.0
 71
     1
 72
     1
  1
APPV'D
  7
SLDTEXTSTYLE0
 73
     1
 44
1.0
  0
MTEXT
  5
B2
330
1F
100
AcDbEntity
  8
0
  6
Continuous
 62
     7
370
     0
100
AcDbMText
 10
21.1240107386
 20
29.7157844608
 30
0.0
 40
1.5
 41
0.0
 71
     1
 72
     1
  1
MFG
  7
SLDTEXTSTYLE0
 73
     1
 44
1.0
  0
MTEXT
  5
B3
330
1F
100
AcDbEntity
  8
0
  6
Continuous
 62
     7
370
     0
100
AcDbMText
 10
21.509036604
 20
25.504662132
 30
0.0
 40
1.5
 41
0.0
 71
     1
 72
     1
  1
Q.A
  7
SLDTEXTSTYLE0
 73
     1
 44
1.0
  0
MTEXT
  5
B4
330
1F
100
AcDbEntity
  8
0
  6
Continuous
 62
     7
370
     0
100
AcDbMText
 10
20.5936687456
 20
63.9209714839
 30
0.0
 40
1.5
 41
0.0
 71
     1
 72
     1
  1
UNLESS OTHERWISE SPECIFIED:
  7
SLDTEXTSTYLE0
 73
     1
 44
1.0
  0
MTEXT
  5
B5
330
1F
100
AcDbEntity
  8
0
  6
Continuous
 62
     7
370
     0
100
AcDbMText
 10
20.5936687456
 20
61.4209715398
 30
0.0
 40
1.5
 41
0.0
 71
     1
 72
     1
  1
DIMENSIONS ARE IN MILLIMETERS
  7
SLDTEXTSTYLE0
 73
     1
 44
1.0
  0
MTEXT
  5
B6
330
1F
100
AcDbEntity
  8
0
  6
Continuous
 62
     7
370
     0
100
AcDbMText
 10
20.5936687456
 20
58.9209715957
 30
0.0
 40
1.5
 41
0.0
 71
     1
 72
     1
  1
SURFACE FINISH:
  7
SLDTEXTSTYLE0
 73
     1
 44
1.0
  0
MTEXT
  5
B7
330
1F
100
AcDbEntity
  8
0
  6
Continuous
 62
     7
370
     0
100
AcDbMText
 10
20.5936687456
 20
56.4209716516
 30
0.0
 40
1.5
 41
0.0
 71
     1
 72
     1
  1
TOLERANCES:
  7
SLDTEXTSTYLE0
 73
     1
 44
1.0
  0
MTEXT
  5
B8
330
1F
100
AcDbEntity
  8
0
  6
Continuous
 62
     7
370
     0
100
AcDbMText
 10
22.2811687456
 20
53.9209717075
 30
0.0
 40
1.5
 41
0.0
 71
     1
 72
     1
  1
LINEAR:
  7
SLDTEXTSTYLE0
 73
     1
 44
1.0
  0
MTEXT
  5
B9
330
1F
100
AcDbEntity
  8
0
  6
Continuous
 62
     7
370
     0
100
AcDbMText
 10
22.2811687456
 20
51.4209717633
 30
0.0
 40
1.5
 41
0.0
 71
     1
 72
     1
  1
ANGULAR:
  7
SLDTEXTSTYLE0
 73
     1
 44
1.0
  0
MTEXT
  5
BA
330
1F
100
AcDbEntity
  8
0
  6
Continuous
 62
     7
370
     0
100
AcDbMText
 10
54.3712921668
 20
63.9192719951
 30
0.0
 40
1.5
 41
0.0
 71
     1
 72
     1
  1
FINISH:
  7
SLDTEXTSTYLE0
 73
     1
 44
1.0
  0
MTEXT
  5
BB
330
1F
100
AcDbEntity
  8
0
  6
Continuous
 62
     7
370
     0
100
AcDbMText
 10
101.3092156863
 20
64.0030912527
 30
0.0
 40
1.5
 41
0.0
 71
     1
 72
     1
  1
DEBURR AND
  7
SLDTEXTSTYLE0
 73
     1
 44
1.0
  0
MTEXT
  5
BC
330
1F
100
AcDbEntity
  8
0
  6
Continuous
 62
     7
370
     0
100
AcDbMText
 10
101.3092156863
 20
61.5030913086
 30
0.0
 40
1.5
 41
0.0
 71
     1
 72
     1
  1
BREAK SHARP
  7
SLDTEXTSTYLE0
 73
     1
 44
1.0
  0
MTEXT
  5
BD
330
1F
100
AcDbEntity
  8
0
  6
Continuous
 62
     7
370
     0
100
AcDbMText
 10
101.3092156863
 20
59.0030913644
 30
0.0
 40
1.5
 41
0.0
 71
     1
 72
     1
  1
EDGES
  7
SLDTEXTSTYLE0
 73
     1
 44
1.0
  0
MTEXT
  5
BE
330
1F
100
AcDbEntity
  8
0
  6
Continuous
 62
     7
370
     0
100
AcDbMText
 10
34.3222392177
 20
46.5014826335
 30
0.0
 40
1.5
 41
0.0
 71
     1
 72
     1
  1
NAME
  7
SLDTEXTSTYLE0
 73
     1
 44
1.0
  0
MTEXT
  5
BF
330
1F
100
AcDbEntity
  8
0
  6
Continuous
 62
     7
370
     0
100
AcDbMText
 10
50.0335875632
 20
46.5617563795
 30
0.0
 40
1.5
 41
0.0
 71
     1
 72
     1
  1
SIGNATURE
  7
SLDTEXTSTYLE0
 73
     1
 44
1.0
  0
MTEXT
  5
C0
330
1F
100
AcDbEntity
  8
0
  6
Continuous
 62
     7
370
     0
100
AcDbMText
 10
67.2147019657
 20
46.5761792212
 30
0.0
 40
1.5
 41
0.0
 71
     1
 72
     1
  1
DATE
  7
SLDTEXTSTYLE0
 73
     1
 44
1.0
  0
MTEXT
  5
C1
330
1F
100
AcDbEntity
  8
0
  6
Continuous
 62
     7
370
     0
100
AcDbMText
 10
75.6458623088
 20
25.9860562892
 30
0.0
 40
1.5
 41
0.0
 71
     1
 72
     1
  1
MATERIAL:
  7
SLDTEXTSTYLE0
 73
     1
 44
1.0
  0
MTEXT
  5
C2
330
1F
100
AcDbEntity
  8
0
  6
Continuous
 62
     7
370
     0
100
AcDbMText
 10
132.6146405229
 20
62.5329935751
 30
0.0
 40
1.5
 41
0.0
 71
     1
 72
     1
  1
DO NOT SCALE DRAWING
  7
SLDTEXTSTYLE0
 73
     1
 44
1.0
  0
MTEXT
  5
C3
330
1F
100
AcDbEntity
  8
0
  6
Continuous
 62
     7
370
     0
100
AcDbMText
 10
173.3275816993
 20
62.3349086805
 30
0.0
 40
1.5
 41
0.0
 71
     1
 72
     1
  1
REVISION
  7
SLDTEXTSTYLE0
 73
     1
 44
1.0
  0
MTEXT
  5
C4
330
1F
100
AcDbEntity
  8
0
  6
Continuous
 62
     7
370
     0
100
AcDbMText
 10
120.090160639
 20
46.5761792212
 30
0.0
 40
1.5
 41
0.0
 71
     1
 72
     1
  1
TITLE:
  7
SLDTEXTSTYLE0
 73
     1
 44
1.0
  0
MTEXT
  5
C5
330
1F
100
AcDbEntity
  8
0
  6
Continuous
 62
     7
370
     0
100
AcDbMText
 10
119.9530022162
 20
25.9860562892
 30
0.0
 40
1.5
 41
0.0
 71
     1
 72
     1
  1
DWG NO.
  7
SLDTEXTSTYLE0
 73
     1
 44
1.0
  0
MTEXT
  5
C6
330
1F
100
AcDbEntity
  8
0
  6
Continuous
 62
     7
370
     0
100
AcDbMText
 10
120.0739661175
 20
12.9000872745
 30
0.0
 40
1.5
 41
0.0
 71
     1
 72
     1
  1
SCALE:1:2
  7
SLDTEXTSTYLE0
 73
     1
 44
1.0
  0
MTEXT
  5
C8
330
1F
100
AcDbEntity
  8
0
  6
Continuous
 62
     7
370
     0
100
AcDbMText
 10
164.4782944278
 20
12.9000872745
 30
0.0
 40
1.5
 41
0.0
 71
     1
 72
     1
  1
SHEET 1 OF 1
  7
SLDTEXTSTYLE2
 73
     1
 44
1.0
  0
MTEXT
  5
C9
330
1F
100
AcDbEntity
  8
0
  6
Continuous
 62
     7
370
     0
100
AcDbMText
 10
190.8711564346
 20
24.406388569
 30
0.0
 40
2.9104166667
 41
0.0
 71
     1
 72
     1
  1
A4
  7
SLDTEXTSTYLE0
 73
     1
 44
1.0
  0
MTEXT
  5
CA
330
1F
100
AcDbEntity
  8
0
  6
Continuous
 62
     7
370
     0
100
AcDbMText
 10
75.6178111281
 20
12.9493119036
 30
0.0
 40
1.4986
 41
0.0
 71
     1
 72
     1
  1
WEIGHT:
  7
SLDTEXTSTYLE0
 73
     1
 44
1.0
  0
MTEXT
  5
CB
330
1F
100
AcDbEntity
  8
0
  6
Continuous
 62
     7
370
     0
100
AcDbMText
 10
154.6470612153
 20
23.6069109673
 30
0.0
 40
6.35
 41
0.0
 71
     2
 72
     1
  1
Aseembly_for_drawings
  7
SLDTEXTSTYLE0
 73
     1
 44
1.0
  0
LINE
  5
CC
330
1F
100
AcDbEntity
  8
0
  6
Continuous
 62
     7
370
    25
100
AcDbLine
 10
136.7026420365
 20
168.6519873311
 30
0.0
 11
122.3095759773
 21
199.7209303719
 31
0.0
  0
LINE
  5
CD
330
1F
100
AcDbEntity
  8
0
  6
Continuous
 62
     7
370
    25
100
AcDbLine
 10
102.602836462
 20
243.4494880959
 30
0.0
 11
92.6459077191
 21
264.9425633519
 31
0.0
  0
LINE
  5
CE
330
1F
100
AcDbEntity
  8
0
  6
Continuous
 62
     7
370
    25
100
AcDbLine
 10
143.3193848866
 20
166.2639845386
 30
0.0
 11
115.4483767344
 21
226.4264795349
 31
0.0
  0
LINE
  5
CF
330
1F
100
AcDbEntity
  8
0
  6
Continuous
 62
     7
370
    25
100
AcDbLine
 10
109.8406042616
 20
238.5314447193
 30
0.0
 11
107.1286728084
 21
244.3854332651
 31
0.0
  0
LINE
  5
D0
330
1F
100
AcDbEntity
  8
0
  6
Continuous
 62
     7
370
    25
100
AcDbLine
 10
119.0778302293
 20
228.107868047
 30
0.0
 11
114.0860078737
 21
238.8832402851
 31
0.0
  0
LINE
  5
D1
330
1F
100
AcDbEntity
  8
0
  6
Continuous
 62
     7
370
    25
100
AcDbLine
 10
73.4729756184
 20
182.6692913434
 30
0.0
 11
73.4669479637
 21
182.6692913434
 31
0.0
  0
LINE
  5
D2
330
1F
100
AcDbEntity
  8
0
  6
Continuous
 62
     7
370
    25
100
AcDbLine
 10
76.7331112112
 20
182.6692913434
 30
0.0
 11
73.4729756184
 21
182.6692913434
 31
0.0
  0
LINE
  5
D3
330
1F
100
AcDbEntity
  8
0
  6
Continuous
 62
     7
370
    25
100
AcDbLine
 10
113.6722259919
 20
182.2692913434
 30
0.0
 11
111.0278253104
 21
182.2692913434
 31
0.0
  0
LINE
  5
D4
330
1F
100
AcDbEntity
  8
0
  6
Continuous
 62
     7
370
    25
100
AcDbLine
 10
108.5363932432
 20
158.2692913434
 30
0.0
 11
79.9992744588
 21
158.2692913434
 31
0.0
  0
LINE
  5
D5
330
1F
100
AcDbEntity
  8
0
  6
Continuous
 62
     7
370
    25
100
AcDbLine
 10
115.9270701817
 20
144.2692913434
 30
0.0
 11
84.8985193301
 21
144.2692913434
 31
0.0
  0
LINE
  5
D6
330
1F
100
AcDbEntity
  8
0
  6
Continuous
 62
     7
370
    25
100
AcDbLine
 10
79.9992744588
 20
182.6692913434
 30
0.0
 11
76.7331112112
 21
182.6692913434
 31
0.0
  0
LINE
  5
D7
330
1F
100
AcDbEntity
  8
0
  6
Continuous
 62
     7
370
    25
100
AcDbLine
 10
71.6063176496
 20
151.7876677453
 30
0.0
 11
71.1336981834
 21
151.7876677453
 31
0.0
  0
LINE
  5
D8
330
1F
100
AcDbEntity
  8
0
  6
Continuous
 62
     7
370
    25
100
AcDbLine
 10
71.1336981834
 20
139.7876677453
 30
0.0
 11
72.7741764311
 21
139.7876677453
 31
0.0
  0
LINE
  5
D9
330
1F
100
AcDbEntity
  8
0
  6
Continuous
 62
     7
370
    25
100
AcDbLine
 10
74.5076989679
 20
119.3954889967
 30
0.0
 11
74.7587751832
 21
119.3954889967
 31
0.0
  0
LINE
  5
DA
330
1F
100
AcDbEntity
  8
0
  6
Continuous
 62
     7
370
    25
100
AcDbLine
 10
90.7270125768
 20
95.0100250904
 30
0.0
 11
114.6928840436
 21
95.0100250904
 31
0.0
  0
LINE
  5
DB
330
1F
100
AcDbEntity
  8
0
  6
Continuous
 62
     7
370
    25
100
AcDbLine
 10
84.5206508685
 20
158.7817256419
 30
0.0
 11
99.2183854824
 21
158.7817256419
 31
0.0
  0
LINE
  5
DC
330
1F
100
AcDbEntity
  8
0
  6
Continuous
 62
     7
370
    25
100
AcDbLine
 10
99.2183854824
 20
174.7817256419
 30
0.0
 11
84.5206508685
 21
174.7817256419
 31
0.0
  0
LINE
  5
DD
330
1F
100
AcDbEntity
  8
0
  6
Continuous
 62
     7
370
    25
100
AcDbLine
 10
99.2183854824
 20
158.7817256419
 30
0.0
 11
108.4865223352
 21
158.7817256419
 31
0.0
  0
LINE
  5
DE
330
1F
100
AcDbEntity
  8
0
  6
Continuous
 62
     7
370
    25
100
AcDbLine
 10
106.9293772932
 20
174.7817256419
 30
0.0
 11
99.2183854824
 21
174.7817256419
 31
0.0
  0
ELLIPSE
  5
DF
330
1F
100
AcDbEntity
  8
0
  6
Continuous
 62
     7
370
    25
100
AcDbEllipse
 10
128.4868520644
 20
172.1127149296
 30
0.0
 11
-138.084942414998
 21
285.545412116563
 31
0.0
210
0.0
220
0.0
230
1.0
 40
0.023016173
 41
4.88852956257444
 42
4.95251136391061
  0
ELLIPSE
  5
E0
330
1F
100
AcDbEntity
  8
0
  6
Continuous
 62
     7
370
    25
100
AcDbEllipse
 10
128.4868520644
 20
172.1127149296
 30
0.0
 11
-138.084942414998
 21
285.545412116563
 31
0.0
210
0.0
220
0.0
230
1.0
 40
0.023016173
 41
1.334693959164175
 42
1.398675760500334
  0
LINE
  5
E1
330
1F
100
AcDbEntity
  8
0
  6
Continuous
 62
     7
370
    25
100
AcDbLine
 10
110.7605374703
 20
225.2781878819
 30
0.0
 11
108.6133460355
 21
223.9982747028
 31
0.0
  0
ELLIPSE
  5
E2
330
1F
100
AcDbEntity
  8
0
  6
Continuous
 62
     7
370
    25
100
AcDbEllipse
 10
128.4868520644
 20
172.1127149296
 30
0.0
 11
-92.0566282766696
 21
190.3636080777175
 31
0.0
210
0.0
220
0.0
230
0.9999999999999999
 40
0.023016173
 41
4.97729473213553
 42
5.058695664991784
  0
LINE
  5
E3
330
1F
100
AcDbEntity
  8
0
  6
Continuous
 62
     7
370
    25
100
AcDbLine
 10
101.3617593771
 20
238.7200920513
 30
0.0
 11
101.3085071866
 21
242.6779550733
 31
0.0
  0
LINE
  5
E4
330
1F
100
AcDbEntity
  8
0
  6
Continuous
 62
     7
370
    25
100
AcDbLine
 10
102.0308837428
 20
243.1085544413
 30
0.0
 11
101.3085071866
 21
242.6779550733
 31
0.0
  0
LINE
  5
E5
330
1F
100
AcDbEntity
  8
0
  6
Continuous
 62
     7
370
    25
100
AcDbLine
 10
100.5089131491
 20
219.1673265661
 30
0.0
 11
98.3617217143
 21
217.887413387
 31
0.0
  0
ARC
  5
E6
330
1F
100
AcDbEntity
  8
0
  6
Continuous
 62
     7
370
    25
100
AcDbCircle
 10
111.5910760187
 20
215.8090800515
 30
0.0
 40
8.713769843671178
100
AcDbArc
 50
98.7797919143
 51
109.9821241098
  0
ELLIPSE
  5
E7
330
1F
100
AcDbEntity
  8
0
  6
Continuous
 62
     7
370
    25
100
AcDbEllipse
 10
128.4868520644
 20
172.1127149296
 30
0.0
 11
-92.0566282766696
 21
190.3636080777175
 31
0.0
210
0.0
220
0.0
230
0.9999999999999999
 40
0.023016173
 41
1.228509658083033
 42
1.309910590939271
  0
LINE
  5
E8
330
1F
100
AcDbEntity
  8
0
  6
Continuous
 62
     7
370
    25
100
AcDbLine
 10
90.5192698855
 20
236.2466295795
 30
0.0
 11
93.4615098659
 21
234.0108549967
 31
0.0
  0
ARC
  5
E9
330
1F
100
AcDbEntity
  8
0
  6
Continuous
 62
     7
370
    25
100
AcDbCircle
 10
89.3578414867
 20
245.9549271126
 30
0.0
 40
9.777523046134572
100
AcDbArc
 50
276.8220180925
 51
287.0932852578
  0
LINE
  5
EA
330
1F
100
AcDbEntity
  8
0
  6
Continuous
 62
     7
370
    25
100
AcDbLine
 10
90.5192698855
 20
236.2466295795
 30
0.0
 11
89.7968933292
 21
235.8160302115
 31
0.0
  0
ELLIPSE
  5
EB
330
1F
100
AcDbEntity
  8
0
  6
Continuous
 62
     7
370
    25
100
AcDbEllipse
 10
128.4868520644
 20
172.1127149295
 30
0.0
 11
-92.05662827666441
 21
190.3636080777071
 31
0.0
210
0.0
220
0.0
230
0.9999999999999999
 40
0.023016173
 41
4.683103845924971
 42
5.07603299517519
  0
LINE
  5
EC
330
1F
100
AcDbEntity
  8
0
  6
Continuous
 62
     7
370
    25
100
AcDbLine
 10
132.0545403861
 20
166.5658665019
 30
0.0
 11
135.5619205372
 21
168.6565706687
 31
0.0
  0
ELLIPSE
  5
ED
330
1F
100
AcDbEntity
  8
0
  6
Continuous
 62
     7
370
    25
100
AcDbEllipse
 10
128.4868520644
 20
172.1127149295
 30
0.0
 11
-15.34277137944387
 21
31.72726801295082
 31
0.0
210
0.0
220
0.0
230
1.0
 40
0.023016173
 41
4.525538053457278
 42
4.582632901244203
  0
LINE
  5
EE
330
1F
100
AcDbEntity
  8
0
  6
Continuous
 62
     7
370
    25
100
AcDbLine
 10
133.6488098596
 20
169.8195900955
 30
0.0
 11
131.1961896876
 21
168.3576147771
 31
0.0
  0
ELLIPSE
  5
EF
330
1F
100
AcDbEntity
  8
0
  6
Continuous
 62
     7
370
    25
100
AcDbEllipse
 10
128.4868520644
 20
172.1127149295
 30
0.0
 11
-69.04247120749896
 21
142.7727060582817
 31
0.0
210
0.0
220
0.0
230
0.9999999999999999
 40
0.023016173
 41
4.685198144368422
 42
5.393738435713628
  0
LINE
  5
F0
330
1F
100
AcDbEntity
  8
0
  6
Continuous
 62
     7
370
    25
100
AcDbLine
 10
89.1983647976
 20
264.2517560477
 30
0.0
 11
87.5533976286
 21
263.2712122896
 31
0.0
  0
ELLIPSE
  5
F1
330
1F
100
AcDbEntity
  8
0
  6
Continuous
 62
     7
370
    25
100
AcDbEllipse
 10
128.4868520644
 20
172.1127149295
 30
0.0
 11
-99.72801396638818
 21
206.2272420841863
 31
0.0
210
0.0
220
0.0
230
0.9999999999999999
 40
0.023016173
 41
5.047089729004849
 42
5.164395689902637
  0
LINE
  5
F2
330
1F
100
AcDbEntity
  8
0
  6
Continuous
 62
     7
370
    25
100
AcDbLine
 10
99.8388637493
 20
241.8019195352
 30
0.0
 11
100.2107106659
 21
242.0235726964
 31
0.0
  0
LWPOLYLINE
  5
F3
330
1F
100
AcDbEntity
  8
0
  6
Continuous
 62
     7
370
    25
100
AcDbPolyline
 90
        3
 70
   128
 43
0.0
 10
101.3870615663
 20
242.2733485002
 10
100.7883664308
 20
242.1122361044
 10
99.8388637493
 20
241.8019195352
  0
ELLIPSE
  5
F4
330
1F
100
AcDbEntity
  8
0
  6
Continuous
 62
     7
370
    25
100
AcDbEllipse
 10
128.4868520644
 20
172.1127149295
 30
0.0
 11
-92.05662827666441
 21
190.3636080777071
 31
0.0
210
0.0
220
0.0
230
0.9999999999999999
 40
0.023016173
 41
1.211172327899656
 42
1.604101477149786
  0
LWPOLYLINE
  5
F5
330
1F
100
AcDbEntity
  8
0
  6
Continuous
 62
     7
370
    25
100
AcDbPolyline
 90
       15
 70
   128
 43
0.0
 10
127.1732331962
 20
163.6561821101
 10
128.0606782747
 20
163.9173181905
 10
129.1021733909
 20
164.2850434167
 10
130.2475455543
 20
164.741642992
 10
131.4416176011
 20
165.2651206864
 10
132.6268662993
 20
165.8302584832
 10
133.7461934727
 20
166.4098314316
 10
134.7456766491
 20
166.9759191817
 10
135.5771667215
 20
167.5012510199
 10
136.2006074833
 20
167.9605196076
 10
136.5859652965
 20
168.331600138
 10
136.7146759321
 20
168.5966161759
 10
136.5805388834
 20
168.7428008375
 10
136.1900160692
 20
168.7631118223
 10
135.5619205372
 20
168.6565706687
  0
ARC
  5
F6
330
1F
100
AcDbEntity
  8
0
  6
Continuous
 62
     7
370
    25
100
AcDbCircle
 10
81.5550356174
 20
272.4104083093
 30
0.0
 40
12.17206895750775
100
AcDbArc
 50
275.3242604106
 51
302.6225435837
  0
ELLIPSE
  5
F7
330
1F
100
AcDbEntity
  8
0
  6
Continuous
 62
     7
370
    25
100
AcDbEllipse
 10
128.4868520644
 20
172.1127149295
 30
0.0
 11
-69.04247120749896
 21
142.7727060582817
 31
0.0
210
0.0
220
0.0
230
0.9999999999999999
 40
0.023016173
 41
0.8934668873613836
 42
1.602007178706335
  0
LWPOLYLINE
  5
F8
330
1F
100
AcDbEntity
  8
0
  6
Continuous
 62
     7
370
    25
100
AcDbPolyline
 90
        9
 70
   128
 43
0.0
 10
130.6806133473
 20
165.746886277
 10
130.9525498359
 20
165.8429259752
 10
131.2606379555
 20
165.9728798234
 10
131.5684689038
 20
166.1213903193
 10
131.83966427
 20
166.2709069994
 10
132.0421751115
 20
166.403760493
 10
132.1520693883
 20
166.5042506274
 10
132.1563601698
 20
166.5605018218
 10
132.0545403861
 20
166.5658665019
  0
LINE
  5
F9
330
1F
100
AcDbEntity
  8
0
  6
Continuous
 62
     7
370
    25
100
AcDbLine
 10
127.1732331962
 20
163.6561821101
 30
0.0
 11
130.6806133473
 21
165.746886277
 31
0.0
  0
ELLIPSE
  5
FA
330
1F
100
AcDbEntity
  8
0
  6
Continuous
 62
     7
370
    25
100
AcDbEllipse
 10
128.4868520644
 20
172.1127149295
 30
0.0
 11
-99.72801396638818
 21
206.2272420841863
 31
0.0
210
0.0
220
0.0
230
0.9999999999999999
 40
0.023016173
 41
1.122809633172231
 42
1.240115594069978
  0
LINE
  5
FB
330
1F
100
AcDbEntity
  8
0
  6
Continuous
 62
     7
370
    25
100
AcDbLine
 10
82.6562768028
 20
260.352101593
 30
0.0
 11
81.0113096338
 21
259.3715578349
 31
0.0
  0
ELLIPSE
  5
FC
330
1F
100
AcDbEntity
  8
0
  6
Continuous
 62
     7
370
    25
100
AcDbEllipse
 10
128.4868520644
 20
172.1127149295
 30
0.0
 11
-15.34277137944387
 21
31.72726801295082
 31
0.0
210
0.0
220
0.0
230
1.0
 40
0.023016173
 41
1.704572421830566
 42
1.761667269617475
  0
LINE
  5
FD
330
1F
100
AcDbEntity
  8
0
  6
Continuous
 62
     7
370
    25
100
AcDbLine
 10
91.6170664061
 20
236.9010119564
 30
0.0
 11
91.9889133227
 21
237.1226651176
 31
0.0
  0
LINE
  5
FE
330
1F
100
AcDbEntity
  8
0
  6
Continuous
 62
     7
370
    25
100
AcDbLine
 10
129.8095158345
 20
167.5310363402
 30
0.0
 11
127.3568956625
 21
166.0690610218
 31
0.0
  0
ARC
  5
FF
330
1F
100
AcDbEntity
  8
0
  6
Continuous
 62
     7
370
    25
100
AcDbCircle
 10
129.3268560341
 20
170.2665474959
 30
0.0
 40
2.777765606767832
100
AcDbArc
 50
280.0064063301
 51
316.2631549619
  0
LWPOLYLINE
  5
100
330
1F
100
AcDbEntity
  8
0
  6
Continuous
 62
     7
370
    25
100
AcDbPolyline
 90
        7
 70
   128
 43
0.0
 10
92.6459077191
 20
264.9425633519
 10
92.6401577162
 20
264.9536046175
 10
92.4079043844
 20
265.0629879388
 10
91.920519687
 20
265.0437799948
 10
91.1999736294
 20
264.8968466284
 10
90.2787465105
 20
264.6288112048
 10
89.1983647976
 20
264.2517560477
  0
LINE
  5
101
330
1F
100
AcDbEntity
  8
0
  6
Continuous
 62
     7
370
    25
100
AcDbLine
 10
91.6170664061
 20
236.9010119564
 30
0.0
 11
92.0739305487
 21
236.9429120062
 31
0.0
  0
LWPOLYLINE
  5
102
330
1F
100
AcDbEntity
  8
0
  6
Continuous
 62
     7
370
    25
100
AcDbPolyline
 90
        3
 70
   128
 43
0.0
 10
101.3495428964
 20
242.3819365924
 10
101.2037075312
 20
242.3408063815
 10
100.2107106659
 20
242.0235726964
  0
LWPOLYLINE
  5
103
330
1F
100
AcDbEntity
  8
0
  6
Continuous
 62
     7
370
    25
100
AcDbPolyline
 90
        7
 70
   128
 43
0.0
 10
107.1286728084
 20
244.3854332651
 10
107.1143992488
 20
244.4116082533
 10
106.8502315629
 20
244.567062399
 10
106.3368011464
 20
244.5990625815
 10
105.5872982423
 20
244.5067867025
 10
104.6209778945
 20
244.2926053682
 10
103.4626652782
 20
243.9620209869
  0
ELLIPSE
  5
104
330
1F
100
AcDbEntity
  8
0
  6
Continuous
 62
     7
370
    25
100
AcDbEllipse
 10
128.4868520644
 20
172.1127149295
 30
0.0
 11
-168.7704851738868
 21
348.9999481424679
 31
0.0
210
0.0
220
0.0
230
1.0
 40
0.023016173
 41
1.378604466829682
 42
1.602686045197027
  0
LWPOLYLINE
  5
105
330
1F
100
AcDbEntity
  8
0
  6
Continuous
 62
     7
370
    25
100
AcDbPolyline
 90
       20
 70
   128
 43
0.0
 10
125.8394240389
 20
157.10261544
 10
127.0069628146
 20
157.434665878
 10
128.3407127394
 20
157.8771181662
 10
129.8056605093
 20
158.4183571462
 10
131.3633486437
 20
159.0441743337
 10
132.9728850627
 20
159.738140916
 10
134.5920165771
 20
160.482039038
 10
136.1782381091
 20
161.2563400529
 10
137.6899085266
 20
162.0407171839
 10
139.0873437965
 20
162.8145791384
 10
140.3338587614
 20
163.5576106659
 10
141.3967301896
 20
164.2503058691
 10
142.2480558188
 20
164.8744802689
 10
142.8654868392
 20
165.4137481787
 10
143.2328145901
 20
165.8539528583
 10
143.3403960656
 20
166.183538153
 10
143.1854070611
 20
166.3938518636
 10
142.771916313
 20
166.4793728817
 10
142.1107786879
 20
166.4378561286
 10
141.2193502226
 20
166.2703914929
  0
ELLIPSE
  5
106
330
1F
100
AcDbEntity
  8
0
  6
Continuous
 62
     7
370
    25
100
AcDbEllipse
 10
128.4868520644
 20
172.1127149295
 30
0.0
 11
-168.7704851738868
 21
348.9999481424679
 31
0.0
210
0.0
220
0.0
230
1.0
 40
0.023016173
 41
4.684519277877731
 42
4.9086008562451
  0
ELLIPSE
  5
107
330
1F
100
AcDbEntity
  8
0
  6
Continuous
 62
     7
370
    25
100
AcDbEllipse
 10
128.4868520644
 20
172.1127149295
 30
0.0
 11
-15.34277137944379
 21
31.72726801295071
 31
0.0
210
0.0
220
0.0
230
1.0
 40
0.023016173
 41
4.379548558877466
 42
4.467812337889452
  0
LINE
  5
108
330
1F
100
AcDbEntity
  8
0
  6
Continuous
 62
     7
370
    25
100
AcDbLine
 10
132.9105447473
 20
164.7727196053
 30
0.0
 11
137.8248937992
 21
167.7020998257
 31
0.0
  0
ELLIPSE
  5
109
330
1F
100
AcDbEntity
  8
0
  6
Continuous
 62
     7
370
    25
100
AcDbEllipse
 10
128.4868520644
 20
172.1127149295
 30
0.0
 11
-122.7421710355504
 21
253.8181441036055
 31
0.0
210
0.0
220
0.0
230
0.9999999999999999
 40
0.023016173
 41
4.683882341078926
 42
4.91056306277476
  0
LINE
  5
10A
330
1F
100
AcDbEntity
  8
0
  6
Continuous
 62
     7
370
    25
100
AcDbLine
 10
110.0490197207
 20
224.8540613089
 30
0.0
 11
110.7605374703
 21
225.2781878819
 31
0.0
  0
ELLIPSE
  5
10B
330
1F
100
AcDbEntity
  8
0
  6
Continuous
 62
     7
370
    25
100
AcDbEllipse
 10
128.4868520644
 20
172.1127149295
 30
0.0
 11
-138.0849424150038
 21
285.5454121165761
 31
0.0
210
0.0
220
0.0
230
0.9999999999999998
 40
0.023016173
 41
4.888529562574549
 42
4.952511363910726
  0
LINE
  5
10C
330
1F
100
AcDbEntity
  8
0
  6
Continuous
 62
     7
370
    25
100
AcDbLine
 10
102.0308837428
 20
243.1085544413
 30
0.0
 11
103.4626652782
 21
243.9620209869
 31
0.0
  0
LINE
  5
10D
330
1F
100
AcDbEntity
  8
0
  6
Continuous
 62
     7
370
    25
100
AcDbLine
 10
134.1899418423
 20
162.0802516284
 30
0.0
 11
141.2193502226
 21
166.2703914929
 31
0.0
  0
LWPOLYLINE
  5
10E
330
1F
100
AcDbEntity
  8
0
  6
Continuous
 62
     7
370
    25
100
AcDbPolyline
 90
        9
 70
   128
 43
0.0
 10
132.8688324192
 20
161.2927553045
 10
133.1278865246
 20
161.3913669335
 10
133.4068783548
 20
161.5135436952
 10
133.6793830677
 20
161.6477135602
 10
133.9195902515
 20
161.7811685669
 10
134.1047485702
 20
161.9012684616
 10
134.2173206667
 20
161.9966379266
 10
134.2466442222
 20
162.0582439982
 10
134.1899418423
 20
162.0802516284
  0
LINE
  5
10F
330
1F
100
AcDbEntity
  8
0
  6
Continuous
 62
     7
370
    25
100
AcDbLine
 10
125.8394240389
 20
157.10261544
 30
0.0
 11
132.8688324192
 21
161.2927553045
 31
0.0
  0
ELLIPSE
  5
110
330
1F
100
AcDbEntity
  8
0
  6
Continuous
 62
     7
370
    25
100
AcDbEllipse
 10
128.4868520644
 20
172.1127149295
 30
0.0
 11
-122.7421710355504
 21
253.8181441036055
 31
0.0
210
0.0
220
0.0
230
0.9999999999999999
 40
0.023016173
 41
1.376642260300018
 42
1.60332298199583
  0
LWPOLYLINE
  5
111
330
1F
100
AcDbEntity
  8
0
  6
Continuous
 62
     7
370
    25
100
AcDbPolyline
 90
        3
 70
   128
 43
0.0
 10
99.0732394638
 20
218.31153996
 10
99.8251932927
 20
218.4561382911
 10
100.7297639537
 20
218.7034147309
  0
ELLIPSE
  5
112
330
1F
100
AcDbEntity
  8
0
  6
Continuous
 62
     7
370
    25
100
AcDbEllipse
 10
128.4868520644
 20
172.1127149295
 30
0.0
 11
-15.34277137944379
 21
31.72726801295071
 31
0.0
210
0.0
220
0.0
230
1.0
 40
0.023016173
 41
1.819392985185277
 42
1.907656764197379
  0
ARC
  5
113
330
1F
100
AcDbEntity
  8
0
  6
Continuous
 62
     7
370
    25
100
AcDbCircle
 10
130.2404131627
 20
168.2846245175
 30
0.0
 40
4.515782517399088
100
AcDbArc
 50
286.9118838499
 51
306.971015299
  0
LINE
  5
114
330
1F
100
AcDbEntity
  8
0
  6
Continuous
 62
     7
370
    25
100
AcDbLine
 10
88.3651117939
 20
234.9625636659
 30
0.0
 11
89.7968933292
 21
235.8160302115
 31
0.0
  0
ELLIPSE
  5
115
330
1F
100
AcDbEntity
  8
0
  6
Continuous
 62
     7
370
    25
100
AcDbEllipse
 10
128.4868520644
 20
172.1127149295
 30
0.0
 11
-138.0849424150038
 21
285.5454121165761
 31
0.0
210
0.0
220
0.0
230
0.9999999999999998
 40
0.023016173
 41
1.334693959164068
 42
1.398675760500225
  0
LINE
  5
116
330
1F
100
AcDbEntity
  8
0
  6
Continuous
 62
     7
370
    25
100
AcDbLine
 10
98.3617217143
 20
217.887413387
 30
0.0
 11
99.0732394638
 21
218.31153996
 31
0.0
  0
LINE
  5
117
330
1F
100
AcDbEntity
  8
0
  6
Continuous
 62
     7
370
    25
100
AcDbLine
 10
126.6397081454
 20
161.0347546148
 30
0.0
 11
131.5540571973
 21
163.9641348352
 31
0.0
  0
LINE
  5
118
330
1F
100
AcDbEntity
  8
0
  6
Continuous
 62
     7
370
    25
100
AcDbLine
 10
156.2740303427
 20
109.7362601618
 30
0.0
 11
141.3161554122
 21
109.7362601618
 31
0.0
  0
LWPOLYLINE
  5
119
330
1F
100
AcDbEntity
  8
0
  6
Continuous
 62
     7
370
    25
100
AcDbPolyline
 90
       13
 70
   128
 43
0.0
 10
156.2740303427
 20
109.7362601618
 10
155.1754707254
 20
106.3747577319
 10
153.9303830805
 20
103.1701914175
 10
152.5461985808
 20
100.1416873303
 10
151.0311785836
 20
97.3073207736
 10
149.3943653239
 20
94.6840083615
 10
147.6455279468
 20
92.2874070539
 10
145.7951042015
 20
90.1318207097
 10
143.8541381445
 20
88.2301147158
 10
141.8342142243
 20
86.5936392013
 10
139.7473881411
 20
85.2321612956
 10
137.6061148936
 20
84.1538068341
 10
135.4231744423
 20
83.3650118602
  0
LINE
  5
11A
330
1F
100
AcDbEntity
  8
0
  6
Continuous
 62
     7
370
    25
100
AcDbLine
 10
78.2653176103
 20
83.3650118602
 30
0.0
 11
135.4231744423
 21
83.3650118602
 31
0.0
  0
LINE
  5
11B
330
1F
100
AcDbEntity
  8
0
  6
Continuous
 62
     7
370
    25
100
AcDbLine
 10
70.0999094915
 20
83.3650118602
 30
0.0
 11
74.9991543628
 21
83.3650118602
 31
0.0
  0
ARC
  5
11C
330
1F
100
AcDbEntity
  8
0
  6
Continuous
 62
     7
370
    25
100
AcDbCircle
 10
64.3234040676
 20
102.6931919159
 30
0.0
 40
20.17291647674974
100
AcDbArc
 50
286.6395341815
 51
301.2749293666
  0
LINE
  5
11D
330
1F
100
AcDbEntity
  8
0
  6
Continuous
 62
     7
370
    25
100
AcDbLine
 10
158.9244611437
 20
82.5025139972
 30
0.0
 11
156.2740303427
 21
109.7362601618
 31
0.0
  0
LINE
  5
11E
330
1F
100
AcDbEntity
  8
0
  6
Continuous
 62
     7
370
    25
100
AcDbLine
 10
136.1542573846
 20
75.8529774888
 30
0.0
 11
158.9244611437
 21
82.5025139972
 31
0.0
  0
LINE
  5
11F
330
1F
100
AcDbEntity
  8
0
  6
Continuous
 62
     7
370
    25
100
AcDbLine
 10
136.1542573846
 20
75.8529774888
 30
0.0
 11
135.4231744423
 21
83.3650118602
 31
0.0
  0
LINE
  5
120
330
1F
100
AcDbEntity
  8
0
  6
Continuous
 62
     7
370
    25
100
AcDbLine
 10
70.8309924338
 20
75.8529774888
 30
0.0
 11
136.1542573846
 21
75.8529774888
 31
0.0
  0
LINE
  5
121
330
1F
100
AcDbEntity
  8
0
  6
Continuous
 62
     7
370
    25
100
AcDbLine
 10
70.8309924338
 20
75.8529774888
 30
0.0
 11
70.0999094915
 21
83.3650118602
 31
0.0
  0
LINE
  5
122
330
1F
100
AcDbEntity
  8
0
  6
Continuous
 62
     7
370
    25
100
AcDbLine
 10
74.4329467445
 20
89.1829168392
 30
0.0
 11
74.9991543628
 21
83.3650118602
 31
0.0
  0
LINE
  5
123
330
1F
100
AcDbEntity
  8
0
  6
Continuous
 62
     7
370
    25
100
AcDbLine
 10
74.4329467445
 20
89.1829168392
 30
0.0
 11
77.699109992
 21
89.1829168392
 31
0.0
  0
LINE
  5
124
330
1F
100
AcDbEntity
  8
0
  6
Continuous
 62
     7
370
    25
100
AcDbLine
 10
77.699109992
 20
89.1829168392
 30
0.0
 11
78.2653176103
 21
83.3650118602
 31
0.0
  0
LINE
  5
125
330
1F
100
AcDbEntity
  8
0
  6
Continuous
 62
     7
370
    25
100
AcDbLine
 10
73.3694094542
 20
100.1109910942
 30
0.0
 11
76.6355727017
 21
100.1109910942
 31
0.0
  0
LINE
  5
126
330
1F
100
AcDbEntity
  8
0
  6
Continuous
 62
     7
370
    25
100
AcDbLine
 10
76.6355727017
 20
100.1109910942
 30
0.0
 11
76.91217737
 21
97.2688186745
 31
0.0
  0
LINE
  5
127
330
1F
100
AcDbEntity
  8
0
  6
Continuous
 62
     7
370
    25
100
AcDbLine
 10
76.91217737
 20
97.2688186745
 30
0.0
 11
73.6460141224
 21
97.2688186745
 31
0.0
  0
LINE
  5
128
330
1F
100
AcDbEntity
  8
0
  6
Continuous
 62
     7
370
    25
100
AcDbLine
 10
73.3694094542
 20
100.1109910942
 30
0.0
 11
73.6460141224
 21
97.2688186745
 31
0.0
  0
LWPOLYLINE
  5
129
330
1F
100
AcDbEntity
  8
0
  6
Continuous
 62
     7
370
    25
100
AcDbPolyline
 90
       12
 70
   128
 43
0.0
 10
77.699109992
 20
97.2688186745
 10
78.1318648028
 20
97.0679547038
 10
78.6777699467
 20
96.5666138333
 10
79.1301669532
 20
95.8376066385
 10
79.4582257139
 20
94.930613755
 10
79.6395895663
 20
93.907445249
 10
79.6618988637
 20
92.8378283632
 10
79.5236332642
 20
91.7946557209
 10
79.2342153401
 20
90.8490178136
 10
78.8133684445
 20
90.065358302
 10
78.2897725979
 20
89.4970822868
 10
77.699109992
 20
89.1829168392
  0
LINE
  5
12A
330
1F
100
AcDbEntity
  8
0
  6
Continuous
 62
     7
370
    25
100
AcDbLine
 10
73.3694094542
 20
100.1109910942
 30
0.0
 11
76.5453115949
 21
101.0384433671
 31
0.0
  0
LWPOLYLINE
  5
12B
330
1F
100
AcDbEntity
  8
0
  6
Continuous
 62
     7
370
    25
100
AcDbPolyline
 90
       12
 70
   128
 43
0.0
 10
74.4329467445
 20
97.2688186745
 10
74.8657015552
 20
97.0679547038
 10
75.4116066992
 20
96.5666138333
 10
75.8640037057
 20
95.8376066385
 10
76.1920624663
 20
94.930613755
 10
76.3734263188
 20
93.907445249
 10
76.3957356161
 20
92.8378283632
 10
76.2574700167
 20
91.7946557209
 10
75.9680520926
 20
90.8490178136
 10
75.547205197
 20
90.065358302
 10
75.0236093504
 20
89.4970822868
 10
74.4329467445
 20
89.1829168392
  0
LWPOLYLINE
  5
12C
330
1F
100
AcDbEntity
  8
0
  6
Continuous
 62
     7
370
    25
100
AcDbPolyline
 90
       13
 70
   128
 43
0.0
 10
114.9952897324
 20
227.8024692026
 10
116.2139437474
 20
228.1165582647
 10
117.2399358155
 20
228.3174532212
 10
118.0548721852
 20
228.4015524732
 10
118.6441428636
 20
228.3673483083
 10
118.9971835404
 20
228.2154539312
 10
119.1076649831
 20
227.9485924696
 10
118.9736065056
 20
227.5715481546
 10
118.5974114776
 20
227.0910805508
 10
117.9858242377
 20
226.5158033714
 10
117.1498091823
 20
225.8560300546
 10
116.1043541982
 20
225.1235888654
 10
116.0643268516
 20
225.0968865886
  0
ARC
  5
12D
330
1F
100
AcDbEntity
  8
0
  6
Continuous
 62
     7
370
    25
100
AcDbCircle
 10
88.1840974562
 20
243.8386750953
 30
0.0
 40
29.08907489685265
100
AcDbArc
 50
281.7884724649
 51
288.3394079493
  0
ELLIPSE
  5
12E
330
1F
100
AcDbEntity
  8
0
  6
Continuous
 62
     7
370
    25
100
AcDbEllipse
 10
128.4868520644
 20
172.1127149295
 30
0.0
 11
-230.1415706916589
 21
475.9090201942634
 31
0.0
210
0.0
220
0.0
230
0.9999999999999999
 40
0.023016173
 41
4.818538273052475
 42
4.841231954675228
  0
LWPOLYLINE
  5
12F
330
1F
100
AcDbEntity
  8
0
  6
Continuous
 62
     7
370
    25
100
AcDbPolyline
 90
        7
 70
   128
 43
0.0
 10
109.7795119044
 20
238.5138116437
 10
111.0456114939
 20
238.8506068273
 10
112.1166476181
 20
239.0716457536
 10
112.9728550029
 20
239.1728492933
 10
113.5984328988
 20
239.1523498008
 10
113.9818366732
 20
239.0105255811
 10
114.0860078737
 20
238.8832402851
  0
ELLIPSE
  5
130
330
1F
100
AcDbEntity
  8
0
  6
Continuous
 62
     7
370
    25
100
AcDbEllipse
 10
128.4868520644
 20
172.1127149295
 30
0.0
 11
-230.1415706916589
 21
475.9090201942634
 31
0.0
210
0.0
220
0.0
230
0.9999999999999999
 40
0.023016173
 41
1.464888824784097
 42
1.468667050022292
  0
LINE
  5
131
330
1F
100
AcDbEntity
  8
0
  6
Continuous
 62
     7
370
    25
100
AcDbLine
 10
106.9508668976
 20
236.8276927609
 30
0.0
 11
109.7795119044
 21
238.5138116437
 31
0.0
  0
LINE
  5
132
330
1F
100
AcDbEntity
  8
0
  6
Continuous
 62
     7
370
    25
100
AcDbLine
 10
114.9952897324
 20
227.8024692026
 30
0.0
 11
112.1768408512
 21
226.122428099
 31
0.0
  0
ELLIPSE
  5
133
330
1F
100
AcDbEntity
  8
0
  6
Continuous
 62
     7
370
    25
100
AcDbEllipse
 10
128.4868520644
 20
172.1127149295
 30
0.0
 11
-168.7704851738873
 21
348.9999481424684
 31
0.0
210
0.0
220
0.0
230
1.0
 40
0.023016173
 41
4.856629622445637
 42
4.887756712278075
  0
LINE
  5
134
330
1F
100
AcDbEntity
  8
0
  6
Continuous
 62
     7
370
    25
100
AcDbLine
 10
96.9454183333
 20
217.0431731699
 30
0.0
 11
94.1269694522
 21
215.3631320663
 31
0.0
  0
LWPOLYLINE
  5
135
330
1F
100
AcDbEntity
  8
0
  6
Continuous
 62
     7
370
    25
100
AcDbPolyline
 90
        6
 70
   128
 43
0.0
 10
112.1768408512
 20
226.122428099
 10
113.2927974486
 20
226.4200302189
 10
114.2009309362
 20
226.5950068095
 10
114.8771236081
 20
226.6427109392
 10
115.303417514
 20
226.5618757084
 10
115.4483767344
 20
226.4264795349
  0
ELLIPSE
  5
136
330
1F
100
AcDbEntity
  8
0
  6
Continuous
 62
     7
370
    25
100
AcDbEllipse
 10
128.4868520644
 20
172.1127149295
 30
0.0
 11
-168.7704851738873
 21
348.9999481424684
 31
0.0
210
0.0
220
0.0
230
1.0
 40
0.023016173
 41
1.399448610796703
 42
1.430575700629133
  0
LINE
  5
137
330
1F
100
AcDbEntity
  8
0
  6
Continuous
 62
     7
370
    25
100
AcDbLine
 10
65.9746503425
 20
176.1556658475
 30
0.0
 11
63.2521681868
 21
204.1297551689
 31
0.0
  0
ELLIPSE
  5
138
330
1F
100
AcDbEntity
  8
0
  6
Continuous
 62
     7
370
    25
100
AcDbEllipse
 10
71.4175763056
 20
204.1297551689
 30
0.0
 11
-2.799755258405341
 21
9.604842129712068
 31
0.0
210
0.0
220
0.0
230
1.0
 40
0.8048308505
 41
0.2058961522583268
 42
1.340360166054645
  0
SPLINE
  5
139
330
1F
100
AcDbEntity
  8
0
  6
Continuous
 62
     7
370
    25
100
AcDbSpline
210
0.0
220
0.0
230
1.0
 70
     8
 71
     3
 72
    12
 73
     8
 74
     0
 42
0.00000001
 43
0.00000001
 40
0.0
 40
0.0
 40
0.0
 40
0.0
 40
0.1644535682139522
 40
0.3775698443087711
 40
0.5907066713169522
 40
0.8047545389792261
 40
1.0
 40
1.0
 40
1.0
 40
1.0
 10
93.26644015833155
 20
217.1535817088104
 30
0.0
 10
93.01665430336227
 20
217.5993477032217
 30
0.0
 10
92.4431695964292
 20
218.6227842813146
 30
0.0
 10
91.13228506281128
 20
219.8238025164673
 30
0.0
 10
89.51663865450105
 20
220.5507188590421
 30
0.0
 10
87.87061661309356
 20
220.6522505397491
 30
0.0
 10
86.9209800851867
 20
220.218307913477
 30
0.0
 10
86.4679743587315
 20
220.0113039821017
 30
0.0
  0
LINE
  5
13A
330
1F
100
AcDbEntity
  8
0
  6
Continuous
 62
     7
370
    25
100
AcDbLine
 10
86.4679743587
 20
220.0113039821
 30
0.0
 11
70.601681602
 21
210.5536110747
 31
0.0
  0
ELLIPSE
  5
13B
330
1F
100
AcDbEntity
  8
0
  6
Continuous
 62
     7
370
    25
100
AcDbEllipse
 10
74.9227124765
 20
201.6123215695
 30
0.0
 11
-2.799755258405341
 21
9.604842129712068
 31
0.0
210
0.0
220
0.0
230
1.0
 40
0.8048308505
 41
0.2058961522583302
 42
1.340360166054639
  0
LINE
  5
13C
330
1F
100
AcDbEntity
  8
0
  6
Continuous
 62
     7
370
    25
100
AcDbLine
 10
66.7573043576
 20
201.6123215695
 30
0.0
 11
68.668578317
 21
181.9735708265
 31
0.0
  0
LINE
  5
13D
330
1F
100
AcDbEntity
  8
0
  6
Continuous
 62
     7
370
    25
100
AcDbLine
 10
68.6746059717
 20
181.9735708265
 30
0.0
 11
68.668578317
 21
181.9735708265
 31
0.0
  0
LINE
  5
13E
330
1F
100
AcDbEntity
  8
0
  6
Continuous
 62
     7
370
    25
100
AcDbLine
 10
68.6746059717
 20
181.9735708265
 30
0.0
 11
69.24081359
 21
176.1556658475
 31
0.0
  0
LINE
  5
13F
330
1F
100
AcDbEntity
  8
0
  6
Continuous
 62
     7
370
    25
100
AcDbLine
 10
65.9746503425
 20
176.1556658475
 30
0.0
 11
69.24081359
 21
176.1556658475
 31
0.0
  0
LINE
  5
140
330
1F
100
AcDbEntity
  8
0
  6
Continuous
 62
     7
370
    25
100
AcDbLine
 10
67.0965454312
 20
213.0710446741
 30
0.0
 11
91.7947030195
 21
227.7932985384
 31
0.0
  0
LINE
  5
141
330
1F
100
AcDbEntity
  8
0
  6
Continuous
 62
     7
370
    25
100
AcDbLine
 10
90.051083306
 20
220.2007050587
 30
0.0
 11
75.8703319329
 21
211.801887569
 31
0.0
  0
LINE
  5
142
330
1F
100
AcDbEntity
  8
0
  6
Continuous
 62
     7
370
    25
100
AcDbLine
 10
70.601681602
 20
210.5536110747
 30
0.0
 11
75.8703319329
 21
211.801887569
 31
0.0
  0
LINE
  5
143
330
1F
100
AcDbEntity
  8
0
  6
Continuous
 62
     7
370
    25
100
AcDbLine
 10
71.864775777
 20
202.8224107039
 30
0.0
 11
66.7573043576
 21
201.6123215695
 31
0.0
  0
ARC
  5
144
330
1F
100
AcDbEntity
  8
0
  6
Continuous
 62
     7
370
    25
100
AcDbCircle
 10
81.1738592113
 20
204.0529596718
 30
0.0
 40
9.390063106751612
100
AcDbArc
 50
124.3885492932
 51
187.5301562772
  0
ARC
  5
145
330
1F
100
AcDbEntity
  8
0
  6
Continuous
 62
     7
370
    25
100
AcDbCircle
 10
81.3894495581
 20
189.2039015609
 30
0.0
 40
8.44594544122634
100
AcDbArc
 50
180.3057437129
 51
230.8349678019
  0
ARC
  5
146
330
1F
100
AcDbEntity
  8
0
  6
Continuous
 62
     7
370
    25
100
AcDbCircle
 10
73.4896098325
 20
165.6180058231
 30
0.0
 40
17.05130057956418
100
AcDbArc
 50
90.0761484333
 51
106.4236183556
  0
LINE
  5
147
330
1F
100
AcDbEntity
  8
0
  6
Continuous
 62
     7
370
    25
100
AcDbLine
 10
71.864775777
 20
202.8224107039
 30
0.0
 11
72.9436243674
 21
189.1588322297
 31
0.0
  0
LINE
  5
148
330
1F
100
AcDbEntity
  8
0
  6
Continuous
 62
     7
370
    25
100
AcDbLine
 10
70.0277462121
 20
168.0697640122
 30
0.0
 11
70.3674072751
 21
164.579673583
 31
0.0
  0
LWPOLYLINE
  5
149
330
1F
100
AcDbEntity
  8
0
  6
Continuous
 62
     7
370
    25
100
AcDbPolyline
 90
       12
 70
   128
 43
0.0
 10
70.0277462121
 20
168.0697640122
 10
70.618408818
 20
168.3839294598
 10
71.1420046646
 20
168.952205475
 10
71.5628515602
 20
169.7358649866
 10
71.8522694843
 20
170.6815028939
 10
71.9905350837
 20
171.7246755362
 10
71.9682257864
 20
172.794292422
 10
71.786861934
 20
173.817460928
 10
71.4588031733
 20
174.7244538115
 10
71.0064061668
 20
175.4534610063
 10
70.4605010228
 20
175.9548018768
 10
70.0277462121
 20
176.1556658475
  0
ARC
  5
14A
330
1F
100
AcDbEntity
  8
0
  6
Continuous
 62
     7
370
    25
100
AcDbCircle
 10
73.4878667095
 20
165.6716007126
 30
0.0
 40
16.99769715355007
100
AcDbArc
 50
90.0501948454
 51
106.4495719434
  0
LINE
  5
14B
330
1F
100
AcDbEntity
  8
0
  6
Continuous
 62
     7
370
    25
100
AcDbLine
 10
70.0277462121
 20
168.0697640122
 30
0.0
 11
66.7615829645
 21
168.0697640122
 31
0.0
  0
LWPOLYLINE
  5
14C
330
1F
100
AcDbEntity
  8
0
  6
Continuous
 62
     7
370
    25
100
AcDbPolyline
 90
       12
 70
   128
 43
0.0
 10
66.7615829646
 20
176.1556658475
 10
67.1943377753
 20
175.9548018768
 10
67.7402429192
 20
175.4534610063
 10
68.1926399257
 20
174.7244538115
 10
68.5206986864
 20
173.817460928
 10
68.7020625388
 20
172.794292422
 10
68.7243718362
 20
171.7246755362
 10
68.5861062368
 20
170.6815028939
 10
68.2966883126
 20
169.7358649866
 10
67.8758414171
 20
168.952205475
 10
67.3522455705
 20
168.3839294598
 10
66.7615829645
 20
168.0697640122
  0
LINE
  5
14D
330
1F
100
AcDbEntity
  8
0
  6
Continuous
 62
     7
370
    25
100
AcDbLine
 10
70.3674072751
 20
164.579673583
 30
0.0
 11
67.1012440275
 21
164.579673583
 31
0.0
  0
LINE
  5
14E
330
1F
100
AcDbEntity
  8
0
  6
Continuous
 62
     7
370
    25
100
AcDbLine
 10
67.1012440275
 20
164.579673583
 30
0.0
 11
66.7615829645
 21
168.0697640122
 31
0.0
  0
LINE
  5
14F
330
1F
100
AcDbEntity
  8
0
  6
Continuous
 62
     7
370
    25
100
AcDbLine
 10
81.5314808579
 20
83.3650118602
 30
0.0
 11
78.2653176103
 21
83.3650118602
 31
0.0
  0
ARC
  5
150
330
1F
100
AcDbEntity
  8
0
  6
Continuous
 62
     7
370
    25
100
AcDbCircle
 10
76.7493893857
 20
165.6620340281
 30
0.0
 40
17.00726510544811
100
AcDbArc
 50
90.0548395542
 51
106.4449272346
  0
LINE
  5
151
330
1F
100
AcDbEntity
  8
0
  6
Continuous
 62
     7
370
    25
100
AcDbLine
 10
68.668578317
 20
181.9735708265
 30
0.0
 11
71.9347415646
 21
181.9735708265
 31
0.0
  0
ARC
  5
152
330
1F
100
AcDbEntity
  8
0
  6
Continuous
 62
     7
370
    25
100
AcDbCircle
 10
73.4832261381
 20
165.6620340281
 30
0.0
 40
17.00726510544805
100
AcDbArc
 50
90.0548395542
 51
106.4449272346
  0
LINE
  5
153
330
1F
100
AcDbEntity
  8
0
  6
Continuous
 62
     7
370
    25
100
AcDbLine
 10
80.9652732396
 20
89.1829168392
 30
0.0
 11
81.5314808579
 21
83.3650118602
 31
0.0
  0
LWPOLYLINE
  5
154
330
1F
100
AcDbEntity
  8
0
  6
Continuous
 62
     7
370
    25
100
AcDbPolyline
 90
       12
 70
   128
 43
0.0
 10
80.9652732396
 20
89.1829168392
 10
81.5559358455
 20
89.4970822868
 10
82.0795316921
 20
90.065358302
 10
82.5003785877
 20
90.8490178136
 10
82.7897965118
 20
91.7946557209
 10
82.9280621112
 20
92.8378283632
 10
82.9057528138
 20
93.907445249
 10
82.7243889614
 20
94.930613755
 10
82.3963302008
 20
95.8376066385
 10
81.9439331943
 20
96.5666138333
 10
81.3980280503
 20
97.0679547038
 10
80.9652732396
 20
97.2688186745
  0
LINE
  5
155
330
1F
100
AcDbEntity
  8
0
  6
Continuous
 62
     7
370
    25
100
AcDbLine
 10
78.2847378914
 20
116.7259936967
 30
0.0
 11
80.1783406175
 21
97.2688186745
 31
0.0
  0
LWPOLYLINE
  5
156
330
1F
100
AcDbEntity
  8
0
  6
Continuous
 62
     7
370
    25
100
AcDbPolyline
 90
       14
 70
   128
 43
0.0
 10
78.0424317354
 20
119.2157415313
 10
78.3298120713
 20
119.8441028553
 10
78.7321820075
 20
120.2401382804
 10
79.1909055666
 20
120.3461349359
 10
79.6391345533
 20
120.1466462962
 10
80.0115501098
 20
119.6707431498
 10
80.2538814069
 20
118.9877772141
 10
80.3308143441
 20
118.1972747492
 10
80.2311377507
 20
117.4144329416
 10
79.9693771516
 20
116.7533326163
 10
79.5836780123
 20
116.3103136341
 10
79.1302469324
 20
116.1499356169
 10
78.6751608527
 20
116.2955698975
 10
78.2847378914
 20
116.7259936967
  0
LINE
  5
157
330
1F
100
AcDbEntity
  8
0
  6
Continuous
 62
     7
370
    25
100
AcDbLine
 10
75.423790687
 20
146.1228411554
 30
0.0
 11
78.0424317354
 21
119.2157415313
 31
0.0
  0
ARC
  5
158
330
1F
100
AcDbEntity
  8
0
  6
Continuous
 62
     7
370
    25
100
AcDbCircle
 10
72.3008085421
 20
147.0755723697
 30
0.0
 40
3.265074921652337
100
AcDbArc
 50
343.0345736083
 51
28.0826456133
  0
LINE
  5
159
330
1F
100
AcDbEntity
  8
0
  6
Continuous
 62
     7
370
    25
100
AcDbLine
 10
73.2878818049
 20
168.0697640122
 30
0.0
 11
75.181484531
 21
148.61258899
 31
0.0
  0
LWPOLYLINE
  5
15A
330
1F
100
AcDbEntity
  8
0
  6
Continuous
 62
     7
370
    25
100
AcDbPolyline
 90
       12
 70
   128
 43
0.0
 10
73.2878818049
 20
168.0697640122
 10
73.8785444108
 20
168.3839294598
 10
74.4021402574
 20
168.952205475
 10
74.822987153
 20
169.7358649866
 10
75.1124050771
 20
170.6815028939
 10
75.2506706766
 20
171.7246755362
 10
75.2283613792
 20
172.794292422
 10
75.0469975268
 20
173.817460928
 10
74.7189387661
 20
174.7244538115
 10
74.2665417596
 20
175.4534610063
 10
73.7206366157
 20
175.9548018768
 10
73.2878818049
 20
176.1556658475
  0
LINE
  5
15B
330
1F
100
AcDbEntity
  8
0
  6
Continuous
 62
     7
370
    25
100
AcDbLine
 10
71.9347415646
 20
181.9735708265
 30
0.0
 11
72.5009491829
 21
176.1556658475
 31
0.0
  0
LINE
  5
15C
330
1F
100
AcDbEntity
  8
0
  6
Continuous
 62
     7
370
    25
100
AcDbLine
 10
75.181484531
 20
148.61258899
 30
0.0
 11
71.9153212834
 21
148.61258899
 31
0.0
  0
LINE
  5
15D
330
1F
100
AcDbEntity
  8
0
  6
Continuous
 62
     7
370
    25
100
AcDbLine
 10
70.0217185574
 20
168.0697640122
 30
0.0
 11
73.2878818049
 21
168.0697640122
 31
0.0
  0
LINE
  5
15E
330
1F
100
AcDbEntity
  8
0
  6
Continuous
 62
     7
370
    25
100
AcDbLine
 10
70.0217185574
 20
168.0697640122
 30
0.0
 11
71.9153212834
 21
148.61258899
 31
0.0
  0
LINE
  5
15F
330
1F
100
AcDbEntity
  8
0
  6
Continuous
 62
     7
370
    25
100
AcDbLine
 10
78.0424317354
 20
119.2157415313
 30
0.0
 11
74.7762684879
 21
119.2157415313
 31
0.0
  0
LINE
  5
160
330
1F
100
AcDbEntity
  8
0
  6
Continuous
 62
     7
370
    25
100
AcDbLine
 10
72.1576274395
 20
146.1228411554
 30
0.0
 11
75.423790687
 21
146.1228411554
 31
0.0
  0
LINE
  5
161
330
1F
100
AcDbEntity
  8
0
  6
Continuous
 62
     7
370
    25
100
AcDbLine
 10
72.1576274395
 20
146.1228411554
 30
0.0
 11
74.7762684879
 21
119.2157415313
 31
0.0
  0
LINE
  5
162
330
1F
100
AcDbEntity
  8
0
  6
Continuous
 62
     7
370
    25
100
AcDbLine
 10
72.5009491829
 20
176.1556658475
 30
0.0
 11
69.2347859353
 21
176.1556658475
 31
0.0
  0
LINE
  5
163
330
1F
100
AcDbEntity
  8
0
  6
Continuous
 62
     7
370
    25
100
AcDbLine
 10
68.668578317
 20
181.9735708265
 30
0.0
 11
69.2347859353
 21
176.1556658475
 31
0.0
  0
LWPOLYLINE
  5
164
330
1F
100
AcDbEntity
  8
0
  6
Continuous
 62
     7
370
    25
100
AcDbPolyline
 90
       12
 70
   128
 43
0.0
 10
70.0217185574
 20
168.0697640122
 10
70.6123811633
 20
168.3839294598
 10
71.1359770099
 20
168.952205475
 10
71.5568239055
 20
169.7358649866
 10
71.8462418296
 20
170.6815028939
 10
71.984507429
 20
171.7246755362
 10
71.9621981317
 20
172.794292422
 10
71.7808342792
 20
173.817460928
 10
71.4527755186
 20
174.7244538115
 10
71.0003785121
 20
175.4534610063
 10
70.4544733681
 20
175.9548018768
 10
70.0217185574
 20
176.1556658475
  0
LINE
  5
165
330
1F
100
AcDbEntity
  8
0
  6
Continuous
 62
     7
370
    25
100
AcDbLine
 10
75.0185746439
 20
116.7259936967
 30
0.0
 11
78.2847378914
 21
116.7259936967
 31
0.0
  0
LINE
  5
166
330
1F
100
AcDbEntity
  8
0
  6
Continuous
 62
     7
370
    25
100
AcDbLine
 10
80.1783406175
 20
97.2688186745
 30
0.0
 11
76.91217737
 21
97.2688186745
 31
0.0
  0
LINE
  5
167
330
1F
100
AcDbEntity
  8
0
  6
Continuous
 62
     7
370
    25
100
AcDbLine
 10
75.0185746439
 20
116.7259936967
 30
0.0
 11
76.91217737
 21
97.2688186745
 31
0.0
  0
ARC
  5
168
330
1F
100
AcDbEntity
  8
0
  6
Continuous
 62
     7
370
    25
100
AcDbCircle
 10
69.0346452946
 20
147.0755723697
 30
0.0
 40
3.265074921652223
100
AcDbArc
 50
343.0345736083
 51
28.0826456133
  0
ARC
  5
169
330
1F
100
AcDbEntity
  8
0
  6
Continuous
 62
     7
370
    25
100
AcDbCircle
 10
73.9430417379
 20
118.2496929534
 30
0.0
 40
3.138519090869461
100
AcDbArc
 50
330.9558446396
 51
17.9269361387
  0
LINE
  5
16A
330
1F
100
AcDbEntity
  8
0
  6
Continuous
 62
     7
370
    25
100
AcDbLine
 10
77.699109992
 20
89.1829168392
 30
0.0
 11
80.9652732396
 21
89.1829168392
 31
0.0
  0
LWPOLYLINE
  5
16B
330
1F
100
AcDbEntity
  8
0
  6
Continuous
 62
     7
370
    25
100
AcDbPolyline
 90
       12
 70
   128
 43
0.0
 10
77.699109992
 20
89.1829168392
 10
78.2897725979
 20
89.4970822868
 10
78.8133684445
 20
90.065358302
 10
79.2342153401
 20
90.8490178136
 10
79.5236332642
 20
91.7946557209
 10
79.6618988637
 20
92.8378283632
 10
79.6395895663
 20
93.907445249
 10
79.4582257139
 20
94.930613755
 10
79.1301669532
 20
95.8376066385
 10
78.6777699467
 20
96.5666138333
 10
78.1318648028
 20
97.0679547038
 10
77.699109992
 20
97.2688186745
  0
LINE
  5
16C
330
1F
100
AcDbEntity
  8
0
  6
Continuous
 62
     7
370
    25
100
AcDbLine
 10
93.9292699292
 20
140.5579760607
 30
0.0
 11
110.2600861669
 21
140.5579760607
 31
0.0
  0
LINE
  5
16D
330
1F
100
AcDbEntity
  8
0
  6
Continuous
 62
     7
370
    25
100
AcDbLine
 10
111.7955644539
 20
124.7806066261
 30
0.0
 11
95.4647482162
 21
124.7806066261
 31
0.0
  0
LINE
  5
16E
330
1F
100
AcDbEntity
  8
0
  6
Continuous
 62
     7
370
    25
100
AcDbLine
 10
111.7955644539
 20
124.7806066261
 30
0.0
 11
110.2600861669
 21
140.5579760607
 31
0.0
  0
LINE
  5
16F
330
1F
100
AcDbEntity
  8
0
  6
Continuous
 62
     7
370
    25
100
AcDbLine
 10
95.4647482162
 20
124.7806066261
 30
0.0
 11
93.9292699292
 21
140.5579760607
 31
0.0
  0
LWPOLYLINE
  5
170
330
1F
100
AcDbEntity
  8
0
  6
Continuous
 62
     7
370
    25
100
AcDbPolyline
 90
       27
 70
   128
 43
0.0
 10
114.0461092802
 20
151.9965689007
 10
115.4046995402
 20
152.2483926841
 10
116.7709071404
 20
152.2147090817
 10
118.1248096976
 20
151.8960092762
 10
119.4466642638
 20
151.2969406284
 10
120.7171952228
 20
150.4262389083
 10
121.9178753723
 20
149.2966009074
 10
123.031196092
 20
147.9244992917
 10
124.0409226589
 20
146.3299423924
 10
124.9323309858
 20
144.5361824397
 10
125.6924223321
 20
142.5693764928
 10
126.3101128544
 20
140.4582050115
 10
126.7763952339
 20
138.2334536297
 10
127.0844700237
 20
135.9275642324
 10
127.2298447994
 20
133.5741618794
 10
127.2103996697
 20
131.2075644764
 10
127.0264181881
 20
128.8622823427
 10
126.680583219
 20
126.5725149728
 10
126.1779378151
 20
124.3716523311
 10
125.5258116781
 20
122.2917879509
 10
124.7337142756
 20
120.3632509383
 10
123.8131961714
 20
118.6141637055
 10
122.7776805923
 20
117.0700318831
 10
121.6422676871
 20
115.7533723901
 10
120.4235143328
 20
114.6833850868
 10
119.1391926977
 20
113.8756727974
 10
117.8080310832
 20
113.342013786
  0
LINE
  5
171
330
1F
100
AcDbEntity
  8
0
  6
Continuous
 62
     7
370
    25
100
AcDbLine
 10
114.0461092802
 20
151.9965689007
 30
0.0
 11
111.1670874922
 21
181.5791365906
 31
0.0
  0
LWPOLYLINE
  5
172
330
1F
100
AcDbEntity
  8
0
  6
Continuous
 62
     7
370
    25
100
AcDbPolyline
 90
        3
 70
   128
 43
0.0
 10
111.1670874922
 20
181.5791365906
 10
113.290405497
 20
182.0585561456
 10
113.7420035444
 20
182.1246585637
  0
LWPOLYLINE
  5
173
330
1F
100
AcDbEntity
  8
0
  6
Continuous
 62
     7
370
    25
100
AcDbPolyline
 90
       29
 70
   128
 43
0.0
 10
138.749711694
 20
162.6226287557
 10
139.3006945256
 20
161.3193493501
 10
140.4713225439
 20
158.2135142382
 10
141.5046891469
 20
154.9648254701
 10
142.3950153294
 20
151.5914510313
 10
143.1373220263
 20
148.1122562
 10
143.7274579573
 20
144.5466980449
 10
144.162122843
 20
140.9147166137
 10
144.438885861
 20
137.2366234197
 10
144.5561992403
 20
133.532987852
 10
144.5134069168
 20
129.8245221431
 10
144.3107482026
 20
126.1319655376
 10
143.9493564474
 20
122.4759683097
 10
143.4312527005
 20
118.876976279
 10
142.7593344083
 20
115.3551164688
 10
141.9373592103
 20
111.9300845479
 10
140.9699239254
 20
108.6210346839
 10
139.8624388439
 20
105.446472426
 10
138.6210974718
 20
102.4241512142
 10
137.2528418936
 20
99.5709730945
 10
135.7653239494
 20
96.9028941963
 10
134.166862443
 20
94.4348354992
 10
132.4663966196
 20
92.1805993886
 10
130.6734361737
 20
90.152792467
 10
128.7980080675
 20
88.3627550535
 10
126.8506004557
 20
86.8204977633
 10
124.8421040316
 20
85.5346455248
 10
122.783751122
 20
84.5123893454
 10
120.6870528712
 20
83.7594460961
  0
LINE
  5
174
330
1F
100
AcDbEntity
  8
0
  6
Continuous
 62
     7
370
    25
100
AcDbLine
 10
120.6870528712
 20
83.7594460961
 30
0.0
 11
117.8080310832
 21
113.342013786
 31
0.0
  0
LINE
  5
175
330
1F
100
AcDbEntity
  8
0
  6
Continuous
 62
     7
370
    25
100
AcDbLine
 10
111.1670874922
 20
181.5791365906
 30
0.0
 11
106.2678426209
 21
181.5791365906
 31
0.0
  0
ARC
  5
176
330
1F
100
AcDbEntity
  8
0
  6
Continuous
 62
     7
370
    25
100
AcDbCircle
 10
111.0439732595
 20
165.3980920866
 30
0.0
 40
16.87120698463521
100
AcDbArc
 50
90.0548395542
 51
106.4449272346
  0
LINE
  5
177
330
1F
100
AcDbEntity
  8
0
  6
Continuous
 62
     7
370
    25
100
AcDbLine
 10
115.7878079999
 20
83.7594460961
 30
0.0
 11
120.6870528712
 21
83.7594460961
 31
0.0
  0
LINE
  5
178
330
1F
100
AcDbEntity
  8
0
  6
Continuous
 62
     7
370
    25
100
AcDbLine
 10
83.3468926498
 20
148.61258899
 30
0.0
 11
78.4476477785
 21
148.61258899
 31
0.0
  0
LINE
  5
179
330
1F
100
AcDbEntity
  8
0
  6
Continuous
 62
     7
370
    25
100
AcDbLine
 10
77.5425091997
 20
157.9130824387
 30
0.0
 11
78.4476477785
 21
148.61258899
 31
0.0
  0
LINE
  5
17A
330
1F
100
AcDbEntity
  8
0
  6
Continuous
 62
     7
370
    25
100
AcDbLine
 10
108.5710600513
 20
157.9130824387
 30
0.0
 11
77.5425091997
 21
157.9130824387
 31
0.0
  0
LINE
  5
17B
330
1F
100
AcDbEntity
  8
0
  6
Continuous
 62
     7
370
    25
100
AcDbLine
 10
83.0175584286
 20
151.9965689007
 30
0.0
 11
114.0461092802
 21
151.9965689007
 31
0.0
  0
LINE
  5
17C
330
1F
100
AcDbEntity
  8
0
  6
Continuous
 62
     7
370
    25
100
AcDbLine
 10
83.3468926498
 20
148.61258899
 30
0.0
 11
83.0175584286
 21
151.9965689007
 31
0.0
  0
LINE
  5
17D
330
1F
100
AcDbEntity
  8
0
  6
Continuous
 62
     7
370
    25
100
AcDbLine
 10
106.2678426209
 20
181.5791365906
 30
0.0
 11
108.5710600513
 21
157.9130824387
 31
0.0
  0
ARC
  5
17E
330
1F
100
AcDbEntity
  8
0
  6
Continuous
 62
     7
370
    25
100
AcDbCircle
 10
81.984049773
 20
140.2490218513
 30
0.0
 40
12.68861753547706
100
AcDbArc
 50
18.4719663763
 51
67.7943755391
  0
ARC
  5
17F
330
1F
100
AcDbEntity
  8
0
  6
Continuous
 62
     7
370
    25
100
AcDbCircle
 10
82.093735801
 20
125.0109089096
 30
0.0
 40
12.57455026129837
100
AcDbArc
 50
291.8783486737
 51
342.5049198367
  0
LINE
  5
180
330
1F
100
AcDbEntity
  8
0
  6
Continuous
 62
     7
370
    25
100
AcDbLine
 10
117.8080310832
 20
113.342013786
 30
0.0
 11
86.7794802316
 21
113.342013786
 31
0.0
  0
LWPOLYLINE
  5
181
330
1F
100
AcDbEntity
  8
0
  6
Continuous
 62
     7
370
    25
100
AcDbPolyline
 90
        3
 70
   128
 43
0.0
 10
77.5425091997
 20
157.9130824387
 10
79.0792536374
 20
158.2196364427
 10
79.9992744588
 20
158.2692913434
  0
LINE
  5
182
330
1F
100
AcDbEntity
  8
0
  6
Continuous
 62
     7
370
    25
100
AcDbLine
 10
82.4560397178
 20
107.425500248
 30
0.0
 11
113.4845905695
 21
107.425500248
 31
0.0
  0
LINE
  5
183
330
1F
100
AcDbEntity
  8
0
  6
Continuous
 62
     7
370
    25
100
AcDbLine
 10
86.2078398543
 20
119.2157415313
 30
0.0
 11
81.3085949829
 21
119.2157415313
 31
0.0
  0
LINE
  5
184
330
1F
100
AcDbEntity
  8
0
  6
Continuous
 62
     7
370
    25
100
AcDbLine
 10
80.7670136022
 20
124.7806066261
 30
0.0
 11
81.3085949829
 21
119.2157415313
 31
0.0
  0
LINE
  5
185
330
1F
100
AcDbEntity
  8
0
  6
Continuous
 62
     7
370
    25
100
AcDbLine
 10
111.7955644539
 20
124.7806066261
 30
0.0
 11
80.7670136022
 21
124.7806066261
 31
0.0
  0
LINE
  5
186
330
1F
100
AcDbEntity
  8
0
  6
Continuous
 62
     7
370
    25
100
AcDbLine
 10
79.2315353153
 20
140.5579760607
 30
0.0
 11
110.2600861669
 21
140.5579760607
 31
0.0
  0
LINE
  5
187
330
1F
100
AcDbEntity
  8
0
  6
Continuous
 62
     7
370
    25
100
AcDbLine
 10
78.6899539346
 20
146.1228411554
 30
0.0
 11
79.2315353153
 21
140.5579760607
 31
0.0
  0
LINE
  5
188
330
1F
100
AcDbEntity
  8
0
  6
Continuous
 62
     7
370
    25
100
AcDbLine
 10
78.6899539346
 20
146.1228411554
 30
0.0
 11
83.5891988059
 21
146.1228411554
 31
0.0
  0
LINE
  5
189
330
1F
100
AcDbEntity
  8
0
  6
Continuous
 62
     7
370
    25
100
AcDbLine
 10
83.785297572
 20
144.1078841834
 30
0.0
 11
83.5891988059
 21
146.1228411554
 31
0.0
  0
LINE
  5
18A
330
1F
100
AcDbEntity
  8
0
  6
Continuous
 62
     7
370
    25
100
AcDbLine
 10
114.8138484237
 20
144.1078841834
 30
0.0
 11
83.785297572
 21
144.1078841834
 31
0.0
  0
LINE
  5
18B
330
1F
100
AcDbEntity
  8
0
  6
Continuous
 62
     7
370
    25
100
AcDbLine
 10
117.0402919398
 20
121.2306985033
 30
0.0
 11
114.8138484237
 21
144.1078841834
 31
0.0
  0
LINE
  5
18C
330
1F
100
AcDbEntity
  8
0
  6
Continuous
 62
     7
370
    25
100
AcDbLine
 10
86.0117410881
 20
121.2306985033
 30
0.0
 11
117.0402919398
 21
121.2306985033
 31
0.0
  0
LINE
  5
18D
330
1F
100
AcDbEntity
  8
0
  6
Continuous
 62
     7
370
    25
100
AcDbLine
 10
86.2078398543
 20
119.2157415313
 30
0.0
 11
86.0117410881
 21
121.2306985033
 31
0.0
  0
LWPOLYLINE
  5
18E
330
1F
100
AcDbEntity
  8
0
  6
Continuous
 62
     7
370
    25
100
AcDbPolyline
 90
       21
 70
   128
 43
0.0
 10
114.8138484237
 20
144.1078841834
 10
115.8605469776
 20
144.2687189634
 10
116.9088835535
 20
144.143937339
 10
117.9330446257
 20
143.7366118481
 10
118.9078119497
 20
143.056772196
 10
119.8091835189
 20
142.1211582913
 10
120.6149645737
 20
140.9528080533
 10
121.3053141103
 20
139.5804901426
 10
121.8632334321
 20
138.0379955804
 10
122.2749847136
 20
136.3633057022
 10
122.5304292719
 20
134.5976569308
 10
122.623277214
 20
132.7845253987
 10
122.5512423156
 20
130.9685564218
 10
122.3160983148
 20
129.194465183
 10
121.9236352375
 20
127.5059356966
 10
121.383516827
 20
125.9445451624
 10
120.7090425913
 20
124.5487401973
 10
119.9168203243
 20
123.352890152
 10
119.0263571676
 20
122.3864408234
 10
118.0595792794
 20
121.6731894015
 10
117.0402919398
 20
121.2306985033
  0
LWPOLYLINE
  5
18F
330
1F
100
AcDbEntity
  8
0
  6
Continuous
 62
     7
370
    25
100
AcDbPolyline
 90
        3
 70
   128
 43
0.0
 10
83.785297572
 20
144.1078841834
 10
84.8319961259
 20
144.2687189634
 10
84.8985193301
 20
144.2692913434
  0
LINE
  5
190
330
1F
100
AcDbEntity
  8
0
  6
Continuous
 62
     7
370
    25
100
AcDbLine
 10
81.550901139
 20
116.7259936967
 30
0.0
 11
82.4560397178
 21
107.425500248
 31
0.0
  0
LINE
  5
191
330
1F
100
AcDbEntity
  8
0
  6
Continuous
 62
     7
370
    25
100
AcDbLine
 10
81.550901139
 20
116.7259936967
 30
0.0
 11
86.4501460103
 21
116.7259936967
 31
0.0
  0
LINE
  5
192
330
1F
100
AcDbEntity
  8
0
  6
Continuous
 62
     7
370
    25
100
AcDbLine
 10
86.7794802316
 20
113.342013786
 30
0.0
 11
86.4501460103
 21
116.7259936967
 31
0.0
  0
LINE
  5
193
330
1F
100
AcDbEntity
  8
0
  6
Continuous
 62
     7
370
    25
100
AcDbLine
 10
113.4845905695
 20
107.425500248
 30
0.0
 11
115.7878079999
 21
83.7594460961
 31
0.0
  0
LWPOLYLINE
  5
194
330
1F
100
AcDbEntity
  8
0
  6
Continuous
 62
     7
370
    25
100
AcDbPolyline
 90
        3
 70
   128
 43
0.0
 10
87.9322122345
 20
145.2090844326
 10
88.1315659861
 20
144.5189081211
 10
88.2601242413
 20
144.2692913434
  0
LWPOLYLINE
  5
195
330
1F
100
AcDbEntity
  8
0
  6
Continuous
 62
     7
370
    25
100
AcDbPolyline
 90
       14
 70
   128
 43
0.0
 10
89.9350678486
 20
144.2692913434
 10
90.0664416592
 20
144.5253665957
 10
90.2642584299
 20
145.2168686335
 10
90.3045109808
 20
145.9854602543
 10
90.1817629818
 20
146.7273389008
 10
89.9125922305
 20
147.3423097508
 10
89.5333517283
 20
147.7473175834
 10
89.0952600064
 20
147.8876638465
 10
88.6574837794
 20
147.7443939997
 10
88.2791471527
 20
147.3368574297
 10
88.011346584
 20
146.7200942084
 10
87.8902500242
 20
145.9774016265
 10
87.9322122345
 20
145.2090844326
 10
87.9322122345
 20
145.2090844326
  0
LWPOLYLINE
  5
196
330
1F
100
AcDbEntity
  8
0
  6
Continuous
 62
     7
370
    25
100
AcDbPolyline
 90
       14
 70
   128
 43
0.0
 10
86.4501460103
 20
116.7259936967
 10
86.8405689715
 20
116.2955698975
 10
87.2956550512
 20
116.1499356169
 10
87.7490861311
 20
116.3103136341
 10
88.1347852705
 20
116.7533326163
 10
88.3965458696
 20
117.4144329415
 10
88.4962224629
 20
118.1972747492
 10
88.4192895258
 20
118.9877772141
 10
88.1769582287
 20
119.6707431498
 10
87.8045426722
 20
120.1466462962
 10
87.3563136855
 20
120.3461349359
 10
86.8975901263
 20
120.2401382804
 10
86.4952201902
 20
119.8441028553
 10
86.2078398543
 20
119.2157415313
  0
ARC
  5
197
330
1F
100
AcDbEntity
  8
0
  6
Continuous
 62
     7
370
    25
100
AcDbCircle
 10
80.466216661
 20
147.0755723697
 30
0.0
 40
3.26507492165033
100
AcDbArc
 50
343.0345736083
 51
28.0826456135
  0
ARC
  5
198
330
1F
100
AcDbEntity
  8
0
  6
Continuous
 62
     7
370
    25
100
AcDbCircle
 10
75.5669717897
 20
147.0755723697
 30
0.0
 40
3.265074921650267
100
AcDbArc
 50
343.0345736083
 51
28.0826456135
  0
ARC
  5
199
330
1F
100
AcDbEntity
  8
0
  6
Continuous
 62
     7
370
    25
100
AcDbCircle
 10
80.4183483863
 20
118.2552422141
 30
0.0
 40
3.191144199910498
100
AcDbArc
 50
331.3657660507
 51
17.5170147275
  0
LINE
  5
19A
330
1F
100
AcDbEntity
  8
0
  6
Continuous
 62
     7
370
    25
100
AcDbLine
 10
95.4647482162
 20
124.7806066261
 30
0.0
 11
79.1339319784
 21
124.7806066261
 31
0.0
  0
LINE
  5
19B
330
1F
100
AcDbEntity
  8
0
  6
Continuous
 62
     7
370
    25
100
AcDbLine
 10
79.1339319784
 20
124.7806066261
 30
0.0
 11
77.5984536915
 21
140.5579760607
 31
0.0
  0
LINE
  5
19C
330
1F
100
AcDbEntity
  8
0
  6
Continuous
 62
     7
370
    25
100
AcDbLine
 10
77.5984536915
 20
140.5579760607
 30
0.0
 11
93.9292699292
 21
140.5579760607
 31
0.0
  0
LWPOLYLINE
  5
19D
330
1F
100
AcDbEntity
  8
0
  6
Continuous
 62
     7
370
    25
100
AcDbPolyline
 90
       13
 70
   128
 43
0.0
 10
86.875868351
 20
107.425500248
 10
86.5022185019
 20
106.2413931294
 10
86.2313819588
 20
104.84162949
 10
86.1136387244
 20
103.3794927596
 10
86.1529984035
 20
101.9047742508
 10
86.3481206493
 20
100.4676937337
 10
86.6923608079
 20
99.1171892619
 10
87.1739961933
 20
97.8992506452
 10
87.7766252904
 20
96.8553533225
 10
88.4797262879
 20
96.0210459652
 10
89.2593559246
 20
95.4247399097
 10
90.0889648484
 20
95.0867416434
 10
90.7270125768
 20
95.0100250904
  0
LWPOLYLINE
  5
19E
330
1F
100
AcDbEntity
  8
0
  6
Continuous
 62
     7
370
    25
100
AcDbPolyline
 90
        3
 70
   128
 43
0.0
 10
95.5606435813
 20
158.7817256419
 10
95.2557753539
 20
158.5706432689
 10
94.9032078751
 20
158.2692913434
  0
LWPOLYLINE
  5
19F
330
1F
100
AcDbEntity
  8
0
  6
Continuous
 62
     7
370
    25
100
AcDbPolyline
 90
       14
 70
   128
 43
0.0
 10
81.2550184212
 20
172.4385798914
 10
80.7105636318
 20
171.3028169573
 10
80.2958567935
 20
170.0130936809
 10
80.0250202504
 20
168.6133300415
 10
79.9072770161
 20
167.1511933111
 10
79.9466366952
 20
165.6764748023
 10
80.141758941
 20
164.2393942853
 10
80.4859990995
 20
162.8888898134
 10
80.967634485
 20
161.6709511967
 10
81.570263582
 20
160.6270538741
 10
82.2733645795
 20
159.7927465168
 10
83.0529942162
 20
159.1964404612
 10
83.88260314
 20
158.8584421949
 10
84.5206508685
 20
158.7817256419
  0
ARC
  5
1A0
330
1F
100
AcDbEntity
  8
0
  6
Continuous
 62
     7
370
    25
100
AcDbCircle
 10
84.8918574221
 20
170.817154591
 30
0.0
 40
3.981911340528862
100
AcDbArc
 50
95.3490633312
 51
155.9710776264
  0
LWPOLYLINE
  5
1A1
330
1F
100
AcDbEntity
  8
0
  6
Continuous
 62
     7
370
    25
100
AcDbPolyline
 90
       13
 70
   128
 43
0.0
 10
84.2314364871
 20
89.1829168392
 10
84.822099093
 20
89.4970822868
 10
85.3456949396
 20
90.065358302
 10
85.7665418352
 20
90.8490178136
 10
86.0559597593
 20
91.7946557209
 10
86.1942253588
 20
92.8378283632
 10
86.1719160614
 20
93.907445249
 10
85.990552209
 20
94.930613755
 10
85.6624934483
 20
95.8376066385
 10
85.2100964418
 20
96.5666138333
 10
84.6641912978
 20
97.0679547038
 10
84.0619805498
 20
97.3074636983
 10
83.4445038651
 20
97.2688186745
  0
LINE
  5
1A2
330
1F
100
AcDbEntity
  8
0
  6
Continuous
 62
     7
370
    25
100
AcDbLine
 10
83.4445038651
 20
97.2688186745
 30
0.0
 11
81.6798854611
 21
115.400652063
 31
0.0
  0
LINE
  5
1A3
330
1F
100
AcDbEntity
  8
0
  6
Continuous
 62
     7
370
    25
100
AcDbLine
 10
81.1796106608
 20
120.541083165
 30
0.0
 11
80.7670136022
 21
124.7806066261
 31
0.0
  0
LINE
  5
1A4
330
1F
100
AcDbEntity
  8
0
  6
Continuous
 62
     7
370
    25
100
AcDbLine
 10
79.2315353153
 20
140.5579760607
 30
0.0
 11
78.8189382567
 21
144.7974995217
 31
0.0
  0
LINE
  5
1A5
330
1F
100
AcDbEntity
  8
0
  6
Continuous
 62
     7
370
    25
100
AcDbLine
 10
78.3186634564
 20
149.9379306237
 30
0.0
 11
76.5540450525
 21
168.0697640122
 31
0.0
  0
LWPOLYLINE
  5
1A6
330
1F
100
AcDbEntity
  8
0
  6
Continuous
 62
     7
370
    25
100
AcDbPolyline
 90
       13
 70
   128
 43
0.0
 10
76.5540450525
 20
168.0697640122
 10
77.1447076584
 20
168.3839294598
 10
77.668303505
 20
168.952205475
 10
78.0891504005
 20
169.7358649866
 10
78.3785683247
 20
170.6815028939
 10
78.5168339241
 20
171.7246755362
 10
78.4945246267
 20
172.794292422
 10
78.3131607743
 20
173.817460928
 10
77.9851020137
 20
174.7244538115
 10
77.5327050072
 20
175.4534610063
 10
76.9867998632
 20
175.9548018768
 10
76.3845891152
 20
176.1943108713
 10
75.7671124304
 20
176.1556658475
  0
LINE
  5
1A7
330
1F
100
AcDbEntity
  8
0
  6
Continuous
 62
     7
370
    25
100
AcDbLine
 10
75.7671124304
 20
176.1556658475
 30
0.0
 11
75.2009048121
 21
181.9735708265
 31
0.0
  0
ARC
  5
1A8
330
1F
100
AcDbEntity
  8
0
  6
Continuous
 62
     7
370
    25
100
AcDbCircle
 10
75.6465107246
 20
108.9819265442
 30
0.0
 40
27.20238151482364
100
AcDbArc
 50
289.6582578919
 51
329.0942156286
  0
ARC
  5
1A9
330
1F
100
AcDbEntity
  8
0
  6
Continuous
 62
     7
370
    25
100
AcDbCircle
 10
79.8234805095
 20
162.6471890953
 30
0.0
 40
19.87151823331039
100
AcDbArc
 50
37.6364949756
 51
103.4515584781
  0
LINE
  5
1AA
330
1F
100
AcDbEntity
  8
0
  6
Continuous
 62
     7
370
    25
100
AcDbLine
 10
84.7976441054
 20
83.3650118602
 30
0.0
 11
84.2314364871
 21
89.1829168392
 31
0.0
  0
LINE
  5
1AB
330
1F
100
AcDbEntity
  8
0
  6
Continuous
 62
     7
370
    25
100
AcDbLine
 10
71.9347415646
 20
181.9735708265
 30
0.0
 11
75.2009048121
 21
181.9735708265
 31
0.0
  0
LINE
  5
1AC
330
1F
100
AcDbEntity
  8
0
  6
Continuous
 62
     7
370
    25
100
AcDbLine
 10
84.7976441054
 20
83.3650118602
 30
0.0
 11
81.5314808579
 21
83.3650118602
 31
0.0
  0
LINE
  5
1AD
330
1F
100
AcDbEntity
  8
0
  6
Continuous
 62
     7
370
    25
100
AcDbLine
 10
73.2878818049
 20
168.0697640122
 30
0.0
 11
76.5540450525
 21
168.0697640122
 31
0.0
  0
LINE
  5
1AE
330
1F
100
AcDbEntity
  8
0
  6
Continuous
 62
     7
370
    25
100
AcDbLine
 10
75.0525002089
 20
149.9379306237
 30
0.0
 11
78.3186634564
 21
149.9379306237
 31
0.0
  0
LINE
  5
1AF
330
1F
100
AcDbEntity
  8
0
  6
Continuous
 62
     7
370
    25
100
AcDbLine
 10
75.0525002089
 20
149.9379306237
 30
0.0
 11
73.2878818049
 21
168.0697640122
 31
0.0
  0
LINE
  5
1B0
330
1F
100
AcDbEntity
  8
0
  6
Continuous
 62
     7
370
    25
100
AcDbLine
 10
79.1339319784
 20
124.7806066261
 30
0.0
 11
80.7670136022
 21
124.7806066261
 31
0.0
  0
LINE
  5
1B1
330
1F
100
AcDbEntity
  8
0
  6
Continuous
 62
     7
370
    25
100
AcDbLine
 10
77.9134474133
 20
120.541083165
 30
0.0
 11
81.1796106608
 21
120.541083165
 31
0.0
  0
LINE
  5
1B2
330
1F
100
AcDbEntity
  8
0
  6
Continuous
 62
     7
370
    25
100
AcDbLine
 10
78.8189382567
 20
144.7974995217
 30
0.0
 11
75.5527750091
 21
144.7974995217
 31
0.0
  0
LINE
  5
1B3
330
1F
100
AcDbEntity
  8
0
  6
Continuous
 62
     7
370
    25
100
AcDbLine
 10
79.2315353153
 20
140.5579760607
 30
0.0
 11
77.5984536915
 21
140.5579760607
 31
0.0
  0
LINE
  5
1B4
330
1F
100
AcDbEntity
  8
0
  6
Continuous
 62
     7
370
    25
100
AcDbLine
 10
77.9134474133
 20
120.541083165
 30
0.0
 11
75.5527750091
 21
144.7974995217
 31
0.0
  0
LINE
  5
1B5
330
1F
100
AcDbEntity
  8
0
  6
Continuous
 62
     7
370
    25
100
AcDbLine
 10
75.7671124304
 20
176.1556658475
 30
0.0
 11
72.5009491829
 21
176.1556658475
 31
0.0
  0
LWPOLYLINE
  5
1B6
330
1F
100
AcDbEntity
  8
0
  6
Continuous
 62
     7
370
    25
100
AcDbPolyline
 90
       12
 70
   128
 43
0.0
 10
73.2878818049
 20
168.0697640122
 10
73.8785444108
 20
168.3839294598
 10
74.4021402574
 20
168.952205475
 10
74.822987153
 20
169.7358649866
 10
75.1124050771
 20
170.6815028939
 10
75.2506706766
 20
171.7246755362
 10
75.2283613792
 20
172.794292422
 10
75.0469975268
 20
173.817460928
 10
74.7189387661
 20
174.7244538115
 10
74.2665417596
 20
175.4534610063
 10
73.7206366157
 20
175.9548018768
 10
73.2878818049
 20
176.1556658475
  0
ARC
  5
1B7
330
1F
100
AcDbEntity
  8
0
  6
Continuous
 62
     7
370
    25
100
AcDbCircle
 10
71.8597925256
 20
147.0326520007
 30
0.0
 40
4.316714749485742
100
AcDbArc
 50
328.8158629021
 51
42.3013563196
  0
LINE
  5
1B8
330
1F
100
AcDbEntity
  8
0
  6
Continuous
 62
     7
370
    25
100
AcDbLine
 10
83.4445038651
 20
97.2688186745
 30
0.0
 11
80.1783406175
 21
97.2688186745
 31
0.0
  0
LINE
  5
1B9
330
1F
100
AcDbEntity
  8
0
  6
Continuous
 62
     7
370
    25
100
AcDbLine
 10
81.6798854611
 20
115.400652063
 30
0.0
 11
78.4137222136
 21
115.400652063
 31
0.0
  0
LINE
  5
1BA
330
1F
100
AcDbEntity
  8
0
  6
Continuous
 62
     7
370
    25
100
AcDbLine
 10
80.1783406175
 20
97.2688186745
 30
0.0
 11
78.4137222136
 21
115.400652063
 31
0.0
  0
ARC
  5
1BB
330
1F
100
AcDbEntity
  8
0
  6
Continuous
 62
     7
370
    25
100
AcDbCircle
 10
76.6838955796
 20
118.3008168869
 30
0.0
 40
4.274526320514064
100
AcDbArc
 50
317.2753094174
 51
31.6074713608
  0
LINE
  5
1BC
330
1F
100
AcDbEntity
  8
0
  6
Continuous
 62
     7
370
    25
100
AcDbLine
 10
80.9652732396
 20
89.1829168392
 30
0.0
 11
84.2314364871
 21
89.1829168392
 31
0.0
  0
LWPOLYLINE
  5
1BD
330
1F
100
AcDbEntity
  8
0
  6
Continuous
 62
     7
370
    25
100
AcDbPolyline
 90
       12
 70
   128
 43
0.0
 10
80.9652732396
 20
89.1829168392
 10
81.5559358455
 20
89.4970822868
 10
82.0795316921
 20
90.065358302
 10
82.5003785877
 20
90.8490178136
 10
82.7897965118
 20
91.7946557209
 10
82.9280621112
 20
92.8378283632
 10
82.9057528138
 20
93.907445249
 10
82.7243889614
 20
94.930613755
 10
82.3963302008
 20
95.8376066385
 10
81.9439331943
 20
96.5666138333
 10
81.3980280503
 20
97.0679547038
 10
80.9652732396
 20
97.2688186745
  0
LWPOLYLINE
  5
1BE
330
1F
100
AcDbEntity
  8
0
  6
Continuous
 62
     7
370
    25
100
AcDbPolyline
 90
       17
 70
   128
 43
0.0
 10
71.1336981834
 20
139.7876677453
 10
70.8525865736
 20
139.8074606079
 10
70.1170163354
 20
140.0519548892
 10
69.4289850105
 20
140.5646447289
 10
68.8206641788
 20
141.3215573199
 10
68.3204982465
 20
142.2873002706
 10
67.9518744166
 20
143.4167165141
 10
67.7320291297
 20
144.656995802
 10
67.6712421071
 20
145.9501440533
 10
67.7723556823
 20
147.2356950931
 10
68.030641897
 20
148.4535379834
 10
68.4340235749
 20
149.5467277443
 10
68.963639037
 20
150.4641480375
 10
69.5947240529
 20
151.1629013098
 10
70.2977697888
 20
151.6103146348
 10
71.0399026073
 20
151.7854674626
 10
71.1336981834
 20
151.7876677453
  0
LWPOLYLINE
  5
1BF
330
1F
100
AcDbEntity
  8
0
  6
Continuous
 62
     7
370
    25
100
AcDbPolyline
 90
       15
 70
   128
 43
0.0
 10
74.5076989679
 20
119.3954889967
 10
74.2265873581
 20
119.4152818594
 10
73.4910171199
 20
119.6597761407
 10
72.802985795
 20
120.1724659804
 10
72.1946649633
 20
120.9293785714
 10
71.694499031
 20
121.8951215221
 10
71.3258752011
 20
123.0245377656
 10
71.1060299142
 20
124.2648170535
 10
71.0452428915
 20
125.5579653048
 10
71.1463564668
 20
126.8435163445
 10
71.4046426815
 20
128.0613592349
 10
71.8080243594
 20
129.1545489958
 10
72.3376398215
 20
130.071969289
 10
72.9687248374
 20
130.7707225613
 10
73.6108309217
 20
131.1908630231
  0
LWPOLYLINE
  5
1C0
330
1F
100
AcDbEntity
  8
0
  6
Continuous
 62
     7
370
    25
100
AcDbPolyline
 90
       14
 70
   128
 43
0.0
 10
101.573602965
 20
107.425500248
 10
101.41628275
 20
106.9832090671
 10
101.063073665
 20
105.6396718892
 10
100.8583961408
 20
104.2065852435
 10
100.8092202248
 20
102.7327511769
 10
100.9172205439
 20
101.2683593408
 10
101.1787192768
 20
99.863277843
 10
101.5848113978
 20
98.5653550486
 10
102.1216679267
 20
97.4187901616
 10
102.7710068583
 20
96.4626280742
 10
103.5107157342
 20
95.7294297394
 10
104.3156046556
 20
95.2441633472
 10
105.1582640959
 20
95.0233540626
 10
105.4247471908
 20
95.0100250904
  0
LWPOLYLINE
  5
1C1
330
1F
100
AcDbEntity
  8
0
  6
Continuous
 62
     7
370
    25
100
AcDbPolyline
 90
       14
 70
   128
 43
0.0
 10
101.573602965
 20
107.425500248
 10
101.41628275
 20
106.9832090671
 10
101.063073665
 20
105.6396718892
 10
100.8583961408
 20
104.2065852435
 10
100.8092202248
 20
102.7327511769
 10
100.9172205439
 20
101.2683593408
 10
101.1787192768
 20
99.863277843
 10
101.5848113978
 20
98.5653550486
 10
102.1216679267
 20
97.4187901616
 10
102.7710068583
 20
96.4626280742
 10
103.5107157342
 20
95.7294297394
 10
104.3156046556
 20
95.2441633472
 10
105.1582640959
 20
95.0233540626
 10
105.4247471908
 20
95.0100250904
  0
LWPOLYLINE
  5
1C2
330
1F
100
AcDbEntity
  8
0
  6
Continuous
 62
     7
370
    25
100
AcDbPolyline
 90
       19
 70
   128
 43
0.0
 10
99.2183854824
 20
174.7817256419
 10
98.8453284558
 20
174.7555826054
 10
98.0058429084
 20
174.5010692364
 10
97.2076490439
 20
173.9836828796
 10
96.4779283973
 20
173.2210425069
 10
95.8415307299
 20
172.2391189215
 10
95.320127801
 20
171.0713503534
 10
94.931475362
 20
169.7575037605
 10
94.6888085056
 20
168.3423206129
 10
94.6003909605
 20
166.8739932753
 10
94.6692336802
 20
165.4025238741
 10
94.8929923083
 20
163.9780215349
 10
95.2640470133
 20
162.6489959764
 10
95.7697619722
 20
161.46070557
 10
96.3929156685
 20
160.4536161203
 10
97.1122873505
 20
159.6620228506
 10
97.9033796785
 20
159.1128825204
 10
98.7392529519
 20
158.8248954449
 10
99.2183854824
 20
158.7817256419
  0
LWPOLYLINE
  5
1C3
330
1F
100
AcDbEntity
  8
0
  6
Continuous
 62
     7
370
    25
100
AcDbPolyline
 90
       19
 70
   128
 43
0.0
 10
99.2183854824
 20
174.7817256419
 10
98.8453284558
 20
174.7555826054
 10
98.0058429084
 20
174.5010692364
 10
97.2076490439
 20
173.9836828796
 10
96.4779283973
 20
173.2210425069
 10
95.8415307299
 20
172.2391189215
 10
95.320127801
 20
171.0713503534
 10
94.931475362
 20
169.7575037605
 10
94.6888085056
 20
168.3423206129
 10
94.6003909605
 20
166.8739932753
 10
94.6692336802
 20
165.4025238741
 10
94.8929923083
 20
163.9780215349
 10
95.2640470133
 20
162.6489959764
 10
95.7697619722
 20
161.46070557
 10
96.3929156685
 20
160.4536161203
 10
97.1122873505
 20
159.6620228506
 10
97.9033796785
 20
159.1128825204
 10
98.7392529519
 20
158.8248954449
 10
99.2183854824
 20
158.7817256419
  0
ARC
  5
1C4
330
1F
100
AcDbEntity
  8
0
  6
Continuous
 62
     7
370
    25
100
AcDbCircle
 10
80.320406188
 20
249.8215356034
 30
0.0
 40
30.43751802837986
100
AcDbArc
 50
281.6523802663
 51
285.1666922847
  0
ENDSEC
  0
SECTION
  2
OBJECTS
  0
DICTIONARY
  5
C
330
0
100
AcDbDictionary
281
     1
  3
ACAD_GROUP
350
D
  3
ACAD_LAYOUT
350
1A
  3
ACAD_MLINESTYLE
350
17
  3
ACAD_PLOTSETTINGS
350
19
  3
ACAD_PLOTSTYLENAME
350
E
  3
ACAD_SCALELIST
350
47
  3
DWGPROPS
350
1C5
  0
DICTIONARY
  5
D
102
{ACAD_REACTORS
330
C
102
}
330
C
100
AcDbDictionary
281
     1
  0
DICTIONARY
  5
1A
102
{ACAD_REACTORS
330
C
102
}
330
C
100
AcDbDictionary
281
     1
  3
Layout1
350
1E
  3
Layout2
350
26
  3
Model
350
22
  0
DICTIONARY
  5
17
102
{ACAD_REACTORS
330
C
102
}
330
C
100
AcDbDictionary
281
     1
  3
Standard
350
18
  0
DICTIONARY
  5
19
102
{ACAD_REACTORS
330
C
102
}
330
C
100
AcDbDictionary
281
     1
  0
ACDBDICTIONARYWDFLT
  5
E
102
{ACAD_REACTORS
330
C
102
}
330
C
100
AcDbDictionary
281
     1
  3
Normal
350
F
100
AcDbDictionaryWithDefault
340
F
  0
DICTIONARY
  5
47
102
{ACAD_REACTORS
330
C
102
}
330
C
100
AcDbDictionary
281
     1
  3
A0
350
48
  3
A1
350
49
  3
A2
350
4A
  3
A3
350
4B
  3
A4
350
4C
  3
A5
350
4D
  3
A6
350
4E
  3
A7
350
4F
  3
A8
350
50
  3
A9
350
51
  3
B0
350
52
  3
B1
350
53
  3
B2
350
54
  3
B3
350
55
  3
B4
350
56
  3
B5
350
57
  3
B6
350
58
  0
XRECORD
  5
1C5
102
{ACAD_REACTORS
330
C
102
}
330
C
100
AcDbXrecord
280
     1
  1
DWGPROPS COOKIE
  2

  3

  4

  6

  7

  8
glowacja
  9

300
=
301
=
302
=
303
=
304
=
305
=
306
=
307
=
308
=
309
=
 40
0.0
 41
2460221.157475903
 42
2460221.157478021
  1

 90
        0
  0
LAYOUT
  5
1E
102
{ACAD_REACTORS
330
1A
102
}
330
1A
100
AcDbPlotSettings
  1

  2
none_device
  4

  6

 40
0.0
 41
0.0
 42
0.0
 43
0.0
 44
0.0
 45
0.0
 46
0.0
 47
0.0
 48
0.0
 49
0.0
140
0.0
141
0.0
142
1.0
143
1.0
 70
   688
 72
     1
 73
     0
 74
     5
  7

 75
    16
147
1.0
148
0.0
149
0.0
100
AcDbLayout
  1
Layout1
 70
     1
 71
     1
 10
0.0
 20
0.0
 11
420.0
 21
297.0
 12
0.0
 22
0.0
 32
0.0
 14
1.0000000000E+20
 24
1.0000000000E+20
 34
1.0000000000E+20
 15
-1.0000000000E+20
 25
-1.0000000000E+20
 35
-1.0000000000E+20
146
0.0
 13
0.0
 23
0.0
 33
0.0
 16
1.0
 26
0.0
 36
0.0
 17
0.0
 27
1.0
 37
0.0
 76
     0
330
1B
  0
LAYOUT
  5
26
102
{ACAD_REACTORS
330
1A
102
}
330
1A
100
AcDbPlotSettings
  1

  2
none_device
  4

  6

 40
0.0
 41
0.0
 42
0.0
 43
0.0
 44
0.0
 45
0.0
 46
0.0
 47
0.0
 48
0.0
 49
0.0
140
0.0
141
0.0
142
1.0
143
1.0
 70
   688
 72
     1
 73
     0
 74
     5
  7

 75
    16
147
1.0
148
0.0
149
0.0
100
AcDbLayout
  1
Layout2
 70
     1
 71
     2
 10
0.0
 20
0.0
 11
0.0
 21
0.0
 12
0.0
 22
0.0
 32
0.0
 14
0.0
 24
0.0
 34
0.0
 15
0.0
 25
0.0
 35
0.0
146
0.0
 13
0.0
 23
0.0
 33
0.0
 16
1.0
 26
0.0
 36
0.0
 17
0.0
 27
1.0
 37
0.0
 76
     0
330
23
  0
LAYOUT
  5
22
102
{ACAD_REACTORS
330
1A
102
}
330
1A
100
AcDbPlotSettings
  1

  2
none_device
  4
Letter_(8.50_x_11.00_Inches)
  6

 40
6.35
 41
6.35
 42
6.35000508
 43
6.35000508
 44
215.9
 45
279.4
 46
0.0
 47
0.0
 48
0.0
 49
0.0
140
0.0
141
0.0
142
1.0
143
1.0
 70
  1712
 72
     1
 73
     0
 74
     0
  7

 75
     0
147
1.0
148
0.0
149
0.0
100
AcDbLayout
  1
Model
 70
     1
 71
     0
 10
0.0
 20
0.0
 11
210.0
 21
297.0
 12
0.0
 22
0.0
 32
0.0
 14
0.0
 24
0.0
 34
0.0
 15
210.0
 25
297.0
 35
0.0
146
0.0
 13
0.0
 23
0.0
 33
0.0
 16
1.0
 26
0.0
 36
0.0
 17
0.0
 27
1.0
 37
0.0
 76
     0
330
1F
331
29
  0
MLINESTYLE
  5
18
102
{ACAD_REACTORS
330
17
102
}
330
17
100
AcDbMlineStyle
  2
Standard
 70
     0
  3

 62
   256
 51
90.0
 52
90.0
 71
     2
 49
0.5
 62
   256
  6
BYLAYER
 49
-0.5
 62
   256
  6
BYLAYER
  0
ACDBPLACEHOLDER
  5
F
102
{ACAD_REACTORS
330
E
102
}
330
E
  0
SCALE
  5
48
102
{ACAD_REACTORS
330
47
102
}
330
47
100
AcDbScale
 70
     0
300
1:1
140
1.0
141
1.0
290
     1
  0
SCALE
  5
49
102
{ACAD_REACTORS
330
47
102
}
330
47
100
AcDbScale
 70
     0
300
1:2
140
1.0
141
2.0
290
     0
  0
SCALE
  5
4A
102
{ACAD_REACTORS
330
47
102
}
330
47
100
AcDbScale
 70
     0
300
1:4
140
1.0
141
4.0
290
     0
  0
SCALE
  5
4B
102
{ACAD_REACTORS
330
47
102
}
330
47
100
AcDbScale
 70
     0
300
1:5
140
1.0
141
5.0
290
     0
  0
SCALE
  5
4C
102
{ACAD_REACTORS
330
47
102
}
330
47
100
AcDbScale
 70
     0
300
1:8
140
1.0
141
8.0
290
     0
  0
SCALE
  5
4D
102
{ACAD_REACTORS
330
47
102
}
330
47
100
AcDbScale
 70
     0
300
1:10
140
1.0
141
10.0
290
     0
  0
SCALE
  5
4E
102
{ACAD_REACTORS
330
47
102
}
330
47
100
AcDbScale
 70
     0
300
1:16
140
1.0
141
16.0
290
     0
  0
SCALE
  5
4F
102
{ACAD_REACTORS
330
47
102
}
330
47
100
AcDbScale
 70
     0
300
1:20
140
1.0
141
20.0
290
     0
  0
SCALE
  5
50
102
{ACAD_REACTORS
330
47
102
}
330
47
100
AcDbScale
 70
     0
300
1:30
140
1.0
141
30.0
290
     0
  0
SCALE
  5
51
102
{ACAD_REACTORS
330
47
102
}
330
47
100
AcDbScale
 70
     0
300
1:40
140
1.0
141
40.0
290
     0
  0
SCALE
  5
52
102
{ACAD_REACTORS
330
47
102
}
330
47
100
AcDbScale
 70
     0
300
1:50
140
1.0
141
50.0
290
     0
  0
SCALE
  5
53
102
{ACAD_REACTORS
330
47
102
}
330
47
100
AcDbScale
 70
     0
300
1:100
140
1.0
141
100.0
290
     0
  0
SCALE
  5
54
102
{ACAD_REACTORS
330
47
102
}
330
47
100
AcDbScale
 70
     0
300
2:1
140
2.0
141
1.0
290
     0
  0
SCALE
  5
55
102
{ACAD_REACTORS
330
47
102
}
330
47
100
AcDbScale
 70
     0
300
4:1
140
4.0
141
1.0
290
     0
  0
SCALE
  5
56
102
{ACAD_REACTORS
330
47
102
}
330
47
100
AcDbScale
 70
     0
300
8:1
140
8.0
141
1.0
290
     0
  0
SCALE
  5
57
102
{ACAD_REACTORS
330
47
102
}
330
47
100
AcDbScale
 70
     0
300
10:1
140
10.0
141
1.0
290
     0
  0
SCALE
  5
58
102
{ACAD_REACTORS
330
47
102
}
330
47
100
AcDbScale
 70
     0
300
100:1
140
100.0
141
1.0
290
     0
  0
ENDSEC
  0
EOF
